  0
SECTION
  2
HEADER
  9
$ACADVER
  1
AC1032
  9
$ACADMAINTVER
 90
      329
  9
$DWGCODEPAGE
  3
ANSI_1252
  9
$REQUIREDVERSIONS
160
                 0
  9
$INSBASE
 10
0.0
 20
0.0
 30
0.0
  9
$EXTMIN
 10
-28503.06818190477
 20
-20976.93704134069
 30
0.0
  9
$EXTMAX
 10
28533.99381270412
 20
21060.12495326827
 30
0.0
  9
$LIMMIN
 10
0.0
 20
0.0
  9
$LIMMAX
 10
12.0
 20
9.0
  9
$ORTHOMODE
 70
     0
  9
$REGENMODE
 70
     1
  9
$FILLMODE
 70
     1
  9
$QTEXTMODE
 70
     0
  9
$MIRRTEXT
 70
     0
  9
$LTSCALE
 40
1.0
  9
$ATTMODE
 70
     1
  9
$TEXTSIZE
 40
0.2
  9
$TRACEWID
 40
0.05
  9
$TEXTSTYLE
  7
Standard
  9
$CLAYER
  8
0
  9
$CELTYPE
  6
ByLayer
  9
$CECOLOR
 62
   256
  9
$CELTSCALE
 40
1.0
  9
$DISPSILH
 70
     0
  9
$DIMSCALE
 40
1.0
  9
$DIMASZ
 40
0.18
  9
$DIMEXO
 40
0.0625
  9
$DIMDLI
 40
0.38
  9
$DIMRND
 40
0.0
  9
$DIMDLE
 40
0.0
  9
$DIMEXE
 40
0.18
  9
$DIMTP
 40
0.0
  9
$DIMTM
 40
0.0
  9
$DIMTXT
 40
0.18
  9
$DIMCEN
 40
0.09
  9
$DIMTSZ
 40
0.0
  9
$DIMTOL
 70
     0
  9
$DIMLIM
 70
     0
  9
$DIMTIH
 70
     1
  9
$DIMTOH
 70
     1
  9
$DIMSE1
 70
     0
  9
$DIMSE2
 70
     0
  9
$DIMTAD
 70
     0
  9
$DIMZIN
 70
     0
  9
$DIMBLK
  1

  9
$DIMASO
 70
     1
  9
$DIMSHO
 70
     1
  9
$DIMPOST
  1

  9
$DIMAPOST
  1

  9
$DIMALT
 70
     0
  9
$DIMALTD
 70
     2
  9
$DIMALTF
 40
25.4
  9
$DIMLFAC
 40
1.0
  9
$DIMTOFL
 70
     0
  9
$DIMTVP
 40
0.0
  9
$DIMTIX
 70
     0
  9
$DIMSOXD
 70
     0
  9
$DIMSAH
 70
     0
  9
$DIMBLK1
  1

  9
$DIMBLK2
  1

  9
$DIMSTYLE
  2
Standard
  9
$DIMCLRD
 70
     0
  9
$DIMCLRE
 70
     0
  9
$DIMCLRT
 70
     0
  9
$DIMTFAC
 40
1.0
  9
$DIMGAP
 40
0.09
  9
$DIMJUST
 70
     0
  9
$DIMSD1
 70
     0
  9
$DIMSD2
 70
     0
  9
$DIMTOLJ
 70
     1
  9
$DIMTZIN
 70
     0
  9
$DIMALTZ
 70
     0
  9
$DIMALTTZ
 70
     0
  9
$DIMUPT
 70
     0
  9
$DIMDEC
 70
     4
  9
$DIMTDEC
 70
     4
  9
$DIMALTU
 70
     2
  9
$DIMALTTD
 70
     2
  9
$DIMTXSTY
  7
Standard
  9
$DIMAUNIT
 70
     0
  9
$DIMADEC
 70
     0
  9
$DIMALTRND
 40
0.0
  9
$DIMAZIN
 70
     0
  9
$DIMDSEP
 70
    46
  9
$DIMATFIT
 70
     3
  9
$DIMFRAC
 70
     0
  9
$DIMLDRBLK
  1

  9
$DIMLUNIT
 70
     2
  9
$DIMLWD
 70
    -2
  9
$DIMLWE
 70
    -2
  9
$DIMTMOVE
 70
     0
  9
$DIMFXL
 40
1.0
  9
$DIMFXLON
 70
     0
  9
$DIMJOGANG
 40
0.7853981633974483
  9
$DIMTFILL
 70
     0
  9
$DIMTFILLCLR
 70
     0
  9
$DIMARCSYM
 70
     0
  9
$DIMLTYPE
  6

  9
$DIMLTEX1
  6

  9
$DIMLTEX2
  6

  9
$DIMTXTDIRECTION
 70
     0
  9
$LUNITS
 70
     2
  9
$LUPREC
 70
     4
  9
$SKETCHINC
 40
0.1
  9
$FILLETRAD
 40
0.0
  9
$AUNITS
 70
     0
  9
$AUPREC
 70
     0
  9
$MENU
  1
.
  9
$ELEVATION
 40
0.0
  9
$PELEVATION
 40
0.0
  9
$THICKNESS
 40
0.0
  9
$LIMCHECK
 70
     0
  9
$CHAMFERA
 40
0.0
  9
$CHAMFERB
 40
0.0
  9
$CHAMFERC
 40
0.0
  9
$CHAMFERD
 40
0.0
  9
$SKPOLY
 70
     0
  9
$TDCREATE
 40
2461174.938981482
  9
$TDUCREATE
 40
2461174.855648148
  9
$TDUPDATE
 40
2461174.938981482
  9
$TDUUPDATE
 40
2461174.855648148
  9
$TDINDWG
 40
0.0000000000
  9
$TDUSRTIMER
 40
0.0000000000
  9
$USRTIMER
 70
     1
  9
$ANGBASE
 50
0.0
  9
$ANGDIR
 70
     0
  9
$PDMODE
 70
     0
  9
$PDSIZE
 40
0.0
  9
$PLINEWID
 40
0.0
  9
$SPLFRAME
 70
     0
  9
$SPLINETYPE
 70
     6
  9
$SPLINESEGS
 70
     8
  9
$HANDSEED
  5
15C
  9
$SURFTAB1
 70
     6
  9
$SURFTAB2
 70
     6
  9
$SURFTYPE
 70
     6
  9
$SURFU
 70
     6
  9
$SURFV
 70
     6
  9
$UCSBASE
  2

  9
$UCSNAME
  2

  9
$UCSORG
 10
0.0
 20
0.0
 30
0.0
  9
$UCSXDIR
 10
1.0
 20
0.0
 30
0.0
  9
$UCSYDIR
 10
0.0
 20
1.0
 30
0.0
  9
$UCSORTHOREF
  2

  9
$UCSORTHOVIEW
 70
     0
  9
$UCSORGTOP
 10
0.0
 20
0.0
 30
0.0
  9
$UCSORGBOTTOM
 10
0.0
 20
0.0
 30
0.0
  9
$UCSORGLEFT
 10
0.0
 20
0.0
 30
0.0
  9
$UCSORGRIGHT
 10
0.0
 20
0.0
 30
0.0
  9
$UCSORGFRONT
 10
0.0
 20
0.0
 30
0.0
  9
$UCSORGBACK
 10
0.0
 20
0.0
 30
0.0
  9
$PUCSBASE
  2

  9
$PUCSNAME
  2

  9
$PUCSORG
 10
0.0
 20
0.0
 30
0.0
  9
$PUCSXDIR
 10
1.0
 20
0.0
 30
0.0
  9
$PUCSYDIR
 10
0.0
 20
1.0
 30
0.0
  9
$PUCSORTHOREF
  2

  9
$PUCSORTHOVIEW
 70
     0
  9
$PUCSORGTOP
 10
0.0
 20
0.0
 30
0.0
  9
$PUCSORGBOTTOM
 10
0.0
 20
0.0
 30
0.0
  9
$PUCSORGLEFT
 10
0.0
 20
0.0
 30
0.0
  9
$PUCSORGRIGHT
 10
0.0
 20
0.0
 30
0.0
  9
$PUCSORGFRONT
 10
0.0
 20
0.0
 30
0.0
  9
$PUCSORGBACK
 10
0.0
 20
0.0
 30
0.0
  9
$USERI1
 70
     0
  9
$USERI2
 70
     0
  9
$USERI3
 70
     0
  9
$USERI4
 70
     0
  9
$USERI5
 70
     0
  9
$USERR1
 40
0.0
  9
$USERR2
 40
0.0
  9
$USERR3
 40
0.0
  9
$USERR4
 40
0.0
  9
$USERR5
 40
0.0
  9
$WORLDVIEW
 70
     1
  9
$SHADEDGE
 70
     3
  9
$SHADEDIF
 70
    70
  9
$TILEMODE
 70
     1
  9
$MAXACTVP
 70
    64
  9
$PINSBASE
 10
0.0
 20
0.0
 30
0.0
  9
$PLIMCHECK
 70
     0
  9
$PEXTMIN
 10
1.000000000000000E+20
 20
1.000000000000000E+20
 30
1.000000000000000E+20
  9
$PEXTMAX
 10
-1.000000000000000E+20
 20
-1.000000000000000E+20
 30
-1.000000000000000E+20
  9
$PLIMMIN
 10
0.0
 20
0.0
  9
$PLIMMAX
 10
12.0
 20
9.0
  9
$UNITMODE
 70
     0
  9
$VISRETAIN
 70
     1
  9
$PLINEGEN
 70
     0
  9
$PSLTSCALE
 70
     1
  9
$TREEDEPTH
 70
  3020
  9
$CMLSTYLE
  2
Standard
  9
$CMLJUST
 70
     0
  9
$CMLSCALE
 40
1.0
  9
$PROXYGRAPHICS
 70
     1
  9
$MEASUREMENT
 70
     1
  9
$CELWEIGHT
370
    -1
  9
$ENDCAPS
280
     0
  9
$JOINSTYLE
280
     0
  9
$LWDISPLAY
290
     0
  9
$INSUNITS
 70
     4
  9
$HYPERLINKBASE
  1

  9
$STYLESHEET
  1

  9
$XEDIT
290
     1
  9
$CEPSNTYPE
380
     0
  9
$PSTYLEMODE
290
     1
  9
$FINGERPRINTGUID
  2
{47251E2B-E17B-8249-A609-75AC58F94B54}
  9
$VERSIONGUID
  2
{CD808F30-F902-5142-96F4-40C55F14B3EC}
  9
$EXTNAMES
290
     1
  9
$PSVPSCALE
 40
0.0
  9
$OLESTARTUP
290
     0
  9
$SORTENTS
280
   127
  9
$INDEXCTL
280
     0
  9
$HIDETEXT
280
     1
  9
$XCLIPFRAME
280
     2
  9
$HALOGAP
280
     0
  9
$OBSCOLOR
 70
   257
  9
$OBSLTYPE
280
     0
  9
$INTERSECTIONDISPLAY
280
     0
  9
$INTERSECTIONCOLOR
 70
   257
  9
$DIMASSOC
280
     2
  9
$PROJECTNAME
  1

  9
$CAMERADISPLAY
290
     0
  9
$LENSLENGTH
 40
50.0
  9
$CAMERAHEIGHT
 40
0.0
  9
$STEPSPERSEC
 40
2.0
  9
$STEPSIZE
 40
6.0
  9
$3DDWFPREC
 40
2.0
  9
$PSOLWIDTH
 40
0.25
  9
$PSOLHEIGHT
 40
4.0
  9
$LOFTANG1
 40
1.570796326794896
  9
$LOFTANG2
 40
1.570796326794896
  9
$LOFTMAG1
 40
0.0
  9
$LOFTMAG2
 40
0.0
  9
$LOFTPARAM
 70
     7
  9
$LOFTNORMALS
280
     1
  9
$LATITUDE
 40
37.795
  9
$LONGITUDE
 40
-122.394
  9
$NORTHDIRECTION
 40
0.0
  9
$TIMEZONE
 70
 -8000
  9
$LIGHTGLYPHDISPLAY
280
     1
  9
$TILEMODELIGHTSYNCH
280
     1
  9
$CMATERIAL
347
11
  9
$SOLIDHIST
280
     0
  9
$SHOWHIST
280
     1
  9
$DWFFRAME
280
     2
  9
$DGNFRAME
280
     0
  9
$REALWORLDSCALE
290
     1
  9
$INTERFERECOLOR
 62
     1
  9
$INTERFEREOBJVS
345
33
  9
$INTERFEREVPVS
346
30
  9
$CSHADOW
280
     0
  9
$SHADOWPLANELOCATION
 40
0.0
  0
ENDSEC
  0
SECTION
  2
CLASSES
  0
CLASS
  1
ACDBDICTIONARYWDFLT
  2
AcDbDictionaryWithDefault
  3
ObjectDBX Classes
 90
        0
 91
        1
280
     0
281
     0
  0
CLASS
  1
MATERIAL
  2
AcDbMaterial
  3
ObjectDBX Classes
 90
     1153
 91
        3
280
     0
281
     0
  0
CLASS
  1
VISUALSTYLE
  2
AcDbVisualStyle
  3
ObjectDBX Classes
 90
     4095
 91
       24
280
     0
281
     0
  0
CLASS
  1
SCALE
  2
AcDbScale
  3
ObjectDBX Classes
 90
     1153
 91
       17
280
     0
281
     0
  0
CLASS
  1
TABLESTYLE
  2
AcDbTableStyle
  3
ObjectDBX Classes
 90
     4095
 91
        1
280
     0
281
     0
  0
CLASS
  1
MLEADERSTYLE
  2
AcDbMLeaderStyle
  3
ACDB_MLEADERSTYLE_CLASS
 90
     4095
 91
        1
280
     0
281
     0
  0
CLASS
  1
ACDBSECTIONVIEWSTYLE
  2
AcDbSectionViewStyle
  3
ObjectDBX Classes
 90
     1025
 91
        1
280
     0
281
     0
  0
CLASS
  1
ACDBDETAILVIEWSTYLE
  2
AcDbDetailViewStyle
  3
ObjectDBX Classes
 90
     1025
 91
        1
280
     0
281
     0
  0
CLASS
  1
RASTERVARIABLES
  2
AcDbRasterVariables
  3
ISM
 90
        0
 91
        1
280
     0
281
     0
  0
CLASS
  1
DICTIONARYVAR
  2
AcDbDictionaryVar
  3
ObjectDBX Classes
 90
        0
 91
        5
280
     0
281
     0
  0
CLASS
  1
CELLSTYLEMAP
  2
AcDbCellStyleMap
  3
ObjectDBX Classes
 90
     1152
 91
        2
280
     0
281
     0
  0
CLASS
  1
SORTENTSTABLE
  2
AcDbSortentsTable
  3
ObjectDBX Classes
 90
        0
 91
        1
280
     0
281
     0
  0
ENDSEC
  0
SECTION
  2
TABLES
  0
TABLE
  2
VPORT
  5
8
330
0
100
AcDbSymbolTable
 70
     1
  0
VPORT
  5
57
330
8
100
AcDbSymbolTableRecord
100
AcDbViewportTableRecord
  2
*Active
 70
     0
 10
0.0
 20
0.0
 11
1.0
 21
1.0
 12
15.46281539967458
 22
41.59395596378636
 13
0.0
 23
0.0
 14
1.0
 24
1.0
 15
0.0
 25
0.0
 16
0.0
 26
0.0
 36
1.0
 17
0.0
 27
0.0
 37
0.0
 40
42037.06199460896
 41
1.35682798198227
 42
50.0
 43
0.0
 44
0.0
 50
0.0
 51
0.0
 71
     0
 72
  1000
 73
     1
 74
     1
 75
     0
 76
     0
 77
     0
 78
     0
281
     0
 65
     1
110
0.0
120
0.0
130
0.0
111
1.0
121
0.0
131
0.0
112
0.0
122
1.0
132
0.0
 79
     0
146
0.0
 60
     3
 61
     5
292
     1
282
     1
141
0.0
142
0.0
 63
   250
421
  3355443
  0
ENDTAB
  0
TABLE
  2
LTYPE
  5
5
330
0
100
AcDbSymbolTable
 70
     2
  0
LTYPE
  5
5B
330
5
100
AcDbSymbolTableRecord
100
AcDbLinetypeTableRecord
  2
ByBlock
 70
     0
  3

 72
    65
 73
     0
 40
0.0
  0
LTYPE
  5
5C
330
5
100
AcDbSymbolTableRecord
100
AcDbLinetypeTableRecord
  2
ByLayer
 70
     0
  3

 72
    65
 73
     0
 40
0.0
  0
LTYPE
  5
5D
330
5
100
AcDbSymbolTableRecord
100
AcDbLinetypeTableRecord
  2
Continuous
 70
     0
  3
Solid line
 72
    65
 73
     0
 40
0.0
  0
LTYPE
  5
116
330
5
100
AcDbSymbolTableRecord
100
AcDbLinetypeTableRecord
  2
Tiret point
 70
     0
  3

 72
    65
 73
     4
 40
6.25
 49
2.5
 74
     0
 49
-1.874999999999999
 74
     0
 49
0.0
 74
     0
 49
-1.874999999999999
 74
     0
  0
ENDTAB
  0
TABLE
  2
LAYER
  5
2
330
0
100
AcDbSymbolTable
 70
     6
  0
LAYER
  5
54
330
2
100
AcDbSymbolTableRecord
100
AcDbLayerTableRecord
  2
0
 70
     0
 62
     7
  6
Continuous
370
    -3
390
F
347
21
348
0
  0
LAYER
  5
84
330
2
100
AcDbSymbolTableRecord
100
AcDbLayerTableRecord
  2
A-WALL
 70
     0
 62
   113
  6
Continuous
370
    13
390
F
347
21
348
0
  0
LAYER
  5
85
330
2
100
AcDbSymbolTableRecord
100
AcDbLayerTableRecord
  2
A-GLAZ
 70
     0
 62
   151
  6
Continuous
370
    13
390
F
347
21
348
0
  0
LAYER
  5
B5
330
2
100
AcDbSymbolTableRecord
100
AcDbLayerTableRecord
  2
A-GLAZ-SILL
 70
     0
 62
     1
  6
Continuous
370
    13
390
F
347
21
348
0
  0
LAYER
  5
E6
330
2
100
AcDbSymbolTableRecord
100
AcDbLayerTableRecord
  2
G-ANNO-SYMB
 70
     0
 62
   111
  6
Continuous
370
    30
390
F
347
21
348
0
  0
ENDTAB
  0
TABLE
  2
STYLE
  5
3
330
0
100
AcDbSymbolTable
 70
     4
  0
STYLE
  5
55
330
3
100
AcDbSymbolTableRecord
100
AcDbTextStyleTableRecord
  2
Standard
 70
     0
 40
0.0
 41
1.0
 50
0.0
 71
     0
 42
0.2
  3
txt
  4

  0
STYLE
  5
5A
330
3
100
AcDbSymbolTableRecord
100
AcDbTextStyleTableRecord
  2
Annotative
 70
     0
 40
0.0
 41
1.0
 50
0.0
 71
     0
 42
0.2
  3
txt
  4

1001
AcadAnnotative
1000
AnnotativeData
1002
{
1070
     1
1070
     1
1002
}
  0
STYLE
  5
EC
330
3
100
AcDbSymbolTableRecord
100
AcDbTextStyleTableRecord
  2
Arial
 70
     0
 40
249.9999999999997
 41
1.0
 50
0.0
 71
     0
 42
0.2
  3
arial.ttf
  4

1001
ACAD
1000
Arial
1071
       34
  0
STYLE
  5
13F
330
3
100
AcDbSymbolTableRecord
100
AcDbTextStyleTableRecord
  2
Trebuchet MS
 70
     0
 40
249.9999999999997
 41
1.0
 50
0.0
 71
     0
 42
0.2
  3
trebuc.ttf
  4

1001
ACAD
1000
Trebuchet MS
1071
       34
  0
ENDTAB
  0
TABLE
  2
VIEW
  5
6
330
0
100
AcDbSymbolTable
 70
     0
  0
ENDTAB
  0
TABLE
  2
UCS
  5
7
330
0
100
AcDbSymbolTable
 70
     1
  0
UCS
  5
150
330
7
100
AcDbSymbolTableRecord
100
AcDbUCSTableRecord
  2
REVIT60-Site par défaut
 70
     0
 10
0.0
 20
0.0
 30
0.0
 11
1.0
 21
0.0
 31
0.0
 12
0.0
 22
1.0
 32
0.0
 79
     0
146
0.0
  0
ENDTAB
  0
TABLE
  2
APPID
  5
9
330
0
100
AcDbSymbolTable
 70
     3
  0
APPID
  5
56
330
9
100
AcDbSymbolTableRecord
100
AcDbRegAppTableRecord
  2
ACAD
 70
     0
  0
APPID
  5
5E
330
9
100
AcDbSymbolTableRecord
100
AcDbRegAppTableRecord
  2
AcadAnnotative
 70
     0
  0
APPID
  5
78
330
9
100
AcDbSymbolTableRecord
100
AcDbRegAppTableRecord
  2
REVIT
 70
     0
  0
ENDTAB
  0
TABLE
  2
DIMSTYLE
  5
A
330
0
100
AcDbSymbolTable
 70
     2
100
AcDbDimStyleTable
 71
     0
  0
DIMSTYLE
105
58
330
A
100
AcDbSymbolTableRecord
100
AcDbDimStyleTableRecord
  2
Standard
 70
     0
340
55
  0
DIMSTYLE
105
59
330
A
100
AcDbSymbolTableRecord
100
AcDbDimStyleTableRecord
  2
Annotative
 70
     0
340
55
1001
AcadAnnotative
1000
AnnotativeData
1002
{
1070
     1
1070
     1
1002
}
  0
ENDTAB
  0
TABLE
  2
BLOCK_RECORD
  5
1
330
0
100
AcDbSymbolTable
 70
     6
  0
BLOCK_RECORD
  5
70
102
{ACAD_XDICTIONARY
360
155
102
}
330
1
100
AcDbSymbolTableRecord
100
AcDbBlockTableRecord
  2
*Model_Space
340
73
 70
     0
280
     1
281
     0
  0
BLOCK_RECORD
  5
6C
330
1
100
AcDbSymbolTableRecord
100
AcDbBlockTableRecord
  2
*Paper_Space
340
6F
 70
     0
280
     1
281
     0
  0
BLOCK_RECORD
  5
74
330
1
100
AcDbSymbolTableRecord
100
AcDbBlockTableRecord
  2
*Paper_Space0
340
77
 70
     0
280
     1
281
     0
  0
BLOCK_RECORD
  5
B4
330
1
100
AcDbSymbolTableRecord
100
AcDbBlockTableRecord
  2
1 Vantail - Droit - 0_60 m x 0_95 m - Appui en aluminium _2_00m large_-255854-Niveau 0
340
0
102
{BLKREFS
331
DF
331
E0
331
E1
331
E2
331
E3
102
}
 70
     0
280
     1
281
     0
  0
BLOCK_RECORD
  5
E7
330
1
100
AcDbSymbolTableRecord
100
AcDbBlockTableRecord
  2
Elévation - Flèche pleine-185067-Niveau 0
340
0
102
{BLKREFS
331
FD
331
FF
331
105
331
EB
102
}
 70
     0
280
     1
281
     0
  0
BLOCK_RECORD
  5
EE
330
1
100
AcDbSymbolTableRecord
100
AcDbBlockTableRecord
  2
Elévation - Flèche pleine-184796-Niveau 0
340
0
102
{BLKREFS
331
FB
331
101
331
103
331
107
102
}
 70
     0
280
     1
281
     0
  0
BLOCK_RECORD
  5
109
330
1
100
AcDbSymbolTableRecord
100
AcDbBlockTableRecord
  2
Coupe - Marque de la ligne de coupe - Verticale pleine-3537-Niveau 0
340
0
102
{BLKREFS
331
115
331
142
331
148
102
}
 70
     0
280
     1
281
     0
  0
BLOCK_RECORD
  5
119
330
1
100
AcDbSymbolTableRecord
100
AcDbBlockTableRecord
  2
Coupe - Extrémité de la ligne de coupe - Pleine-2974-Niveau 0
340
0
102
{BLKREFS
331
13E
331
145
331
14B
102
}
 70
     0
280
     1
281
     0
  0
ENDTAB
  0
ENDSEC
  0
SECTION
  2
BLOCKS
  0
BLOCK
  5
71
330
70
100
AcDbEntity
  8
0
100
AcDbBlockBegin
  2
*Model_Space
 70
     0
 10
0.0
 20
0.0
 30
0.0
  3
*Model_Space
  1

  0
ENDBLK
  5
72
330
70
100
AcDbEntity
  8
0
100
AcDbBlockEnd
  0
BLOCK
  5
6D
330
6C
100
AcDbEntity
 67
     1
  8
0
100
AcDbBlockBegin
  2
*Paper_Space
 70
     0
 10
0.0
 20
0.0
 30
0.0
  3
*Paper_Space
  1

  0
ENDBLK
  5
6E
330
6C
100
AcDbEntity
 67
     1
  8
0
100
AcDbBlockEnd
  0
BLOCK
  5
75
330
74
100
AcDbEntity
 67
     1
  8
0
100
AcDbBlockBegin
  2
*Paper_Space0
 70
     0
 10
0.0
 20
0.0
 30
0.0
  3
*Paper_Space0
  1

  0
ENDBLK
  5
76
330
74
100
AcDbEntity
 67
     1
  8
0
100
AcDbBlockEnd
  0
BLOCK
  5
DD
330
B4
100
AcDbEntity
  8
0
100
AcDbBlockBegin
  2
1 Vantail - Droit - 0_60 m x 0_95 m - Appui en aluminium _2_00m large_-255854-Niveau 0
 70
     0
 10
0.0
 20
0.0
 30
0.0
  3
1 Vantail - Droit - 0_60 m x 0_95 m - Appui en aluminium _2_00m large_-255854-Niveau 0
  1

  0
LINE
  5
B6
330
B4
100
AcDbEntity
  8
A-GLAZ-SILL
100
AcDbLine
 10
999.9999999999916
 20
115.0000000009663
 30
0.0
 11
999.9999999999916
 21
99.99999999999648
 31
0.0
1001
REVIT
1002
{
1070
     1
1000
255403
1002
}
1002
{
1070
     5
1000
255852
1002
}
1002
{
1070
     3
1000
-2000020
1002
}
  0
LINE
  5
B7
330
B4
100
AcDbEntity
  8
A-GLAZ-SILL
100
AcDbLine
 10
-1000.000000000007
 20
99.99999999999866
 30
0.0
 11
-1000.000000000007
 21
115.0000000009664
 31
0.0
1001
REVIT
1002
{
1070
     1
1000
255403
1002
}
1002
{
1070
     5
1000
255852
1002
}
1002
{
1070
     3
1000
-2000020
1002
}
  0
LINE
  5
B8
330
B4
100
AcDbEntity
  8
A-GLAZ-SILL
100
AcDbLine
 10
999.9999999999916
 20
115.0000000009663
 30
0.0
 11
-1000.000000000007
 21
115.0000000009664
 31
0.0
1001
REVIT
1002
{
1070
     1
1000
255403
1002
}
1002
{
1070
     5
1000
255852
1002
}
1002
{
1070
     3
1000
-2000020
1002
}
  0
LINE
  5
B9
330
B4
100
AcDbEntity
  8
A-GLAZ
100
AcDbLine
 10
949.999999999992
 20
-74.00000000001508
 30
0.0
 11
-950.0000000000081
 21
-74.00000000000855
 31
0.0
1001
REVIT
1002
{
1070
     1
1000
255403
1002
}
1002
{
1070
     5
1000
255852
1002
}
1002
{
1070
     3
1000
-2000016
1002
}
  0
LINE
  5
BA
330
B4
100
AcDbEntity
  8
A-GLAZ
100
AcDbLine
 10
-950.0000000000081
 20
-74.00000000000855
 30
0.0
 11
-950.0000000000081
 21
-86.00000000000855
 31
0.0
1001
REVIT
1002
{
1070
     1
1000
255403
1002
}
1002
{
1070
     5
1000
255852
1002
}
1002
{
1070
     3
1000
-2000016
1002
}
  0
LINE
  5
BB
330
B4
100
AcDbEntity
  8
A-GLAZ
100
AcDbLine
 10
-950.0000000000081
 20
-86.00000000000855
 30
0.0
 11
949.9999999999916
 21
-86.00000000001505
 31
0.0
1001
REVIT
1002
{
1070
     1
1000
255403
1002
}
1002
{
1070
     5
1000
255852
1002
}
1002
{
1070
     3
1000
-2000016
1002
}
  0
LINE
  5
BC
330
B4
100
AcDbEntity
  8
A-GLAZ
100
AcDbLine
 10
949.9999999999916
 20
-86.00000000001505
 30
0.0
 11
949.999999999992
 21
-74.00000000001508
 31
0.0
1001
REVIT
1002
{
1070
     1
1000
255403
1002
}
1002
{
1070
     5
1000
255852
1002
}
1002
{
1070
     3
1000
-2000016
1002
}
  0
LINE
  5
BD
330
B4
100
AcDbEntity
  8
A-GLAZ
100
AcDbLine
 10
-950.0000000000081
 20
-100.000000000018
 30
0.0
 11
-950.0000000000081
 21
-60.00000000002088
 31
0.0
1001
REVIT
1002
{
1070
     1
1000
255403
1002
}
1002
{
1070
     5
1000
255852
1002
}
1002
{
1070
     3
1000
-2000018
1002
}
  0
LINE
  5
BE
330
B4
100
AcDbEntity
  8
A-GLAZ
100
AcDbLine
 10
-950.0000000000081
 20
-60.00000000002088
 30
0.0
 11
-1000.000000000007
 21
-60.00000000002073
 31
0.0
1001
REVIT
1002
{
1070
     1
1000
255403
1002
}
1002
{
1070
     5
1000
255852
1002
}
1002
{
1070
     3
1000
-2000018
1002
}
  0
LINE
  5
BF
330
B4
100
AcDbEntity
  8
A-GLAZ
100
AcDbLine
 10
-1000.000000000007
 20
-60.00000000002073
 30
0.0
 11
-1000.000000000007
 21
-100.0000000000178
 31
0.0
1001
REVIT
1002
{
1070
     1
1000
255403
1002
}
1002
{
1070
     5
1000
255852
1002
}
1002
{
1070
     3
1000
-2000018
1002
}
  0
LINE
  5
C0
330
B4
100
AcDbEntity
  8
A-GLAZ
100
AcDbLine
 10
-1000.000000000007
 20
-100.0000000000178
 30
0.0
 11
-950.0000000000081
 21
-100.000000000018
 31
0.0
1001
REVIT
1002
{
1070
     1
1000
255403
1002
}
1002
{
1070
     5
1000
255852
1002
}
1002
{
1070
     3
1000
-2000018
1002
}
  0
LINE
  5
C1
330
B4
100
AcDbEntity
  8
A-GLAZ
100
AcDbLine
 10
949.999999999992
 20
-60.000000000027
 30
0.0
 11
949.999999999992
 21
-100.000000000024
 31
0.0
1001
REVIT
1002
{
1070
     1
1000
255403
1002
}
1002
{
1070
     5
1000
255852
1002
}
1002
{
1070
     3
1000
-2000018
1002
}
  0
LINE
  5
C2
330
B4
100
AcDbEntity
  8
A-GLAZ
100
AcDbLine
 10
949.999999999992
 20
-100.000000000024
 30
0.0
 11
999.9999999999912
 21
-100.0000000000238
 31
0.0
1001
REVIT
1002
{
1070
     1
1000
255403
1002
}
1002
{
1070
     5
1000
255852
1002
}
1002
{
1070
     3
1000
-2000018
1002
}
  0
LINE
  5
C3
330
B4
100
AcDbEntity
  8
A-GLAZ
100
AcDbLine
 10
999.9999999999912
 20
-100.0000000000238
 30
0.0
 11
999.9999999999916
 21
-60.00000000002717
 31
0.0
1001
REVIT
1002
{
1070
     1
1000
255403
1002
}
1002
{
1070
     5
1000
255852
1002
}
1002
{
1070
     3
1000
-2000018
1002
}
  0
LINE
  5
C4
330
B4
100
AcDbEntity
  8
A-GLAZ
100
AcDbLine
 10
999.9999999999916
 20
-60.00000000002717
 30
0.0
 11
949.999999999992
 21
-60.000000000027
 31
0.0
1001
REVIT
1002
{
1070
     1
1000
255403
1002
}
1002
{
1070
     5
1000
255852
1002
}
1002
{
1070
     3
1000
-2000018
1002
}
  0
LINE
  5
C5
330
B4
100
AcDbEntity
  8
A-GLAZ
100
AcDbLine
 10
-950.0000000000081
 20
-100.0000000000179
 30
0.0
 11
949.999999999992
 21
-100.000000000024
 31
0.0
1001
REVIT
1002
{
1070
     1
1000
255403
1002
}
1002
{
1070
     5
1000
255852
1002
}
1002
{
1070
     3
1000
-2000018
1002
}
  0
LINE
  5
C6
330
B4
100
AcDbEntity
  8
A-GLAZ
100
AcDbLine
 10
949.999999999992
 20
-60.000000000027
 30
0.0
 11
-950.0000000000081
 21
-60.00000000002088
 31
0.0
1001
REVIT
1002
{
1070
     1
1000
255403
1002
}
1002
{
1070
     5
1000
255852
1002
}
1002
{
1070
     3
1000
-2000018
1002
}
  0
LINE
  5
C7
330
B4
100
AcDbEntity
  8
A-GLAZ
100
AcDbLine
 10
-985.0000000000076
 20
-50.00000000000049
 30
0.0
 11
-1050.000000000007
 21
-50.00000000000049
 31
0.0
1001
REVIT
1002
{
1070
     1
1000
255403
1002
}
1002
{
1070
     5
1000
255852
1002
}
1002
{
1070
     3
1000
-2000018
1002
}
  0
LINE
  5
C8
330
B4
100
AcDbEntity
  8
A-GLAZ
100
AcDbLine
 10
-1050.000000000007
 20
-50.00000000000049
 30
0.0
 11
-1050.000000000007
 21
-99.99999999999998
 31
0.0
1001
REVIT
1002
{
1070
     1
1000
255403
1002
}
1002
{
1070
     5
1000
255852
1002
}
1002
{
1070
     3
1000
-2000018
1002
}
  0
LINE
  5
C9
330
B4
100
AcDbEntity
  8
A-GLAZ
100
AcDbLine
 10
-1050.000000000007
 20
-99.99999999999998
 30
0.0
 11
-1000.000000000007
 21
-99.99999999999998
 31
0.0
1001
REVIT
1002
{
1070
     1
1000
255403
1002
}
1002
{
1070
     5
1000
255852
1002
}
1002
{
1070
     3
1000
-2000018
1002
}
  0
LINE
  5
CA
330
B4
100
AcDbEntity
  8
A-GLAZ
100
AcDbLine
 10
-1000.000000000007
 20
-99.99999999999998
 30
0.0
 11
-1000.000000000007
 21
-60.00000000000057
 31
0.0
1001
REVIT
1002
{
1070
     1
1000
255403
1002
}
1002
{
1070
     5
1000
255852
1002
}
1002
{
1070
     3
1000
-2000018
1002
}
  0
LINE
  5
CB
330
B4
100
AcDbEntity
  8
A-GLAZ
100
AcDbLine
 10
-1000.000000000007
 20
-60.00000000000057
 30
0.0
 11
-985.0000000000076
 21
-60.00000000000057
 31
0.0
1001
REVIT
1002
{
1070
     1
1000
255403
1002
}
1002
{
1070
     5
1000
255852
1002
}
1002
{
1070
     3
1000
-2000018
1002
}
  0
LINE
  5
CC
330
B4
100
AcDbEntity
  8
A-GLAZ
100
AcDbLine
 10
-985.0000000000076
 20
-60.00000000000057
 30
0.0
 11
-985.0000000000076
 21
-50.00000000000049
 31
0.0
1001
REVIT
1002
{
1070
     1
1000
255403
1002
}
1002
{
1070
     5
1000
255852
1002
}
1002
{
1070
     3
1000
-2000018
1002
}
  0
LINE
  5
CD
330
B4
100
AcDbEntity
  8
A-GLAZ
100
AcDbLine
 10
1049.99999999999
 20
-50.00000000000049
 30
0.0
 11
984.9999999999914
 21
-50.00000000000049
 31
0.0
1001
REVIT
1002
{
1070
     1
1000
255403
1002
}
1002
{
1070
     5
1000
255852
1002
}
1002
{
1070
     3
1000
-2000018
1002
}
  0
LINE
  5
CE
330
B4
100
AcDbEntity
  8
A-GLAZ
100
AcDbLine
 10
984.9999999999914
 20
-50.00000000000049
 30
0.0
 11
984.9999999999914
 21
-60.00000000000057
 31
0.0
1001
REVIT
1002
{
1070
     1
1000
255403
1002
}
1002
{
1070
     5
1000
255852
1002
}
1002
{
1070
     3
1000
-2000018
1002
}
  0
LINE
  5
CF
330
B4
100
AcDbEntity
  8
A-GLAZ
100
AcDbLine
 10
984.9999999999914
 20
-60.00000000000057
 30
0.0
 11
999.9999999999912
 21
-60.00000000000057
 31
0.0
1001
REVIT
1002
{
1070
     1
1000
255403
1002
}
1002
{
1070
     5
1000
255852
1002
}
1002
{
1070
     3
1000
-2000018
1002
}
  0
LINE
  5
D0
330
B4
100
AcDbEntity
  8
A-GLAZ
100
AcDbLine
 10
999.9999999999912
 20
-60.00000000000057
 30
0.0
 11
999.9999999999912
 21
-99.99999999999998
 31
0.0
1001
REVIT
1002
{
1070
     1
1000
255403
1002
}
1002
{
1070
     5
1000
255852
1002
}
1002
{
1070
     3
1000
-2000018
1002
}
  0
LINE
  5
D1
330
B4
100
AcDbEntity
  8
A-GLAZ
100
AcDbLine
 10
999.9999999999912
 20
-99.99999999999998
 30
0.0
 11
1049.99999999999
 21
-99.99999999999998
 31
0.0
1001
REVIT
1002
{
1070
     1
1000
255403
1002
}
1002
{
1070
     5
1000
255852
1002
}
1002
{
1070
     3
1000
-2000018
1002
}
  0
LINE
  5
D2
330
B4
100
AcDbEntity
  8
A-GLAZ
100
AcDbLine
 10
1049.99999999999
 20
-99.99999999999998
 30
0.0
 11
1049.99999999999
 21
-50.00000000000049
 31
0.0
1001
REVIT
1002
{
1070
     1
1000
255403
1002
}
1002
{
1070
     5
1000
255852
1002
}
1002
{
1070
     3
1000
-2000018
1002
}
  0
LINE
  5
D3
330
B4
100
AcDbEntity
  8
A-GLAZ
100
AcDbLine
 10
-985.0000000000076
 20
-50.00000000000049
 30
0.0
 11
984.9999999999914
 21
-50.00000000000049
 31
0.0
1001
REVIT
1002
{
1070
     1
1000
255403
1002
}
1002
{
1070
     5
1000
255852
1002
}
1002
{
1070
     3
1000
-2000018
1002
}
  0
LINE
  5
D4
330
B4
100
AcDbEntity
  8
A-GLAZ
100
AcDbLine
 10
999.9999999999912
 20
9.999999999952516
 30
0.0
 11
-1000.000000000007
 21
9.999999999955765
 31
0.0
1001
REVIT
1002
{
1070
     1
1000
255403
1002
}
1002
{
1070
     5
1000
255852
1002
}
1002
{
1070
     3
1000
-2000018
1002
}
  0
LINE
  5
D5
330
B4
100
AcDbEntity
  8
A-GLAZ
370
     9
100
AcDbLine
 10
999.9999999999912
 20
-50.00000000000106
 30
0.0
 11
1009.999999999992
 21
-50.00000000000106
 31
0.0
1001
REVIT
1002
{
1070
     1
1000
255403
1002
}
1002
{
1070
     5
1000
255852
1002
}
1002
{
1070
     3
1000
135838
1002
}
  0
LINE
  5
D6
330
B4
100
AcDbEntity
  8
A-GLAZ
370
     9
100
AcDbLine
 10
1009.999999999992
 20
-50.00000000000106
 30
0.0
 11
1009.999999999992
 21
0.0000000000015566
 31
0.0
1001
REVIT
1002
{
1070
     1
1000
255403
1002
}
1002
{
1070
     5
1000
255852
1002
}
1002
{
1070
     3
1000
135838
1002
}
  0
LINE
  5
D7
330
B4
100
AcDbEntity
  8
A-GLAZ
370
     9
100
AcDbLine
 10
1009.999999999992
 20
0.0000000000015566
 30
0.0
 11
999.9999999999912
 21
0.0000000000015566
 31
0.0
1001
REVIT
1002
{
1070
     1
1000
255403
1002
}
1002
{
1070
     5
1000
255852
1002
}
1002
{
1070
     3
1000
135838
1002
}
  0
LINE
  5
D8
330
B4
100
AcDbEntity
  8
A-GLAZ
370
     9
100
AcDbLine
 10
999.9999999999912
 20
0.0000000000015566
 30
0.0
 11
999.9999999999912
 21
-50.00000000000106
 31
0.0
1001
REVIT
1002
{
1070
     1
1000
255403
1002
}
1002
{
1070
     5
1000
255852
1002
}
1002
{
1070
     3
1000
135838
1002
}
  0
LINE
  5
D9
330
B4
100
AcDbEntity
  8
A-GLAZ
370
     9
100
AcDbLine
 10
-1000.000000000007
 20
-50.00000000000106
 30
0.0
 11
-1000.000000000007
 21
0.0000000000015566
 31
0.0
1001
REVIT
1002
{
1070
     1
1000
255403
1002
}
1002
{
1070
     5
1000
255852
1002
}
1002
{
1070
     3
1000
135838
1002
}
  0
LINE
  5
DA
330
B4
100
AcDbEntity
  8
A-GLAZ
370
     9
100
AcDbLine
 10
-1000.000000000007
 20
0.0000000000015566
 30
0.0
 11
-1010.000000000008
 21
0.0000000000015566
 31
0.0
1001
REVIT
1002
{
1070
     1
1000
255403
1002
}
1002
{
1070
     5
1000
255852
1002
}
1002
{
1070
     3
1000
135838
1002
}
  0
LINE
  5
DB
330
B4
100
AcDbEntity
  8
A-GLAZ
370
     9
100
AcDbLine
 10
-1010.000000000008
 20
0.0000000000015566
 30
0.0
 11
-1010.000000000008
 21
-50.00000000000106
 31
0.0
1001
REVIT
1002
{
1070
     1
1000
255403
1002
}
1002
{
1070
     5
1000
255852
1002
}
1002
{
1070
     3
1000
135838
1002
}
  0
LINE
  5
DC
330
B4
100
AcDbEntity
  8
A-GLAZ
370
     9
100
AcDbLine
 10
-1010.000000000008
 20
-50.00000000000106
 30
0.0
 11
-1000.000000000007
 21
-50.00000000000106
 31
0.0
1001
REVIT
1002
{
1070
     1
1000
255403
1002
}
1002
{
1070
     5
1000
255852
1002
}
1002
{
1070
     3
1000
135838
1002
}
  0
ENDBLK
  5
DE
330
B4
100
AcDbEntity
  8
0
100
AcDbBlockEnd
  0
BLOCK
  5
E9
330
E7
100
AcDbEntity
  8
0
100
AcDbBlockBegin
  2
Elévation - Flèche pleine-185067-Niveau 0
 70
     0
 10
0.0
 20
0.0
 30
0.0
  3
Elévation - Flèche pleine-185067-Niveau 0
  1

  0
CIRCLE
  5
E8
330
E7
100
AcDbEntity
  8
G-ANNO-SYMB
100
AcDbCircle
 10
0.0
 20
0.0
 30
0.0
 40
6.000000000000006
1001
REVIT
1002
{
1070
     1
1000
2298
1002
}
1002
{
1070
     5
1000
590
1002
}
  0
ENDBLK
  5
EA
330
E7
100
AcDbEntity
  8
0
100
AcDbBlockEnd
  0
BLOCK
  5
F9
330
EE
100
AcDbEntity
  8
0
100
AcDbBlockBegin
  2
Elévation - Flèche pleine-184796-Niveau 0
 70
     0
 10
0.0
 20
0.0
 30
0.0
  3
Elévation - Flèche pleine-184796-Niveau 0
  1

  0
ARC
  5
EF
330
EE
100
AcDbEntity
  8
G-ANNO-SYMB
100
AcDbCircle
 10
-0.0000000000000243
 20
-0.0000000000000422
 30
0.0
 40
5.999554012253728
100
AcDbArc
 50
44.99999999999989
 51
134.9999999999999
1001
REVIT
1002
{
1070
     1
1000
2299
1002
}
1002
{
1070
     5
1000
590
1002
}
  0
LINE
  5
F0
330
EE
100
AcDbEntity
  8
G-ANNO-SYMB
100
AcDbLine
 10
-0.0000000000000111
 20
8.484650652319096
 30
0.0
 11
-4.242325326159586
 21
4.242325326159543
 31
0.0
1001
REVIT
1002
{
1070
     1
1000
2299
1002
}
1002
{
1070
     5
1000
590
1002
}
  0
LINE
  5
F1
330
EE
100
AcDbEntity
  8
G-ANNO-SYMB
100
AcDbLine
 10
4.242325326159551
 20
4.242325326159522
 30
0.0
 11
-0.00000000000001
 21
8.484650652319094
 31
0.0
1001
REVIT
1002
{
1070
     1
1000
2299
1002
}
1002
{
1070
     5
1000
590
1002
}
  0
HATCH
  5
F5
330
EE
100
AcDbEntity
  8
G-ANNO-SYMB
100
AcDbHatch
 10
0.0
 20
0.0
 30
0.0
210
0.0
220
0.0
230
1.0
  2
SOLID
 70
     1
 71
     0
 91
        1
 92
        1
 93
        3
 72
     1
 10
-4.242325326159586
 20
4.242325326159543
 11
-0.0000000000000115
 21
8.484650652319096
 72
     1
 10
-0.0000000000000111
 20
8.484650652319094
 11
4.242325326159551
 21
4.242325326159522
 72
     2
 10
-0.0000000000000243
 20
-0.0000000000000407
 40
5.999554012253727
 50
44.99999999999987
 51
134.9999999999999
 73
     1
 97
        0
 75
     0
 76
     1
 98
        1
 10
0.0
 20
0.0
450
        0
451
        0
460
0.0
461
0.0
452
        0
462
0.0
453
        0
470

1001
REVIT
1002
{
1070
     1
1000
2299
1002
}
1002
{
1070
     5
1000
590
1002
}
  0
ARC
  5
F6
330
EE
100
AcDbEntity
  8
G-ANNO-SYMB
100
AcDbCircle
 10
-0.0000000000000243
 20
-0.0000000000000407
 30
0.0
 40
5.999554012253727
100
AcDbArc
 50
44.99999999999987
 51
134.9999999999999
1001
REVIT
1002
{
1070
     1
1000
2299
1002
}
1002
{
1070
     5
1000
590
1002
}
  0
LINE
  5
F7
330
EE
100
AcDbEntity
  8
G-ANNO-SYMB
100
AcDbLine
 10
4.242325326159551
 20
4.242325326159522
 30
0.0
 11
-0.0000000000000111
 21
8.484650652319094
 31
0.0
1001
REVIT
1002
{
1070
     1
1000
2299
1002
}
1002
{
1070
     5
1000
590
1002
}
  0
LINE
  5
F8
330
EE
100
AcDbEntity
  8
G-ANNO-SYMB
100
AcDbLine
 10
-0.0000000000000116
 20
8.484650652319096
 30
0.0
 11
-4.242325326159586
 21
4.242325326159543
 31
0.0
1001
REVIT
1002
{
1070
     1
1000
2299
1002
}
1002
{
1070
     5
1000
590
1002
}
  0
ENDBLK
  5
FA
330
EE
100
AcDbEntity
  8
0
100
AcDbBlockEnd
  0
BLOCK
  5
113
330
109
100
AcDbEntity
  8
0
100
AcDbBlockBegin
  2
Coupe - Marque de la ligne de coupe - Verticale pleine-3537-Niveau 0
 70
     0
 10
0.0
 20
0.0
 30
0.0
  3
Coupe - Marque de la ligne de coupe - Verticale pleine-3537-Niveau 0
  1

  0
HATCH
  5
10E
330
109
100
AcDbEntity
  8
G-ANNO-SYMB
100
AcDbHatch
 10
0.0
 20
0.0
 30
0.0
210
0.0
220
0.0
230
1.0
  2
SOLID
 70
     1
 71
     0
 91
        1
 92
        1
 93
        4
 72
     1
 10
0.0
 20
8.999999999999996
 11
0.0
 21
0.0
 72
     1
 10
0.0
 20
0.0
 11
-1.999999999999999
 21
0.0
 72
     1
 10
-2.0
 20
0.0
 11
-2.0
 21
8.999999999999996
 72
     1
 10
-2.0
 20
8.999999999999996
 11
0.0
 21
8.999999999999996
 97
        0
 75
     0
 76
     1
 98
        1
 10
0.0
 20
0.0
450
        0
451
        0
460
0.0
461
0.0
452
        0
462
0.0
453
        0
470

1001
REVIT
1002
{
1070
     1
1000
256439
1002
}
1002
{
1070
     5
1000
583
1002
}
  0
LINE
  5
10F
330
109
100
AcDbEntity
  8
G-ANNO-SYMB
100
AcDbLine
 10
0.0
 20
8.999999999999996
 30
0.0
 11
-2.0
 21
8.999999999999996
 31
0.0
1001
REVIT
1002
{
1070
     1
1000
256439
1002
}
1002
{
1070
     5
1000
583
1002
}
  0
LINE
  5
110
330
109
100
AcDbEntity
  8
G-ANNO-SYMB
100
AcDbLine
 10
-2.0
 20
8.999999999999996
 30
0.0
 11
-2.0
 21
0.0
 31
0.0
1001
REVIT
1002
{
1070
     1
1000
256439
1002
}
1002
{
1070
     5
1000
583
1002
}
  0
LINE
  5
111
330
109
100
AcDbEntity
  8
G-ANNO-SYMB
100
AcDbLine
 10
-1.999999999999999
 20
0.0
 30
0.0
 11
0.0
 21
0.0
 31
0.0
1001
REVIT
1002
{
1070
     1
1000
256439
1002
}
1002
{
1070
     5
1000
583
1002
}
  0
LINE
  5
112
330
109
100
AcDbEntity
  8
G-ANNO-SYMB
100
AcDbLine
 10
0.0
 20
0.0
 30
0.0
 11
0.0
 21
8.999999999999996
 31
0.0
1001
REVIT
1002
{
1070
     1
1000
256439
1002
}
1002
{
1070
     5
1000
583
1002
}
  0
ENDBLK
  5
114
330
109
100
AcDbEntity
  8
0
100
AcDbBlockEnd
  0
BLOCK
  5
13C
330
119
100
AcDbEntity
  8
0
100
AcDbBlockBegin
  2
Coupe - Extrémité de la ligne de coupe - Pleine-2974-Niveau 0
 70
     0
 10
0.0
 20
0.0
 30
0.0
  3
Coupe - Extrémité de la ligne de coupe - Pleine-2974-Niveau 0
  1

  0
LINE
  5
11A
330
119
100
AcDbEntity
  8
G-ANNO-SYMB
100
AcDbLine
 10
-6.0
 20
8.485281374238622
 30
0.0
 11
-14.48528137423851
 21
-0.0000000000000021
 31
0.0
1001
REVIT
1002
{
1070
     1
1000
256439
1002
}
1002
{
1070
     5
1000
583
1002
}
  0
LINE
  5
11B
330
119
100
AcDbEntity
  8
G-ANNO-SYMB
100
AcDbLine
 10
-6.0
 20
8.485281374238622
 30
0.0
 11
2.48528137423853
 21
-0.0000000000000074
 31
0.0
1001
REVIT
1002
{
1070
     1
1000
256439
1002
}
1002
{
1070
     5
1000
583
1002
}
  0
LINE
  5
11C
330
119
100
AcDbEntity
  8
G-ANNO-SYMB
100
AcDbLine
 10
-0.0000000000000011
 20
-0.0000000000000088
 30
0.0
 11
2.48528137423853
 21
-0.0000000000000088
 31
0.0
1001
REVIT
1002
{
1070
     1
1000
256439
1002
}
1002
{
1070
     5
1000
583
1002
}
  0
LINE
  5
11D
330
119
100
AcDbEntity
  8
G-ANNO-SYMB
100
AcDbLine
 10
-12.00000000000001
 20
-0.0000000000000004
 30
0.0
 11
-14.48528137423851
 21
-0.0000000000000004
 31
0.0
1001
REVIT
1002
{
1070
     1
1000
256439
1002
}
1002
{
1070
     5
1000
583
1002
}
  0
ARC
  5
11E
330
119
100
AcDbEntity
  8
G-ANNO-SYMB
100
AcDbCircle
 10
-6.000000000000005
 20
0.0000000000000195
 30
0.0
 40
6.000000000000007
100
AcDbArc
 50
179.9999999999998
 51
359.9999999999992
1001
REVIT
1002
{
1070
     1
1000
256439
1002
}
1002
{
1070
     5
1000
583
1002
}
  0
ARC
  5
11F
330
119
100
AcDbEntity
  8
G-ANNO-SYMB
100
AcDbCircle
 10
-6.000000000000005
 20
0.0000000000000017
 30
0.0
 40
6.000000000000009
100
AcDbArc
 50
359.9999999999996
 51
179.9999999999998
1001
REVIT
1002
{
1070
     1
1000
256439
1002
}
1002
{
1070
     5
1000
583
1002
}
  0
HATCH
  5
123
330
119
100
AcDbEntity
  8
G-ANNO-SYMB
100
AcDbHatch
 10
0.0
 20
0.0
 30
0.0
210
0.0
220
0.0
230
1.0
  2
SOLID
 70
     1
 71
     0
 91
        1
 92
        1
 93
        3
 72
     1
 10
-5.99999999999993
 20
8.485281374238532
 11
-5.999999999999954
 21
6.000000000000005
 72
     2
 10
-5.999999999999999
 20
-0.0000000000000032
 40
6.000000000000003
 50
89.99999999999962
 51
134.9999999999992
 73
     1
 72
     1
 10
-10.24264068711923
 20
4.242640687119355
 11
-5.999999999999928
 21
8.485281374238534
 97
        0
 75
     0
 76
     1
 98
        1
 10
0.0
 20
0.0
450
        0
451
        0
460
0.0
461
0.0
452
        0
462
0.0
453
        0
470

1001
REVIT
1002
{
1070
     1
1000
256439
1002
}
1002
{
1070
     5
1000
583
1002
}
  0
LINE
  5
124
330
119
100
AcDbEntity
  8
G-ANNO-SYMB
100
AcDbLine
 10
-5.999999999999928
 20
8.485281374238534
 30
0.0
 11
-10.24264068711923
 21
4.242640687119355
 31
0.0
1001
REVIT
1002
{
1070
     1
1000
256439
1002
}
1002
{
1070
     5
1000
583
1002
}
  0
ARC
  5
125
330
119
100
AcDbEntity
  8
G-ANNO-SYMB
100
AcDbCircle
 10
-5.999999999999999
 20
-0.0000000000000032
 30
0.0
 40
6.000000000000003
100
AcDbArc
 50
89.99999999999962
 51
134.9999999999992
1001
REVIT
1002
{
1070
     1
1000
256439
1002
}
1002
{
1070
     5
1000
583
1002
}
  0
LINE
  5
126
330
119
100
AcDbEntity
  8
G-ANNO-SYMB
100
AcDbLine
 10
-5.999999999999954
 20
6.000000000000005
 30
0.0
 11
-5.99999999999993
 21
8.485281374238532
 31
0.0
1001
REVIT
1002
{
1070
     1
1000
256439
1002
}
1002
{
1070
     5
1000
583
1002
}
  0
HATCH
  5
12A
330
119
100
AcDbEntity
  8
G-ANNO-SYMB
100
AcDbHatch
 10
0.0
 20
0.0
 30
0.0
210
0.0
220
0.0
230
1.0
  2
SOLID
 70
     1
 71
     0
 91
        1
 92
        1
 93
        3
 72
     1
 10
-14.48528137423854
 20
0.0000000000001443
 11
-10.24264068711925
 21
4.242640687119337
 72
     2
 10
-6.00000000000001
 20
0.0000000000000008
 40
5.999999999999996
 50
134.9999999999997
 51
179.9999999999994
 73
     1
 72
     1
 10
-12.00000000000001
 20
0.0000000000001021
 11
-14.48528137423854
 21
0.0000000000001443
 97
        0
 75
     0
 76
     1
 98
        1
 10
0.0
 20
0.0
450
        0
451
        0
460
0.0
461
0.0
452
        0
462
0.0
453
        0
470

1001
REVIT
1002
{
1070
     1
1000
256439
1002
}
1002
{
1070
     5
1000
583
1002
}
  0
LINE
  5
12B
330
119
100
AcDbEntity
  8
G-ANNO-SYMB
100
AcDbLine
 10
-14.48528137423854
 20
0.0000000000001443
 30
0.0
 11
-12.00000000000001
 21
0.0000000000001021
 31
0.0
1001
REVIT
1002
{
1070
     1
1000
256439
1002
}
1002
{
1070
     5
1000
583
1002
}
  0
ARC
  5
12C
330
119
100
AcDbEntity
  8
G-ANNO-SYMB
100
AcDbCircle
 10
-6.00000000000001
 20
0.0000000000000008
 30
0.0
 40
5.999999999999996
100
AcDbArc
 50
134.9999999999997
 51
179.9999999999994
1001
REVIT
1002
{
1070
     1
1000
256439
1002
}
1002
{
1070
     5
1000
583
1002
}
  0
LINE
  5
12D
330
119
100
AcDbEntity
  8
G-ANNO-SYMB
100
AcDbLine
 10
-10.24264068711925
 20
4.242640687119337
 30
0.0
 11
-14.48528137423854
 21
0.0000000000001443
 31
0.0
1001
REVIT
1002
{
1070
     1
1000
256439
1002
}
1002
{
1070
     5
1000
583
1002
}
  0
HATCH
  5
131
330
119
100
AcDbEntity
  8
G-ANNO-SYMB
100
AcDbHatch
 10
0.0
 20
0.0
 30
0.0
210
0.0
220
0.0
230
1.0
  2
SOLID
 70
     1
 71
     0
 91
        1
 92
        1
 93
        3
 72
     1
 10
-5.999999999999934
 20
8.48528137423853
 11
-1.757359312880707
 21
4.242640687119282
 72
     2
 10
-6.000000000000015
 20
-0.0000000000000063
 40
6.000000000000016
 50
45.00000000000023
 51
89.99999999999985
 73
     1
 72
     1
 10
-5.999999999999955
 20
6.000000000000005
 11
-5.999999999999936
 21
8.48528137423853
 97
        0
 75
     0
 76
     1
 98
        1
 10
0.0
 20
0.0
450
        0
451
        0
460
0.0
461
0.0
452
        0
462
0.0
453
        0
470

1001
REVIT
1002
{
1070
     1
1000
256439
1002
}
1002
{
1070
     5
1000
583
1002
}
  0
LINE
  5
132
330
119
100
AcDbEntity
  8
G-ANNO-SYMB
100
AcDbLine
 10
-5.999999999999936
 20
8.48528137423853
 30
0.0
 11
-5.999999999999955
 21
6.000000000000005
 31
0.0
1001
REVIT
1002
{
1070
     1
1000
256439
1002
}
1002
{
1070
     5
1000
583
1002
}
  0
ARC
  5
133
330
119
100
AcDbEntity
  8
G-ANNO-SYMB
100
AcDbCircle
 10
-6.000000000000015
 20
-0.0000000000000063
 30
0.0
 40
6.000000000000016
100
AcDbArc
 50
45.00000000000023
 51
89.99999999999985
1001
REVIT
1002
{
1070
     1
1000
256439
1002
}
1002
{
1070
     5
1000
583
1002
}
  0
LINE
  5
134
330
119
100
AcDbEntity
  8
G-ANNO-SYMB
100
AcDbLine
 10
-1.757359312880707
 20
4.242640687119282
 30
0.0
 11
-5.999999999999934
 21
8.48528137423853
 31
0.0
1001
REVIT
1002
{
1070
     1
1000
256439
1002
}
1002
{
1070
     5
1000
583
1002
}
  0
HATCH
  5
138
330
119
100
AcDbEntity
  8
G-ANNO-SYMB
100
AcDbHatch
 10
0.0
 20
0.0
 30
0.0
210
0.0
220
0.0
230
1.0
  2
SOLID
 70
     1
 71
     0
 91
        1
 92
        1
 93
        3
 72
     1
 10
2.485281374238522
 20
0.0
 11
0.0
 21
0.0
 72
     2
 10
-6.000000000000002
 20
0.0000000000000016
 40
6.000000000000006
 50
359.9999999999996
 51
404.9999999999997
 73
     1
 72
     1
 10
-1.75735931288069
 20
4.242640687119263
 11
2.485281374238522
 21
0.0
 97
        0
 75
     0
 76
     1
 98
        1
 10
0.0
 20
0.0
450
        0
451
        0
460
0.0
461
0.0
452
        0
462
0.0
453
        0
470

1001
REVIT
1002
{
1070
     1
1000
256439
1002
}
1002
{
1070
     5
1000
583
1002
}
  0
LINE
  5
139
330
119
100
AcDbEntity
  8
G-ANNO-SYMB
100
AcDbLine
 10
2.485281374238522
 20
0.0
 30
0.0
 11
-1.75735931288069
 21
4.242640687119263
 31
0.0
1001
REVIT
1002
{
1070
     1
1000
256439
1002
}
1002
{
1070
     5
1000
583
1002
}
  0
ARC
  5
13A
330
119
100
AcDbEntity
  8
G-ANNO-SYMB
100
AcDbCircle
 10
-6.000000000000002
 20
0.0000000000000016
 30
0.0
 40
6.000000000000006
100
AcDbArc
 50
359.9999999999996
 51
44.9999999999997
1001
REVIT
1002
{
1070
     1
1000
256439
1002
}
1002
{
1070
     5
1000
583
1002
}
  0
LINE
  5
13B
330
119
100
AcDbEntity
  8
G-ANNO-SYMB
100
AcDbLine
 10
0.0
 20
0.0
 30
0.0
 11
2.485281374238522
 21
0.0
 31
0.0
1001
REVIT
1002
{
1070
     1
1000
256439
1002
}
1002
{
1070
     5
1000
583
1002
}
  0
ENDBLK
  5
13D
330
119
100
AcDbEntity
  8
0
100
AcDbBlockEnd
  0
ENDSEC
  0
SECTION
  2
ENTITIES
  0
LINE
  5
88
330
70
100
AcDbEntity
  8
A-WALL
100
AcDbLine
 10
-7489.553810091388
 20
8825.473373766326
 30
0.0
 11
-7489.553810091386
 21
8925.473373766322
 31
0.0
1001
REVIT
1002
{
1070
     1
1000
254994
1002
}
1002
{
1070
     5
1000
29331
1002
}
1002
{
1070
     2
1000
-2000011
1002
}
  0
LINE
  5
8A
330
70
100
AcDbEntity
  8
A-WALL
100
AcDbLine
 10
-5439.553810091391
 20
8725.473373766316
 30
0.0
 11
-3589.553810091397
 21
8725.473373766311
 31
0.0
1001
REVIT
1002
{
1070
     1
1000
254994
1002
}
1002
{
1070
     5
1000
29331
1002
}
1002
{
1070
     2
1000
-2000011
1002
}
  0
LINE
  5
8B
330
70
100
AcDbEntity
  8
A-WALL
100
AcDbLine
 10
-3389.553810091398
 20
8725.473373766309
 30
0.0
 11
1410.446189908602
 21
8725.473373766293
 31
0.0
1001
REVIT
1002
{
1070
     1
1000
254994
1002
}
1002
{
1070
     5
1000
29331
1002
}
1002
{
1070
     2
1000
-2000011
1002
}
  0
LINE
  5
8D
330
70
100
AcDbEntity
  8
A-WALL
100
AcDbLine
 10
1610.446189908605
 20
8925.473373766292
 30
0.0
 11
-5489.553810091388
 21
8925.473373766315
 31
0.0
1001
REVIT
1002
{
1070
     1
1000
254994
1002
}
1002
{
1070
     5
1000
29331
1002
}
1002
{
1070
     2
1000
-2000011
1002
}
  0
LINE
  5
8E
330
70
100
AcDbEntity
  8
A-WALL
100
AcDbLine
 10
-5489.553810091388
 20
8925.473373766315
 30
0.0
 11
-5489.55381009139
 21
8825.473373766319
 31
0.0
1001
REVIT
1002
{
1070
     1
1000
254994
1002
}
1002
{
1070
     5
1000
29331
1002
}
1002
{
1070
     2
1000
-2000011
1002
}
  0
LINE
  5
8F
330
70
100
AcDbEntity
  8
A-WALL
100
AcDbLine
 10
1410.446189908603
 20
8725.473373766293
 30
0.0
 11
1410.446189908603
 21
6875.473373766284
 31
0.0
1001
REVIT
1002
{
1070
     1
1000
255020
1002
}
1002
{
1070
     5
1000
29331
1002
}
1002
{
1070
     2
1000
-2000011
1002
}
  0
LINE
  5
90
330
70
100
AcDbEntity
  8
A-WALL
100
AcDbLine
 10
1510.446189908606
 20
6825.473373766285
 30
0.0
 11
1610.446189908603
 21
6825.473373766286
 31
0.0
1001
REVIT
1002
{
1070
     1
1000
255020
1002
}
1002
{
1070
     5
1000
29331
1002
}
1002
{
1070
     2
1000
-2000011
1002
}
  0
LINE
  5
91
330
70
100
AcDbEntity
  8
A-WALL
100
AcDbLine
 10
1610.446189908603
 20
6825.473373766286
 30
0.0
 11
1610.446189908605
 21
8925.473373766292
 31
0.0
1001
REVIT
1002
{
1070
     1
1000
255020
1002
}
1002
{
1070
     5
1000
29331
1002
}
1002
{
1070
     2
1000
-2000011
1002
}
  0
LINE
  5
92
330
70
100
AcDbEntity
  8
A-WALL
100
AcDbLine
 10
1410.446189908603
 20
4775.473373766287
 30
0.0
 11
1410.446189908603
 21
2925.473373766258
 31
0.0
1001
REVIT
1002
{
1070
     1
1000
255020
1002
}
1002
{
1070
     5
1000
29331
1002
}
1002
{
1070
     2
1000
-2000011
1002
}
  0
LINE
  5
93
330
70
100
AcDbEntity
  8
A-WALL
100
AcDbLine
 10
1410.446189908603
 20
2725.473373766258
 30
0.0
 11
1410.446189908603
 21
1875.473373766278
 31
0.0
1001
REVIT
1002
{
1070
     1
1000
255020
1002
}
1002
{
1070
     5
1000
29331
1002
}
1002
{
1070
     2
1000
-2000011
1002
}
  0
LINE
  5
94
330
70
100
AcDbEntity
  8
A-WALL
100
AcDbLine
 10
1510.446189908606
 20
1825.473373766278
 30
0.0
 11
1610.446189908603
 21
1825.473373766278
 31
0.0
1001
REVIT
1002
{
1070
     1
1000
255020
1002
}
1002
{
1070
     5
1000
29331
1002
}
1002
{
1070
     2
1000
-2000011
1002
}
  0
LINE
  5
95
330
70
100
AcDbEntity
  8
A-WALL
100
AcDbLine
 10
1610.446189908603
 20
1825.473373766278
 30
0.0
 11
1610.446189908603
 21
4825.473373766287
 31
0.0
1001
REVIT
1002
{
1070
     1
1000
255020
1002
}
1002
{
1070
     5
1000
29331
1002
}
1002
{
1070
     2
1000
-2000011
1002
}
  0
LINE
  5
96
330
70
100
AcDbEntity
  8
A-WALL
100
AcDbLine
 10
1610.446189908603
 20
4825.473373766287
 30
0.0
 11
1510.446189908606
 21
4825.473373766286
 31
0.0
1001
REVIT
1002
{
1070
     1
1000
255020
1002
}
1002
{
1070
     5
1000
29331
1002
}
1002
{
1070
     2
1000
-2000011
1002
}
  0
LINE
  5
97
330
70
100
AcDbEntity
  8
A-WALL
100
AcDbLine
 10
1410.446189908603
 20
-224.5266262337199
 30
0.0
 11
1410.446189908603
 21
-1074.526626233708
 31
0.0
1001
REVIT
1002
{
1070
     1
1000
255020
1002
}
1002
{
1070
     5
1000
29331
1002
}
1002
{
1070
     2
1000
-2000011
1002
}
  0
LINE
  5
99
330
70
100
AcDbEntity
  8
A-WALL
100
AcDbLine
 10
1610.446189908603
 20
-1274.526626233706
 30
0.0
 11
1610.446189908603
 21
-174.5266262337193
 31
0.0
1001
REVIT
1002
{
1070
     1
1000
255020
1002
}
1002
{
1070
     5
1000
29331
1002
}
1002
{
1070
     2
1000
-2000011
1002
}
  0
LINE
  5
9A
330
70
100
AcDbEntity
  8
A-WALL
100
AcDbLine
 10
1610.446189908603
 20
-174.5266262337193
 30
0.0
 11
1510.446189908606
 21
-174.5266262337193
 31
0.0
1001
REVIT
1002
{
1070
     1
1000
255020
1002
}
1002
{
1070
     5
1000
29331
1002
}
1002
{
1070
     2
1000
-2000011
1002
}
  0
LINE
  5
9B
330
70
100
AcDbEntity
  8
A-WALL
100
AcDbLine
 10
1410.446189908604
 20
-1074.526626233707
 30
0.0
 11
-5339.553810091395
 21
-1074.526626233707
 31
0.0
1001
REVIT
1002
{
1070
     1
1000
255042
1002
}
1002
{
1070
     5
1000
29331
1002
}
1002
{
1070
     2
1000
-2000011
1002
}
  0
LINE
  5
9C
330
70
100
AcDbEntity
  8
A-WALL
100
AcDbLine
 10
-5389.553810091395
 20
-1174.52662623371
 30
0.0
 11
-5389.553810091395
 21
-1274.526626233707
 31
0.0
1001
REVIT
1002
{
1070
     1
1000
255042
1002
}
1002
{
1070
     5
1000
29331
1002
}
1002
{
1070
     2
1000
-2000011
1002
}
  0
LINE
  5
9D
330
70
100
AcDbEntity
  8
A-WALL
100
AcDbLine
 10
-5389.553810091395
 20
-1274.526626233707
 30
0.0
 11
1610.446189908603
 21
-1274.526626233706
 31
0.0
1001
REVIT
1002
{
1070
     1
1000
255042
1002
}
1002
{
1070
     5
1000
29331
1002
}
1002
{
1070
     2
1000
-2000011
1002
}
  0
LINE
  5
9E
330
70
100
AcDbEntity
  8
A-WALL
100
AcDbLine
 10
-7439.553810091393
 20
-1074.526626233707
 30
0.0
 11
-9389.553810091397
 21
-1074.526626233707
 31
0.0
1001
REVIT
1002
{
1070
     1
1000
255042
1002
}
1002
{
1070
     5
1000
29331
1002
}
1002
{
1070
     2
1000
-2000011
1002
}
  0
LINE
  5
A0
330
70
100
AcDbEntity
  8
A-WALL
100
AcDbLine
 10
-9589.553810091398
 20
-1274.526626233707
 30
0.0
 11
-7389.553810091392
 21
-1274.526626233707
 31
0.0
1001
REVIT
1002
{
1070
     1
1000
255042
1002
}
1002
{
1070
     5
1000
29331
1002
}
1002
{
1070
     2
1000
-2000011
1002
}
  0
LINE
  5
A1
330
70
100
AcDbEntity
  8
A-WALL
100
AcDbLine
 10
-7389.553810091392
 20
-1274.526626233707
 30
0.0
 11
-7389.553810091392
 21
-1174.52662623371
 31
0.0
1001
REVIT
1002
{
1070
     1
1000
255042
1002
}
1002
{
1070
     5
1000
29331
1002
}
1002
{
1070
     2
1000
-2000011
1002
}
  0
LINE
  5
A2
330
70
100
AcDbEntity
  8
A-WALL
100
AcDbLine
 10
-9389.553810091397
 20
-1074.526626233707
 30
0.0
 11
-9389.553810091392
 21
2925.473373766293
 31
0.0
1001
REVIT
1002
{
1070
     1
1000
255066
1002
}
1002
{
1070
     5
1000
29331
1002
}
1002
{
1070
     2
1000
-2000011
1002
}
  0
LINE
  5
A3
330
70
100
AcDbEntity
  8
A-WALL
100
AcDbLine
 10
-9589.553810091393
 20
2725.473373766293
 30
0.0
 11
-9589.553810091398
 21
-1274.526626233707
 31
0.0
1001
REVIT
1002
{
1070
     1
1000
255066
1002
}
1002
{
1070
     5
1000
29331
1002
}
1002
{
1070
     2
1000
-2000011
1002
}
  0
LINE
  5
A4
330
70
100
AcDbEntity
  8
A-WALL
100
AcDbLine
 10
-9389.553810091392
 20
2925.473373766293
 30
0.0
 11
-15389.55381009139
 21
2925.473373766312
 31
0.0
1001
REVIT
1002
{
1070
     1
1000
255126
1002
}
1002
{
1070
     5
1000
29331
1002
}
1002
{
1070
     2
1000
-2000011
1002
}
  0
LINE
  5
A6
330
70
100
AcDbEntity
  8
A-WALL
100
AcDbLine
 10
-15589.55381009139
 20
2725.473373766313
 30
0.0
 11
-9589.553810091393
 21
2725.473373766293
 31
0.0
1001
REVIT
1002
{
1070
     1
1000
255126
1002
}
1002
{
1070
     5
1000
29331
1002
}
1002
{
1070
     2
1000
-2000011
1002
}
  0
LINE
  5
A8
330
70
100
AcDbEntity
  8
A-WALL
100
AcDbLine
 10
-15389.55381009139
 20
2925.473373766312
 30
0.0
 11
-15389.55381009139
 21
4775.473373766327
 31
0.0
1001
REVIT
1002
{
1070
     1
1000
255172
1002
}
1002
{
1070
     5
1000
29331
1002
}
1002
{
1070
     2
1000
-2000011
1002
}
  0
LINE
  5
A9
330
70
100
AcDbEntity
  8
A-WALL
100
AcDbLine
 10
-15489.5538100914
 20
4825.473373766327
 30
0.0
 11
-15589.55381009139
 21
4825.473373766327
 31
0.0
1001
REVIT
1002
{
1070
     1
1000
255172
1002
}
1002
{
1070
     5
1000
29331
1002
}
1002
{
1070
     2
1000
-2000011
1002
}
  0
LINE
  5
AA
330
70
100
AcDbEntity
  8
A-WALL
100
AcDbLine
 10
-15589.55381009139
 20
4825.473373766327
 30
0.0
 11
-15589.55381009139
 21
2725.473373766313
 31
0.0
1001
REVIT
1002
{
1070
     1
1000
255172
1002
}
1002
{
1070
     5
1000
29331
1002
}
1002
{
1070
     2
1000
-2000011
1002
}
  0
LINE
  5
AB
330
70
100
AcDbEntity
  8
A-WALL
100
AcDbLine
 10
-15389.55381009139
 20
6875.473373766327
 30
0.0
 11
-15389.55381009138
 21
8725.473373766348
 31
0.0
1001
REVIT
1002
{
1070
     1
1000
255172
1002
}
1002
{
1070
     5
1000
29331
1002
}
1002
{
1070
     2
1000
-2000011
1002
}
  0
LINE
  5
AD
330
70
100
AcDbEntity
  8
A-WALL
100
AcDbLine
 10
-15589.55381009138
 20
8925.473373766349
 30
0.0
 11
-15589.55381009139
 21
6825.473373766326
 31
0.0
1001
REVIT
1002
{
1070
     1
1000
255172
1002
}
1002
{
1070
     5
1000
29331
1002
}
1002
{
1070
     2
1000
-2000011
1002
}
  0
LINE
  5
AE
330
70
100
AcDbEntity
  8
A-WALL
100
AcDbLine
 10
-15589.55381009139
 20
6825.473373766326
 30
0.0
 11
-15489.55381009139
 21
6825.473373766325
 31
0.0
1001
REVIT
1002
{
1070
     1
1000
255172
1002
}
1002
{
1070
     5
1000
29331
1002
}
1002
{
1070
     2
1000
-2000011
1002
}
  0
LINE
  5
AF
330
70
100
AcDbEntity
  8
A-WALL
100
AcDbLine
 10
-3589.553810091398
 20
8725.473373766311
 30
0.0
 11
-3589.553810091408
 21
2725.473373766273
 31
0.0
1001
REVIT
1002
{
1070
     1
1000
255343
1002
}
1002
{
1070
     5
1000
29331
1002
}
1002
{
1070
     2
1000
-2000011
1002
}
  0
LINE
  5
B1
330
70
100
AcDbEntity
  8
A-WALL
100
AcDbLine
 10
-3389.553810091408
 20
2925.473373766273
 30
0.0
 11
-3389.553810091398
 21
8725.473373766311
 31
0.0
1001
REVIT
1002
{
1070
     1
1000
255343
1002
}
1002
{
1070
     5
1000
29331
1002
}
1002
{
1070
     2
1000
-2000011
1002
}
  0
LINE
  5
B2
330
70
100
AcDbEntity
  8
A-WALL
100
AcDbLine
 10
-3589.553810091408
 20
2725.473373766273
 30
0.0
 11
1410.446189908604
 21
2725.473373766258
 31
0.0
1001
REVIT
1002
{
1070
     1
1000
255388
1002
}
1002
{
1070
     5
1000
29331
1002
}
1002
{
1070
     2
1000
-2000011
1002
}
  0
LINE
  5
B3
330
70
100
AcDbEntity
  8
A-WALL
100
AcDbLine
 10
1410.446189908603
 20
2925.473373766258
 30
0.0
 11
-3389.553810091407
 21
2925.473373766273
 31
0.0
1001
REVIT
1002
{
1070
     1
1000
255388
1002
}
1002
{
1070
     5
1000
29331
1002
}
1002
{
1070
     2
1000
-2000011
1002
}
  0
INSERT
  5
DF
330
70
100
AcDbEntity
  8
A-GLAZ
370
     9
100
AcDbBlockReference
  2
1 Vantail - Droit - 0_60 m x 0_95 m - Appui en aluminium _2_00m large_-255854-Niveau 0
 10
-15489.55381009139
 20
5825.473373766335
 30
0.0
 50
89.99999999999992
1001
REVIT
1002
{
1070
     1
1000
255403
1002
}
1002
{
1070
     5
1000
255852
1002
}
1002
{
1070
     2
1000
-2000014
1002
}
1002
{
1070
     3
1000
135838
1002
}
  0
INSERT
  5
E0
330
70
100
AcDbEntity
  8
A-GLAZ
370
     9
100
AcDbBlockReference
  2
1 Vantail - Droit - 0_60 m x 0_95 m - Appui en aluminium _2_00m large_-255854-Niveau 0
 10
-6389.553810091403
 20
-1174.526626233707
 30
0.0
 50
180.0
1001
REVIT
1002
{
1070
     1
1000
255475
1002
}
1002
{
1070
     5
1000
255852
1002
}
1002
{
1070
     2
1000
-2000014
1002
}
1002
{
1070
     3
1000
135838
1002
}
  0
INSERT
  5
E1
330
70
100
AcDbEntity
  8
A-GLAZ
370
     9
100
AcDbBlockReference
  2
1 Vantail - Droit - 0_60 m x 0_95 m - Appui en aluminium _2_00m large_-255854-Niveau 0
 10
1510.446189908603
 20
825.4733737662709
 30
0.0
 50
270.0
1001
REVIT
1002
{
1070
     1
1000
255583
1002
}
1002
{
1070
     5
1000
255852
1002
}
1002
{
1070
     2
1000
-2000014
1002
}
1002
{
1070
     3
1000
135838
1002
}
  0
INSERT
  5
E2
330
70
100
AcDbEntity
  8
A-GLAZ
370
     9
100
AcDbBlockReference
  2
1 Vantail - Droit - 0_60 m x 0_95 m - Appui en aluminium _2_00m large_-255854-Niveau 0
 10
1510.446189908603
 20
5825.473373766277
 30
0.0
 50
270.0
1001
REVIT
1002
{
1070
     1
1000
255637
1002
}
1002
{
1070
     5
1000
255852
1002
}
1002
{
1070
     2
1000
-2000014
1002
}
1002
{
1070
     3
1000
135838
1002
}
  0
INSERT
  5
E3
330
70
100
AcDbEntity
  8
A-GLAZ
370
     9
100
AcDbBlockReference
  2
1 Vantail - Droit - 0_60 m x 0_95 m - Appui en aluminium _2_00m large_-255854-Niveau 0
 10
-6489.553810091379
 20
8825.473373766319
 30
0.0
1001
REVIT
1002
{
1070
     1
1000
255663
1002
}
1002
{
1070
     5
1000
255852
1002
}
1002
{
1070
     2
1000
-2000014
1002
}
1002
{
1070
     3
1000
135838
1002
}
  0
LINE
  5
E4
330
70
100
AcDbEntity
  8
A-WALL
100
AcDbLine
 10
-7489.553810091386
 20
8925.473373766322
 30
0.0
 11
-15589.55381009138
 21
8925.473373766349
 31
0.0
1001
REVIT
1002
{
1070
     1
1000
257296
1002
}
1002
{
1070
     5
1000
29331
1002
}
1002
{
1070
     2
1000
-2000011
1002
}
  0
LINE
  5
E5
330
70
100
AcDbEntity
  8
A-WALL
100
AcDbLine
 10
-15389.55381009138
 20
8725.473373766348
 30
0.0
 11
-7539.553810091388
 21
8725.473373766323
 31
0.0
1001
REVIT
1002
{
1070
     1
1000
257296
1002
}
1002
{
1070
     5
1000
29331
1002
}
1002
{
1070
     2
1000
-2000011
1002
}
  0
INSERT
  5
EB
330
70
100
AcDbEntity
  8
G-ANNO-SYMB
100
AcDbBlockReference
  2
Elévation - Flèche pleine-185067-Niveau 0
 10
8.036939388909718
 20
-20376.93704134069
 30
0.0
 41
99.99999999999992
 42
99.99999999999992
 43
99.99999999999992
 50
269.9999999999998
1001
REVIT
1002
{
1070
     1
1000
2298
1002
}
1002
{
1070
     5
1000
590
1002
}
1002
{
1070
     2
1000
-2000535
1002
}
  0
MTEXT
  5
ED
330
70
100
AcDbEntity
  8
G-ANNO-SYMB
100
AcDbMText
 10
-80.19763826086876
 20
-20288.20606029445
 30
0.0
 40
249.9999999999997
 41
144.3037499999998
 46
0.0
 71
     1
 72
     1
  1
-
  7
Arial
 73
     2
 44
1.0
1001
REVIT
1002
{
1070
     1
1000
2298
1002
}
1002
{
1070
     5
1000
590
1002
}
1002
{
1070
     2
1000
-2000535
1002
}
  0
INSERT
  5
FB
330
70
100
AcDbEntity
  8
G-ANNO-SYMB
100
AcDbBlockReference
  2
Elévation - Flèche pleine-184796-Niveau 0
 10
8.036939388907551
 20
-20376.9370413407
 30
0.0
 41
99.99999999999992
 42
99.99999999999992
 43
99.99999999999992
1001
REVIT
1002
{
1070
     1
1000
2299
1002
}
1002
{
1070
     5
1000
590
1002
}
1002
{
1070
     2
1000
-2000535
1002
}
  0
MTEXT
  5
FC
330
70
100
AcDbEntity
  8
G-ANNO-SYMB
100
AcDbMText
 10
-61.10170200727035
 20
-19163.18197092925
 30
0.0
 40
249.9999999999997
 41
144.3037499999998
 46
0.0
 71
     1
 72
     1
  1
-
  7
Arial
 73
     2
 44
1.0
 90
        3
 63
     9
421
 13158600
 45
1.25
441
        0
1001
REVIT
1002
{
1070
     1
1000
2299
1002
}
1002
{
1070
     5
1000
590
1002
}
1002
{
1070
     2
1000
-2000535
1002
}
  0
INSERT
  5
FD
330
70
100
AcDbEntity
  8
G-ANNO-SYMB
100
AcDbBlockReference
  2
Elévation - Flèche pleine-185067-Niveau 0
 10
8.03693938904291
 20
20460.12495326827
 30
0.0
 41
99.99999999999992
 42
99.99999999999992
 43
99.99999999999992
1001
REVIT
1002
{
1070
     1
1000
2333
1002
}
1002
{
1070
     5
1000
590
1002
}
1002
{
1070
     2
1000
-2000535
1002
}
  0
MTEXT
  5
FE
330
70
100
AcDbEntity
  8
G-ANNO-SYMB
100
AcDbMText
 10
-12.69404165720369
 20
20565.89037561848
 30
0.0
 40
249.9999999999997
 41
144.3037499999998
 46
0.0
 71
     1
 72
     1
  1
-
  7
Arial
 73
     2
 44
1.0
1001
REVIT
1002
{
1070
     1
1000
2333
1002
}
1002
{
1070
     5
1000
590
1002
}
1002
{
1070
     2
1000
-2000535
1002
}
  0
INSERT
  5
FF
330
70
100
AcDbEntity
  8
G-ANNO-SYMB
100
AcDbBlockReference
  2
Elévation - Flèche pleine-185067-Niveau 0
 10
27933.99381270412
 20
39.16807995301915
 30
0.0
 41
99.99999999999992
 42
99.99999999999992
 43
99.99999999999992
1001
REVIT
1002
{
1070
     1
1000
2378
1002
}
1002
{
1070
     5
1000
590
1002
}
1002
{
1070
     2
1000
-2000535
1002
}
  0
MTEXT
  5
100
330
70
100
AcDbEntity
  8
G-ANNO-SYMB
100
AcDbMText
 10
27913.26283165787
 20
144.9335023032408
 30
0.0
 40
249.9999999999997
 41
144.3037499999998
 46
0.0
 71
     1
 72
     1
  1
-
  7
Arial
 73
     2
 44
1.0
1001
REVIT
1002
{
1070
     1
1000
2378
1002
}
1002
{
1070
     5
1000
590
1002
}
1002
{
1070
     2
1000
-2000535
1002
}
  0
INSERT
  5
101
330
70
100
AcDbEntity
  8
G-ANNO-SYMB
100
AcDbBlockReference
  2
Elévation - Flèche pleine-184796-Niveau 0
 10
27933.99381270412
 20
39.16807995301915
 30
0.0
 41
99.99999999999992
 42
99.99999999999992
 43
99.99999999999992
 50
90.00000000000005
1001
REVIT
1002
{
1070
     1
1000
2379
1002
}
1002
{
1070
     5
1000
590
1002
}
1002
{
1070
     2
1000
-2000535
1002
}
  0
MTEXT
  5
102
330
70
100
AcDbEntity
  8
G-ANNO-SYMB
100
AcDbMText
 10
26788.23874229267
 20
164.0294385568262
 30
0.0
 40
249.9999999999997
 41
144.3037499999998
 46
0.0
 71
     1
 72
     1
  1
-
  7
Arial
 73
     2
 44
1.0
 90
        3
 63
     9
421
 13158600
 45
1.25
441
        0
1001
REVIT
1002
{
1070
     1
1000
2379
1002
}
1002
{
1070
     5
1000
590
1002
}
1002
{
1070
     2
1000
-2000535
1002
}
  0
INSERT
  5
103
330
70
100
AcDbEntity
  8
G-ANNO-SYMB
100
AcDbBlockReference
  2
Elévation - Flèche pleine-184796-Niveau 0
 10
-8.03693938904291
 20
20460.12495326827
 30
0.0
 41
99.99999999999992
 42
99.99999999999992
 43
99.99999999999992
 50
180.0
210
0.0
220
0.0
230
-1.0
1001
REVIT
1002
{
1070
     1
1000
73529
1002
}
1002
{
1070
     5
1000
590
1002
}
1002
{
1070
     2
1000
-2000535
1002
}
  0
MTEXT
  5
104
330
70
100
AcDbEntity
  8
G-ANNO-SYMB
100
AcDbMText
 10
-61.10170200714264
 20
19508.36988285682
 30
0.0
 40
249.9999999999997
 41
144.3037499999998
 46
0.0
 71
     1
 72
     1
  1
-
  7
Arial
 73
     2
 44
1.0
 90
        3
 63
     9
421
 13158600
 45
1.25
441
        0
1001
REVIT
1002
{
1070
     1
1000
73529
1002
}
1002
{
1070
     5
1000
590
1002
}
1002
{
1070
     2
1000
-2000535
1002
}
  0
INSERT
  5
105
330
70
100
AcDbEntity
  8
G-ANNO-SYMB
100
AcDbBlockReference
  2
Elévation - Flèche pleine-185067-Niveau 0
 10
-27903.06818190477
 20
39.11920502300198
 30
0.0
 41
99.99999999999992
 42
99.99999999999992
 43
99.99999999999992
 50
180.0
1001
REVIT
1002
{
1070
     1
1000
147080
1002
}
1002
{
1070
     5
1000
590
1002
}
1002
{
1070
     2
1000
-2000535
1002
}
  0
MTEXT
  5
106
330
70
100
AcDbEntity
  8
G-ANNO-SYMB
100
AcDbMText
 10
-28008.33720085852
 20
195.3537826727804
 30
0.0
 40
249.9999999999997
 41
144.3037499999998
 46
0.0
 71
     1
 72
     1
  1
-
  7
Arial
 73
     2
 44
1.0
1001
REVIT
1002
{
1070
     1
1000
147080
1002
}
1002
{
1070
     5
1000
590
1002
}
1002
{
1070
     2
1000
-2000535
1002
}
  0
INSERT
  5
107
330
70
100
AcDbEntity
  8
G-ANNO-SYMB
100
AcDbBlockReference
  2
Elévation - Flèche pleine-184796-Niveau 0
 10
-27903.06818190477
 20
39.11920502300198
 30
0.0
 41
99.99999999999992
 42
99.99999999999992
 43
99.99999999999992
 50
269.9999999999993
1001
REVIT
1002
{
1070
     1
1000
147081
1002
}
1002
{
1070
     5
1000
590
1002
}
1002
{
1070
     2
1000
-2000535
1002
}
  0
MTEXT
  5
108
330
70
100
AcDbEntity
  8
G-ANNO-SYMB
100
AcDbMText
 10
-26883.31311149332
 20
176.2578464191809
 30
0.0
 40
249.9999999999997
 41
144.3037499999998
 46
0.0
 71
     1
 72
     1
  1
-
  7
Arial
 73
     2
 44
1.0
 90
        3
 63
     9
421
 13158600
 45
1.25
441
        0
1001
REVIT
1002
{
1070
     1
1000
147081
1002
}
1002
{
1070
     5
1000
590
1002
}
1002
{
1070
     2
1000
-2000535
1002
}
  0
INSERT
  5
115
330
70
100
AcDbEntity
  8
G-ANNO-SYMB
100
AcDbBlockReference
  2
Coupe - Marque de la ligne de coupe - Verticale pleine-3537-Niveau 0
 10
5742.578718899189
 20
11285.26720584409
 30
0.0
 41
99.99999999999992
 42
99.99999999999992
 43
99.99999999999992
 50
270.0000000000002
210
0.0
220
0.0
230
-1.0
1001
REVIT
1002
{
1070
     1
1000
256439
1002
}
1002
{
1070
     5
1000
583
1002
}
1002
{
1070
     2
1000
-2000200
1002
}
  0
LINE
  5
117
330
70
100
AcDbEntity
  8
G-ANNO-SYMB
  6
Tiret point
100
AcDbLine
 10
-5742.578718899215
 20
-3558.2255564
 30
0.0
 11
-5742.578718899192
 21
11285.2672058441
 31
0.0
1001
REVIT
1002
{
1070
     1
1000
256439
1002
}
1002
{
1070
     5
1000
583
1002
}
1002
{
1070
     2
1000
-2000200
1002
}
  0
LINE
  5
118
330
70
100
AcDbEntity
  8
G-ANNO-SYMB
100
AcDbLine
 10
-6342.578718899211
 20
-4158.225556399997
 30
0.0
 11
-5142.578718899212
 21
-4158.225556399997
 31
0.0
1001
REVIT
1002
{
1070
     1
1000
256439
1002
}
1002
{
1070
     5
1000
583
1002
}
1002
{
1070
     2
1000
-2000200
1002
}
  0
INSERT
  5
13E
330
70
100
AcDbEntity
  8
G-ANNO-SYMB
100
AcDbBlockReference
  2
Coupe - Extrémité de la ligne de coupe - Pleine-2974-Niveau 0
 10
-5742.578718899211
 20
-3558.225556399997
 30
0.0
 41
99.99999999999992
 42
99.99999999999992
 43
99.99999999999992
 50
89.99999999999991
1001
REVIT
1002
{
1070
     1
1000
256439
1002
}
1002
{
1070
     5
1000
583
1002
}
1002
{
1070
     2
1000
-2000200
1002
}
  0
MTEXT
  5
140
330
70
100
AcDbEntity
  8
G-ANNO-SYMB
100
AcDbMText
 10
-5784.336661232586
 20
-3748.797441213354
 30
0.0
 40
249.9999999999997
 41
152.3206249999998
 46
0.0
 71
     1
 72
     1
  1
-
  7
Trebuchet MS
 73
     2
 44
1.0
1001
REVIT
1002
{
1070
     1
1000
256439
1002
}
1002
{
1070
     5
1000
583
1002
}
1002
{
1070
     2
1000
-2000200
1002
}
  0
MTEXT
  5
141
330
70
100
AcDbEntity
  8
G-ANNO-SYMB
100
AcDbMText
 10
-5909.836661232585
 20
-4278.945911287716
 30
0.0
 40
249.9999999999997
 41
456.9618749999995
 46
0.0
 71
     1
 72
     1
  1
---
  7
Trebuchet MS
 73
     2
 44
1.0
1001
REVIT
1002
{
1070
     1
1000
256439
1002
}
1002
{
1070
     5
1000
583
1002
}
1002
{
1070
     2
1000
-2000200
1002
}
  0
INSERT
  5
142
330
70
100
AcDbEntity
  8
G-ANNO-SYMB
100
AcDbBlockReference
  2
Coupe - Marque de la ligne de coupe - Verticale pleine-3537-Niveau 0
 10
-4366.878285839045
 20
1359.063198170503
 30
0.0
 41
99.99999999999992
 42
99.99999999999992
 43
99.99999999999992
210
0.0
220
0.0
230
-1.0
1001
REVIT
1002
{
1070
     1
1000
256588
1002
}
1002
{
1070
     5
1000
583
1002
}
1002
{
1070
     2
1000
-2000200
1002
}
  0
LINE
  5
143
330
70
100
AcDbEntity
  8
G-ANNO-SYMB
  6
Tiret point
100
AcDbLine
 10
-18081.61385459184
 20
1359.063198170576
 30
0.0
 11
4366.878285839048
 21
1359.063198170504
 31
0.0
1001
REVIT
1002
{
1070
     1
1000
256588
1002
}
1002
{
1070
     5
1000
583
1002
}
1002
{
1070
     2
1000
-2000200
1002
}
  0
LINE
  5
144
330
70
100
AcDbEntity
  8
G-ANNO-SYMB
100
AcDbLine
 10
-19281.61385459182
 20
1359.063198170582
 30
0.0
 11
-18081.61385459182
 21
1359.063198170582
 31
0.0
1001
REVIT
1002
{
1070
     1
1000
256588
1002
}
1002
{
1070
     5
1000
583
1002
}
1002
{
1070
     2
1000
-2000200
1002
}
  0
INSERT
  5
145
330
70
100
AcDbEntity
  8
G-ANNO-SYMB
100
AcDbBlockReference
  2
Coupe - Extrémité de la ligne de coupe - Pleine-2974-Niveau 0
 10
-18081.61385459182
 20
1359.063198170575
 30
0.0
 41
99.99999999999992
 42
99.99999999999992
 43
99.99999999999992
1001
REVIT
1002
{
1070
     1
1000
256588
1002
}
1002
{
1070
     5
1000
583
1002
}
1002
{
1070
     2
1000
-2000200
1002
}
  0
MTEXT
  5
146
330
70
100
AcDbEntity
  8
G-ANNO-SYMB
100
AcDbMText
 10
-18723.3717969252
 20
1768.491313357225
 30
0.0
 40
249.9999999999997
 41
152.3206249999998
 46
0.0
 71
     1
 72
     1
  1
-
  7
Trebuchet MS
 73
     2
 44
1.0
1001
REVIT
1002
{
1070
     1
1000
256588
1002
}
1002
{
1070
     5
1000
583
1002
}
1002
{
1070
     2
1000
-2000200
1002
}
  0
MTEXT
  5
147
330
70
100
AcDbEntity
  8
G-ANNO-SYMB
100
AcDbMText
 10
-18848.8717969252
 20
1238.342843282862
 30
0.0
 40
249.9999999999997
 41
456.9618749999995
 46
0.0
 71
     1
 72
     1
  1
---
  7
Trebuchet MS
 73
     2
 44
1.0
1001
REVIT
1002
{
1070
     1
1000
256588
1002
}
1002
{
1070
     5
1000
583
1002
}
1002
{
1070
     2
1000
-2000200
1002
}
  0
INSERT
  5
148
330
70
100
AcDbEntity
  8
G-ANNO-SYMB
100
AcDbBlockReference
  2
Coupe - Marque de la ligne de coupe - Verticale pleine-3537-Niveau 0
 10
-4206.577488841069
 20
5842.265071182101
 30
0.0
 41
99.99999999999992
 42
99.99999999999992
 43
99.99999999999992
210
0.0
220
0.0
230
-1.0
1001
REVIT
1002
{
1070
     1
1000
257586
1002
}
1002
{
1070
     5
1000
583
1002
}
1002
{
1070
     2
1000
-2000200
1002
}
  0
LINE
  5
149
330
70
100
AcDbEntity
  8
G-ANNO-SYMB
  6
Tiret point
100
AcDbLine
 10
-18790.14959460281
 20
5842.26507118218
 30
0.0
 11
4206.577488841071
 21
5842.265071182105
 31
0.0
1001
REVIT
1002
{
1070
     1
1000
257586
1002
}
1002
{
1070
     5
1000
583
1002
}
1002
{
1070
     2
1000
-2000200
1002
}
  0
LINE
  5
14A
330
70
100
AcDbEntity
  8
G-ANNO-SYMB
100
AcDbLine
 10
-19990.1495946028
 20
5842.265071182182
 30
0.0
 11
-18790.1495946028
 21
5842.265071182182
 31
0.0
1001
REVIT
1002
{
1070
     1
1000
257586
1002
}
1002
{
1070
     5
1000
583
1002
}
1002
{
1070
     2
1000
-2000200
1002
}
  0
INSERT
  5
14B
330
70
100
AcDbEntity
  8
G-ANNO-SYMB
100
AcDbBlockReference
  2
Coupe - Extrémité de la ligne de coupe - Pleine-2974-Niveau 0
 10
-18790.1495946028
 20
5842.265071182175
 30
0.0
 41
99.99999999999992
 42
99.99999999999992
 43
99.99999999999992
1001
REVIT
1002
{
1070
     1
1000
257586
1002
}
1002
{
1070
     5
1000
583
1002
}
1002
{
1070
     2
1000
-2000200
1002
}
  0
MTEXT
  5
14C
330
70
100
AcDbEntity
  8
G-ANNO-SYMB
100
AcDbMText
 10
-19431.90753693617
 20
6251.693186368824
 30
0.0
 40
249.9999999999997
 41
152.3206249999998
 46
0.0
 71
     1
 72
     1
  1
-
  7
Trebuchet MS
 73
     2
 44
1.0
1001
REVIT
1002
{
1070
     1
1000
257586
1002
}
1002
{
1070
     5
1000
583
1002
}
1002
{
1070
     2
1000
-2000200
1002
}
  0
MTEXT
  5
14D
330
70
100
AcDbEntity
  8
G-ANNO-SYMB
100
AcDbMText
 10
-19557.40753693617
 20
5721.544716294463
 30
0.0
 40
249.9999999999997
 41
456.9618749999995
 46
0.0
 71
     1
 72
     1
  1
---
  7
Trebuchet MS
 73
     2
 44
1.0
1001
REVIT
1002
{
1070
     1
1000
257586
1002
}
1002
{
1070
     5
1000
583
1002
}
1002
{
1070
     2
1000
-2000200
1002
}
  0
ENDSEC
  0
SECTION
  2
OBJECTS
  0
DICTIONARY
  5
C
330
0
100
AcDbDictionary
281
     1
  3
ACAD_CIP_PREVIOUS_PRODUCT_INFO
350
79
  3
ACAD_COLOR
350
63
  3
ACAD_DETAILVIEWSTYLE
350
6A
  3
ACAD_GROUP
350
D
  3
ACAD_IMAGE_VARS
350
7A
  3
ACAD_LAYOUT
350
62
  3
ACAD_MATERIAL
350
10
  3
ACAD_MLEADERSTYLE
350
66
  3
ACAD_MLINESTYLE
350
5F
  3
ACAD_PLOTSETTINGS
350
61
  3
ACAD_PLOTSTYLENAME
350
E
  3
ACAD_SCALELIST
350
42
  3
ACAD_SECTIONVIEWSTYLE
350
68
  3
ACAD_TABLESTYLE
350
64
  3
ACAD_VISUALSTYLE
350
29
  3
ACDB_RECOMPOSE_DATA
350
15B
  3
AcDbVariableDictionary
350
7B
  3
REVIT_DICTIONARY
350
14E
  0
DICTIONARY
  5
155
330
70
100
AcDbDictionary
280
     1
281
     1
  3
ACAD_SORTENTS
360
156
  0
XRECORD
  5
79
102
{ACAD_REACTORS
330
C
102
}
330
C
100
AcDbXrecord
280
     1
300
RVT
300
2025
300
RVT2025
  0
DICTIONARY
  5
63
102
{ACAD_REACTORS
330
C
102
}
330
C
100
AcDbDictionary
281
     1
  0
DICTIONARY
  5
6A
102
{ACAD_REACTORS
330
C
102
}
330
C
100
AcDbDictionary
281
     1
  3
Imperial24
350
6B
  0
DICTIONARY
  5
D
102
{ACAD_REACTORS
330
C
102
}
330
C
100
AcDbDictionary
281
     1
  0
RASTERVARIABLES
  5
7A
102
{ACAD_REACTORS
330
C
102
}
330
C
100
AcDbRasterVariables
 90
        0
 70
     0
 71
     1
 72
     1
  0
DICTIONARY
  5
62
102
{ACAD_REACTORS
330
C
102
}
330
C
100
AcDbDictionary
281
     1
  3
Layout1
350
6F
  3
Layout2
350
77
  3
Model
350
73
  0
DICTIONARY
  5
10
102
{ACAD_REACTORS
330
C
102
}
330
C
100
AcDbDictionary
281
     1
  3
ByBlock
350
19
  3
ByLayer
350
11
  3
Global
350
21
  0
DICTIONARY
  5
66
102
{ACAD_REACTORS
330
C
102
}
330
C
100
AcDbDictionary
281
     1
  3
Standard
350
67
  0
DICTIONARY
  5
5F
102
{ACAD_REACTORS
330
C
102
}
330
C
100
AcDbDictionary
281
     1
  3
Standard
350
60
  0
DICTIONARY
  5
61
102
{ACAD_REACTORS
330
C
102
}
330
C
100
AcDbDictionary
281
     1
  0
ACDBDICTIONARYWDFLT
  5
E
102
{ACAD_REACTORS
330
C
102
}
330
C
100
AcDbDictionary
281
     1
  3
Normal
350
F
100
AcDbDictionaryWithDefault
340
F
  0
DICTIONARY
  5
42
102
{ACAD_REACTORS
330
C
102
}
330
C
100
AcDbDictionary
281
     1
  3
A0
350
43
  3
A1
350
44
  3
A2
350
45
  3
A3
350
46
  3
A4
350
47
  3
A5
350
48
  3
A6
350
49
  3
A7
350
4A
  3
A8
350
4B
  3
A9
350
4C
  3
B0
350
4D
  3
B1
350
4E
  3
B2
350
4F
  3
B3
350
50
  3
B4
350
51
  3
B5
350
52
  3
B6
350
53
  0
DICTIONARY
  5
68
102
{ACAD_REACTORS
330
C
102
}
330
C
100
AcDbDictionary
281
     1
  3
Imperial24
350
69
  0
DICTIONARY
  5
64
102
{ACAD_REACTORS
330
C
102
}
330
C
100
AcDbDictionary
281
     1
  3
Standard
350
65
  0
DICTIONARY
  5
29
102
{ACAD_REACTORS
330
C
102
}
330
C
100
AcDbDictionary
281
     1
  3
2dWireframe
350
2F
  3
Basic
350
2E
  3
Brighten
350
35
  3
ColorChange
350
39
  3
Conceptual
350
32
  3
Dim
350
34
  3
EdgeColorOff
350
41
  3
Facepattern
350
38
  3
Flat
350
2A
  3
FlatWithEdges
350
2B
  3
Gouraud
350
2C
  3
GouraudWithEdges
350
2D
  3
Hidden
350
31
  3
JitterOff
350
3F
  3
Linepattern
350
37
  3
OverhangOff
350
40
  3
Realistic
350
33
  3
Shaded
350
3E
  3
Shaded with edges
350
3D
  3
Shades of Gray
350
3A
  3
Sketchy
350
3B
  3
Thicken
350
36
  3
Wireframe
350
30
  3
X-Ray
350
3C
  0
XRECORD
  5
15B
102
{ACAD_REACTORS
330
C
102
}
330
C
100
AcDbXrecord
280
     1
 90
        1
330
65
  0
DICTIONARY
  5
7B
102
{ACAD_REACTORS
330
C
102
}
330
C
100
AcDbDictionary
281
     1
  3
CANNOSCALE
350
80
  3
CMLEADERSTYLE
350
7D
  3
CTABLESTYLE
350
7C
  3
CVIEWDETAILSTYLE
350
7E
  3
CVIEWSECTIONSTYLE
350
7F
  0
DICTIONARY
  5
14E
102
{ACAD_REACTORS
330
C
102
}
330
C
100
AcDbDictionary
281
     1
  3
DRAWING_TOOL
350
154
  3
REVIT_CATEGORY_MAPPING
350
152
  3
REVIT_GET_SITE
350
14F
  3
REVIT_SUB_CATEGORY_MAPPING
350
153
  3
REVIT_TYPE_MAPPING
350
151
  0
SORTENTSTABLE
  5
156
102
{ACAD_REACTORS
330
155
102
}
330
155
100
AcDbSortentsTable
330
70
  0
ACDBDETAILVIEWSTYLE
  5
6B
102
{ACAD_REACTORS
330
6A
102
}
330
6A
100
AcDbModelDocViewStyle
 70
     0
  3
Imperial24
290
     1
300
Imperial24
 90
        0
100
AcDbDetailViewStyle
 70
     0
 71
     0
 90
        3
 71
     1
340
55
 62
   256
 40
0.24
340
0
 62
   256
 40
0.24
300

 40
0.36
280
     3
 71
     2
340
5D
 90
       25
 62
   256
 71
     3
340
55
 62
   256
 40
0.24
 90
        1
 40
0.75
 90
        1
300
%<\AcVar ViewType \f "%tc1">% %<\AcVar ViewDetailId>%\PSCALE %<\AcVar ViewScale \f "%sn">%
 71
     4
340
5D
 90
       25
 62
   256
340
5D
 90
       25
 62
   256
280
     0
  0
LAYOUT
  5
6F
102
{ACAD_REACTORS
330
62
102
}
330
62
100
AcDbPlotSettings
  1

  2

  4

  6

 40
0.0
 41
0.0
 42
0.0
 43
0.0
 44
0.0
 45
0.0
 46
0.0
 47
0.0
 48
0.0
 49
0.0
140
0.0
141
0.0
142
1.0
143
1.0
 70
   688
 72
     0
 73
     0
 74
     5
  7

 75
    16
147
1.0
 76
     0
 77
     2
 78
   300
148
0.0
149
0.0
100
AcDbLayout
  1
Layout1
 70
     1
 71
     1
 10
0.0
 20
0.0
 11
12.0
 21
9.0
 12
0.0
 22
0.0
 32
0.0
 14
0.0
 24
0.0
 34
0.0
 15
0.0
 25
0.0
 35
0.0
146
0.0
 13
0.0
 23
0.0
 33
0.0
 16
1.0
 26
0.0
 36
0.0
 17
0.0
 27
1.0
 37
0.0
 76
     0
330
6C
  0
LAYOUT
  5
77
102
{ACAD_REACTORS
330
62
102
}
330
62
100
AcDbPlotSettings
  1

  2

  4

  6

 40
0.0
 41
0.0
 42
0.0
 43
0.0
 44
0.0
 45
0.0
 46
0.0
 47
0.0
 48
0.0
 49
0.0
140
0.0
141
0.0
142
1.0
143
1.0
 70
   688
 72
     0
 73
     0
 74
     5
  7

 75
    16
147
1.0
 76
     0
 77
     2
 78
   300
148
0.0
149
0.0
100
AcDbLayout
  1
Layout2
 70
     1
 71
     2
 10
0.0
 20
0.0
 11
12.0
 21
9.0
 12
0.0
 22
0.0
 32
0.0
 14
0.0
 24
0.0
 34
0.0
 15
0.0
 25
0.0
 35
0.0
146
0.0
 13
0.0
 23
0.0
 33
0.0
 16
1.0
 26
0.0
 36
0.0
 17
0.0
 27
1.0
 37
0.0
 76
     0
330
74
  0
LAYOUT
  5
73
102
{ACAD_REACTORS
330
62
102
}
330
62
100
AcDbPlotSettings
  1

  2

  4

  6

 40
0.0
 41
0.0
 42
0.0
 43
0.0
 44
0.0
 45
0.0
 46
0.0
 47
0.0
 48
0.0
 49
0.0
140
0.0
141
0.0
142
1.0
143
1.0
 70
  1712
 72
     0
 73
     0
 74
     0
  7

 75
     0
147
1.0
 76
     0
 77
     2
 78
   300
148
0.0
149
0.0
100
AcDbLayout
  1
Model
 70
     1
 71
     0
 10
0.0
 20
0.0
 11
12.0
 21
9.0
 12
0.0
 22
0.0
 32
0.0
 14
0.0
 24
0.0
 34
0.0
 15
0.0
 25
0.0
 35
0.0
146
0.0
 13
0.0
 23
0.0
 33
0.0
 16
1.0
 26
0.0
 36
0.0
 17
0.0
 27
1.0
 37
0.0
 76
     0
330
70
  0
MATERIAL
  5
19
102
{ACAD_XDICTIONARY
360
1A
102
}
102
{ACAD_REACTORS
330
10
102
}
330
10
100
AcDbMaterial
  1
ByBlock
 72
     0
 43
0.0208333333333333
 43
0.0
 43
0.0
 43
0.0
 43
0.0
 43
0.0208333333333333
 43
0.0
 43
0.0
 43
0.0
 43
0.0
 43
1.0
 43
0.0
 43
0.0
 43
0.0
 43
0.0
 43
1.0
 77
     0
 47
0.0208333333333333
 47
0.0
 47
0.0
 47
0.0
 47
0.0
 47
0.0208333333333333
 47
0.0
 47
0.0
 47
0.0
 47
0.0
 47
1.0
 47
0.0
 47
0.0
 47
0.0
 47
0.0
 47
1.0
171
     0
 49
0.0208333333333333
 49
0.0
 49
0.0
 49
0.0
 49
0.0
 49
0.0208333333333333
 49
0.0
 49
0.0
 49
0.0
 49
0.0
 49
1.0
 49
0.0
 49
0.0
 49
0.0
 49
0.0
 49
1.0
175
     0
142
0.0208333333333333
142
0.0
142
0.0
142
0.0
142
0.0
142
0.0208333333333333
142
0.0
142
0.0
142
0.0
142
0.0
142
1.0
142
0.0
142
0.0
142
0.0
142
0.0
142
1.0
179
     0
144
0.0208333333333333
144
0.0
144
0.0
144
0.0
144
0.0
144
0.0208333333333333
144
0.0
144
0.0
144
0.0
144
0.0
144
1.0
144
0.0
144
0.0
144
0.0
144
0.0
144
1.0
147
0.0208333333333333
147
0.0
147
0.0
147
0.0
147
0.0
147
0.0208333333333333
147
0.0
147
0.0
147
0.0
147
0.0
147
1.0
147
0.0
147
0.0
147
0.0
147
0.0
147
1.0
  0
MATERIAL
  5
11
102
{ACAD_XDICTIONARY
360
12
102
}
102
{ACAD_REACTORS
330
10
102
}
330
10
100
AcDbMaterial
  1
ByLayer
 72
     0
 43
0.0208333333333333
 43
0.0
 43
0.0
 43
0.0
 43
0.0
 43
0.0208333333333333
 43
0.0
 43
0.0
 43
0.0
 43
0.0
 43
1.0
 43
0.0
 43
0.0
 43
0.0
 43
0.0
 43
1.0
 77
     0
 47
0.0208333333333333
 47
0.0
 47
0.0
 47
0.0
 47
0.0
 47
0.0208333333333333
 47
0.0
 47
0.0
 47
0.0
 47
0.0
 47
1.0
 47
0.0
 47
0.0
 47
0.0
 47
0.0
 47
1.0
171
     0
 49
0.0208333333333333
 49
0.0
 49
0.0
 49
0.0
 49
0.0
 49
0.0208333333333333
 49
0.0
 49
0.0
 49
0.0
 49
0.0
 49
1.0
 49
0.0
 49
0.0
 49
0.0
 49
0.0
 49
1.0
175
     0
142
0.0208333333333333
142
0.0
142
0.0
142
0.0
142
0.0
142
0.0208333333333333
142
0.0
142
0.0
142
0.0
142
0.0
142
1.0
142
0.0
142
0.0
142
0.0
142
0.0
142
1.0
179
     0
144
0.0208333333333333
144
0.0
144
0.0
144
0.0
144
0.0
144
0.0208333333333333
144
0.0
144
0.0
144
0.0
144
0.0
144
1.0
144
0.0
144
0.0
144
0.0
144
0.0
144
1.0
147
0.0208333333333333
147
0.0
147
0.0
147
0.0
147
0.0
147
0.0208333333333333
147
0.0
147
0.0
147
0.0
147
0.0
147
1.0
147
0.0
147
0.0
147
0.0
147
0.0
147
1.0
  0
MATERIAL
  5
21
102
{ACAD_XDICTIONARY
360
22
102
}
102
{ACAD_REACTORS
330
10
102
}
330
10
100
AcDbMaterial
  1
Global
 72
     0
 43
0.0208333333333333
 43
0.0
 43
0.0
 43
0.0
 43
0.0
 43
0.0208333333333333
 43
0.0
 43
0.0
 43
0.0
 43
0.0
 43
1.0
 43
0.0
 43
0.0
 43
0.0
 43
0.0
 43
1.0
 77
     0
 47
0.0208333333333333
 47
0.0
 47
0.0
 47
0.0
 47
0.0
 47
0.0208333333333333
 47
0.0
 47
0.0
 47
0.0
 47
0.0
 47
1.0
 47
0.0
 47
0.0
 47
0.0
 47
0.0
 47
1.0
171
     0
 49
0.0208333333333333
 49
0.0
 49
0.0
 49
0.0
 49
0.0
 49
0.0208333333333333
 49
0.0
 49
0.0
 49
0.0
 49
0.0
 49
1.0
 49
0.0
 49
0.0
 49
0.0
 49
0.0
 49
1.0
175
     0
142
0.0208333333333333
142
0.0
142
0.0
142
0.0
142
0.0
142
0.0208333333333333
142
0.0
142
0.0
142
0.0
142
0.0
142
1.0
142
0.0
142
0.0
142
0.0
142
0.0
142
1.0
179
     0
144
0.0208333333333333
144
0.0
144
0.0
144
0.0
144
0.0
144
0.0208333333333333
144
0.0
144
0.0
144
0.0
144
0.0
144
1.0
144
0.0
144
0.0
144
0.0
144
0.0
144
1.0
147
0.0208333333333333
147
0.0
147
0.0
147
0.0
147
0.0
147
0.0208333333333333
147
0.0
147
0.0
147
0.0
147
0.0
147
1.0
147
0.0
147
0.0
147
0.0
147
0.0
147
1.0
  0
MLEADERSTYLE
  5
67
102
{ACAD_REACTORS
330
66
102
}
330
66
100
AcDbMLeaderStyle
179
     2
170
     2
171
     1
172
     0
 90
        2
 40
0.0
 41
0.0
173
     1
 91
-1056964608
340
5B
 92
       -2
290
     1
 42
0.09
291
     1
 43
0.36
  3
Standard
 44
0.18
300

342
55
174
     1
178
     6
175
     1
176
     0
 93
-1056964608
 45
0.18
292
     0
297
     0
 46
0.18
 94
-1056964608
 47
1.0
 49
1.0
140
1.0
293
     1
141
0.0
294
     1
177
     0
142
1.0
295
     1
296
     0
143
0.125
271
     0
272
     9
273
     9
298
     1
  0
MLINESTYLE
  5
60
102
{ACAD_REACTORS
330
5F
102
}
330
5F
100
AcDbMlineStyle
  2
STANDARD
 70
     0
  3

 62
   256
 51
90.0
 52
90.0
 71
     2
 49
0.5
 62
   256
  6
BYLAYER
 49
-0.5
 62
   256
  6
BYLAYER
  0
ACDBPLACEHOLDER
  5
F
102
{ACAD_REACTORS
330
E
102
}
330
E
  0
SCALE
  5
43
102
{ACAD_REACTORS
330
42
102
}
330
42
100
AcDbScale
 70
     0
300
1:1
140
1.0
141
1.0
290
     1
  0
SCALE
  5
44
102
{ACAD_REACTORS
330
42
102
}
330
42
100
AcDbScale
 70
     0
300
1/128" = 1'-0"
140
0.0078125
141
12.0
290
     0
  0
SCALE
  5
45
102
{ACAD_REACTORS
330
42
102
}
330
42
100
AcDbScale
 70
     0
300
1/64" = 1'-0"
140
0.015625
141
12.0
290
     0
  0
SCALE
  5
46
102
{ACAD_REACTORS
330
42
102
}
330
42
100
AcDbScale
 70
     0
300
1/32" = 1'-0"
140
0.03125
141
12.0
290
     0
  0
SCALE
  5
47
102
{ACAD_REACTORS
330
42
102
}
330
42
100
AcDbScale
 70
     0
300
1/16" = 1'-0"
140
0.0625
141
12.0
290
     0
  0
SCALE
  5
48
102
{ACAD_REACTORS
330
42
102
}
330
42
100
AcDbScale
 70
     0
300
3/32" = 1'-0"
140
0.09375
141
12.0
290
     0
  0
SCALE
  5
49
102
{ACAD_REACTORS
330
42
102
}
330
42
100
AcDbScale
 70
     0
300
1/8" = 1'-0"
140
0.125
141
12.0
290
     0
  0
SCALE
  5
4A
102
{ACAD_REACTORS
330
42
102
}
330
42
100
AcDbScale
 70
     0
300
3/16" = 1'-0"
140
0.1875
141
12.0
290
     0
  0
SCALE
  5
4B
102
{ACAD_REACTORS
330
42
102
}
330
42
100
AcDbScale
 70
     0
300
1/4" = 1'-0"
140
0.25
141
12.0
290
     0
  0
SCALE
  5
4C
102
{ACAD_REACTORS
330
42
102
}
330
42
100
AcDbScale
 70
     0
300
3/8" = 1'-0"
140
0.375
141
12.0
290
     0
  0
SCALE
  5
4D
102
{ACAD_REACTORS
330
42
102
}
330
42
100
AcDbScale
 70
     0
300
1/2" = 1'-0"
140
0.5
141
12.0
290
     0
  0
SCALE
  5
4E
102
{ACAD_REACTORS
330
42
102
}
330
42
100
AcDbScale
 70
     0
300
3/4" = 1'-0"
140
0.75
141
12.0
290
     0
  0
SCALE
  5
4F
102
{ACAD_REACTORS
330
42
102
}
330
42
100
AcDbScale
 70
     0
300
1" = 1'-0"
140
1.0
141
12.0
290
     0
  0
SCALE
  5
50
102
{ACAD_REACTORS
330
42
102
}
330
42
100
AcDbScale
 70
     0
300
1-1/2" = 1'-0"
140
1.5
141
12.0
290
     0
  0
SCALE
  5
51
102
{ACAD_REACTORS
330
42
102
}
330
42
100
AcDbScale
 70
     0
300
3" = 1'-0"
140
3.0
141
12.0
290
     0
  0
SCALE
  5
52
102
{ACAD_REACTORS
330
42
102
}
330
42
100
AcDbScale
 70
     0
300
6" = 1'-0"
140
6.0
141
12.0
290
     0
  0
SCALE
  5
53
102
{ACAD_REACTORS
330
42
102
}
330
42
100
AcDbScale
 70
     0
300
1'-0" = 1'-0"
140
12.0
141
12.0
290
     0
  0
ACDBSECTIONVIEWSTYLE
  5
69
102
{ACAD_REACTORS
330
68
102
}
330
68
100
AcDbModelDocViewStyle
 70
     0
  3
Imperial24
290
     1
300
Imperial24
 90
        0
100
AcDbSectionViewStyle
 70
     0
 71
     0
 90
       78
 71
     1
340
55
 62
   256
 40
0.24
340
0
340
0
 62
   256
 40
0.24
300
I, O, Q, S, X, Z
 40
0.48
 90
        3
 40
0.18
 90
        1
 71
     2
340
5D
 90
       25
 62
   256
340
5D
 90
       50
 62
   256
 40
0.24
 40
0.0
 40
0.24
 71
     3
340
55
 62
   256
 40
0.24
 90
        1
 40
0.75
 90
        1
300
%<\AcVar ViewType \f "%tc1">% %<\AcVar ViewSectionStartId>%-%<\AcVar ViewSectionEndId>%\PSCALE %<\AcVar ViewScale \f "%sn">%
 71
     4
 62
   256
 62
   257
300
ANSI31
 40
1.0
 90
        0
290
     0
290
     0
 90
        6
 40
0.0
 40
1.570796326794896
 40
0.2617993877991494
 40
1.308996938995747
 40
-0.2617993877991494
 40
1.832595714594046
  0
TABLESTYLE
  5
65
102
{ACAD_XDICTIONARY
360
159
102
}
102
{ACAD_REACTORS
330
64
102
}
330
64
100
AcDbTableStyle
280
     0
  3
Standard
 70
     0
 71
     0
 40
0.06
 41
0.06
280
     0
281
     0
  7
Standard
140
0.18
170
     2
 62
     0
 63
     7
283
     0
 90
      512
 91
        0
  1

274
    -2
284
     1
 64
     0
275
    -2
285
     1
 65
     0
276
    -2
286
     1
 66
     0
277
    -2
287
     1
 67
     0
278
    -2
288
     1
 68
     0
279
    -2
289
     1
 69
     0
  7
Standard
140
0.25
170
     5
 62
     0
 63
     7
283
     0
 90
      512
 91
        0
  1

274
    -2
284
     1
 64
     0
275
    -2
285
     1
 65
     0
276
    -2
286
     1
 66
     0
277
    -2
287
     1
 67
     0
278
    -2
288
     1
 68
     0
279
    -2
289
     1
 69
     0
  7
Standard
140
0.18
170
     5
 62
     0
 63
     7
283
     0
 90
      512
 91
        0
  1

274
    -2
284
     1
 64
     0
275
    -2
285
     1
 65
     0
276
    -2
286
     1
 66
     0
277
    -2
287
     1
 67
     0
278
    -2
288
     1
 68
     0
279
    -2
289
     1
 69
     0
  0
VISUALSTYLE
  5
2F
102
{ACAD_REACTORS
330
29
102
}
330
29
100
AcDbVisualStyle
  2
2dWireframe
 70
     4
177
     3
291
     0
 70
    58
 90
        0
176
     1
 90
        2
176
     1
 90
        0
176
     1
 90
        0
176
     1
 40
0.6
176
     1
 40
30.0
176
     1
 62
     7
420
 16777215
176
     1
 90
        1
176
     1
 90
        4
176
     1
 62
     7
176
     1
 62
   257
176
     1
 90
        1
176
     1
 90
        1
176
     1
 40
1.0
176
     1
 90
        0
176
     1
 62
   257
176
     1
 40
1.0
176
     1
 90
        1
176
     1
 90
        6
176
     1
 90
        2
176
     1
 62
     7
176
     1
 90
        5
176
     1
 90
        0
176
     1
 90
        0
176
     1
290
     0
176
     1
 90
        1
176
     1
 40
0.0
176
     1
 90
        0
176
     1
290
     1
176
     1
290
     1
176
     1
290
     0
176
     1
290
     0
176
     1
290
     0
176
     1
290
     0
176
     1
290
     0
176
     1
290
     0
176
     1
290
     0
176
     1
 90
       50
176
     1
 40
0.0
176
     1
 40
1.0
176
     1
 90
        0
176
     1
 62
    18
420
        0
176
     1
 90
       50
176
     1
 90
        3
176
     1
 62
     5
420
      255
176
     1
290
     0
176
     1
 90
       50
176
     1
 90
       50
176
     1
 90
       50
176
     1
290
     0
176
     1
 90
       50
176
     1
 62
   256
176
     0
 40
1.0
176
     0
 90
        2
176
     1
  1
strokes_ogs.tif
176
     1
290
     0
176
     1
 40
1.0
176
     1
 40
1.0
176
     1
  0
VISUALSTYLE
  5
2E
102
{ACAD_REACTORS
330
29
102
}
330
29
100
AcDbVisualStyle
  2
Basic
 70
     7
177
     3
291
     1
 70
    58
 90
        1
176
     1
 90
        0
176
     1
 90
        1
176
     1
 90
        0
176
     1
 40
0.6
176
     1
 40
30.0
176
     1
 62
     7
420
 16777215
176
     1
 90
        0
176
     1
 90
        4
176
     1
 62
     7
176
     1
 62
   257
176
     1
 90
        1
176
     1
 90
        1
176
     1
 40
1.0
176
     1
 90
        8
176
     1
 62
     7
176
     1
 40
1.0
176
     1
 90
        1
176
     1
 90
        6
176
     1
 90
        2
176
     1
 62
     7
176
     1
 90
        5
176
     1
 90
        0
176
     1
 90
        0
176
     1
290
     0
176
     1
 90
        1
176
     1
 40
0.0
176
     1
 90
        0
176
     1
290
     0
176
     1
290
     1
176
     1
290
     1
176
     1
290
     0
176
     1
290
     0
176
     1
290
     0
176
     1
290
     0
176
     1
290
     0
176
     1
290
     0
176
     1
 90
       50
176
     1
 40
0.0
176
     1
 40
1.0
176
     1
 90
        0
176
     1
 62
    18
420
        0
176
     1
 90
       50
176
     1
 90
        3
176
     1
 62
     5
420
      255
176
     1
290
     0
176
     1
 90
       50
176
     1
 90
       50
176
     1
 90
       50
176
     1
290
     0
176
     1
 90
       50
176
     1
 62
   256
176
     0
 40
1.0
176
     0
 90
        2
176
     1
  1
strokes_ogs.tif
176
     1
290
     0
176
     1
 40
1.0
176
     1
 40
1.0
176
     1
  0
VISUALSTYLE
  5
35
102
{ACAD_REACTORS
330
29
102
}
330
29
100
AcDbVisualStyle
  2
Brighten
 70
    12
177
     3
291
     1
 70
    58
 90
        2
176
     1
 90
        2
176
     1
 90
        0
176
     1
 90
        0
176
     1
 40
0.6
176
     1
 40
30.0
176
     1
 62
     7
420
 16777215
176
     1
 90
        1
176
     1
 90
        4
176
     1
 62
     7
176
     1
 62
   257
176
     1
 90
        1
176
     1
 90
        1
176
     1
 40
1.0
176
     1
 90
        8
176
     1
 62
     7
176
     1
 40
1.0
176
     1
 90
        1
176
     1
 90
        6
176
     1
 90
        2
176
     1
 62
     7
176
     1
 90
        5
176
     1
 90
        0
176
     1
 90
        0
176
     1
290
     0
176
     1
 90
        1
176
     1
 40
50.0
176
     1
 90
        0
176
     1
290
     0
176
     1
290
     1
176
     1
290
     1
176
     1
290
     0
176
     1
290
     0
176
     1
290
     0
176
     1
290
     0
176
     1
290
     0
176
     1
290
     0
176
     1
 90
       50
176
     1
 40
0.0
176
     1
 40
1.0
176
     1
 90
        0
176
     1
 62
    18
420
        0
176
     1
 90
       50
176
     1
 90
        3
176
     1
 62
     5
420
      255
176
     1
290
     0
176
     1
 90
       50
176
     1
 90
       50
176
     1
 90
       50
176
     1
290
     0
176
     1
 90
       50
176
     1
 62
   256
176
     0
 40
1.0
176
     0
 90
        2
176
     1
  1
strokes_ogs.tif
176
     1
290
     0
176
     1
 40
1.0
176
     1
 40
1.0
176
     1
  0
VISUALSTYLE
  5
39
102
{ACAD_REACTORS
330
29
102
}
330
29
100
AcDbVisualStyle
  2
ColorChange
 70
    16
177
     3
291
     1
 70
    58
 90
        2
176
     1
 90
        2
176
     1
 90
        3
176
     1
 90
        0
176
     1
 40
0.6
176
     1
 40
30.0
176
     1
 62
     8
420
  8421504
176
     1
 90
        1
176
     1
 90
        4
176
     1
 62
     7
176
     1
 62
   257
176
     1
 90
        1
176
     1
 90
        1
176
     1
 40
1.0
176
     1
 90
        8
176
     1
 62
     8
420
  8421504
176
     1
 40
1.0
176
     1
 90
        1
176
     1
 90
        6
176
     1
 90
        2
176
     1
 62
     7
176
     1
 90
        5
176
     1
 90
        0
176
     1
 90
        0
176
     1
290
     0
176
     1
 90
        1
176
     1
 40
0.0
176
     1
 90
        0
176
     1
290
     0
176
     1
290
     1
176
     1
290
     1
176
     1
290
     0
176
     1
290
     0
176
     1
290
     0
176
     1
290
     0
176
     1
290
     0
176
     1
290
     0
176
     1
 90
       50
176
     1
 40
0.0
176
     1
 40
1.0
176
     1
 90
        0
176
     1
 62
    18
420
        0
176
     1
 90
       50
176
     1
 90
        3
176
     1
 62
     5
420
      255
176
     1
290
     0
176
     1
 90
       50
176
     1
 90
       50
176
     1
 90
       50
176
     1
290
     0
176
     1
 90
       50
176
     1
 62
   256
176
     0
 40
1.0
176
     0
 90
        2
176
     1
  1
strokes_ogs.tif
176
     1
290
     0
176
     1
 40
1.0
176
     1
 40
1.0
176
     1
  0
VISUALSTYLE
  5
32
102
{ACAD_REACTORS
330
29
102
}
330
29
100
AcDbVisualStyle
  2
Conceptual
 70
     9
177
     3
291
     0
 70
    58
 90
        3
176
     1
 90
        2
176
     1
 90
        0
176
     1
 90
        0
176
     1
 40
0.6
176
     1
 40
30.0
176
     1
 62
     7
420
 16777215
176
     1
 90
        2
176
     1
 90
        2
176
     1
 62
     7
176
     1
 62
   257
176
     1
 90
        1
176
     1
 90
        1
176
     1
 40
179.0
176
     1
 90
        8
176
     1
 62
     7
176
     1
 40
1.0
176
     1
 90
        1
176
     1
 90
        6
176
     1
 90
        2
176
     1
 62
     7
176
     1
 90
        3
176
     1
 90
        0
176
     1
 90
        0
176
     1
290
     0
176
     1
 90
        1
176
     1
 40
0.0
176
     1
 90
        0
176
     1
290
     0
176
     1
290
     1
176
     1
290
     1
176
     1
290
     0
176
     1
290
     0
176
     1
290
     0
176
     1
290
     0
176
     1
290
     0
176
     1
290
     0
176
     1
 90
       50
176
     1
 40
0.0
176
     1
 40
1.0
176
     1
 90
        0
176
     1
 62
    18
420
        0
176
     1
 90
       50
176
     1
 90
        3
176
     1
 62
     5
420
      255
176
     1
290
     0
176
     1
 90
       50
176
     1
 90
       50
176
     1
 90
       50
176
     1
290
     0
176
     1
 90
       50
176
     1
 62
   256
176
     0
 40
1.0
176
     0
 90
        2
176
     1
  1
strokes_ogs.tif
176
     1
290
     0
176
     1
 40
1.0
176
     1
 40
1.0
176
     1
  0
VISUALSTYLE
  5
34
102
{ACAD_REACTORS
330
29
102
}
330
29
100
AcDbVisualStyle
  2
Dim
 70
    11
177
     3
291
     1
 70
    58
 90
        2
176
     1
 90
        2
176
     1
 90
        0
176
     1
 90
        0
176
     1
 40
0.6
176
     1
 40
30.0
176
     1
 62
     7
420
 16777215
176
     1
 90
        1
176
     1
 90
        4
176
     1
 62
     7
176
     1
 62
   257
176
     1
 90
        1
176
     1
 90
        1
176
     1
 40
1.0
176
     1
 90
        8
176
     1
 62
     7
176
     1
 40
1.0
176
     1
 90
        1
176
     1
 90
        6
176
     1
 90
        2
176
     1
 62
     7
176
     1
 90
        5
176
     1
 90
        0
176
     1
 90
        0
176
     1
290
     0
176
     1
 90
        1
176
     1
 40
-50.0
176
     1
 90
        0
176
     1
290
     0
176
     1
290
     1
176
     1
290
     1
176
     1
290
     0
176
     1
290
     0
176
     1
290
     0
176
     1
290
     0
176
     1
290
     0
176
     1
290
     0
176
     1
 90
       50
176
     1
 40
0.0
176
     1
 40
1.0
176
     1
 90
        0
176
     1
 62
    18
420
        0
176
     1
 90
       50
176
     1
 90
        3
176
     1
 62
     5
420
      255
176
     1
290
     0
176
     1
 90
       50
176
     1
 90
       50
176
     1
 90
       50
176
     1
290
     0
176
     1
 90
       50
176
     1
 62
   256
176
     0
 40
1.0
176
     0
 90
        2
176
     1
  1
strokes_ogs.tif
176
     1
290
     0
176
     1
 40
1.0
176
     1
 40
1.0
176
     1
  0
VISUALSTYLE
  5
41
102
{ACAD_REACTORS
330
29
102
}
330
29
100
AcDbVisualStyle
  2
EdgeColorOff
 70
    22
177
     3
291
     1
 70
    58
 90
        2
176
     0
 90
        2
176
     0
 90
        0
176
     0
 90
        0
176
     0
 40
0.6
176
     0
 40
30.0
176
     0
 62
     7
420
 16777215
176
     0
 90
        1
176
     0
 90
        4
176
     0
 62
     7
176
     0
 62
   257
176
     0
 90
        1
176
     0
 90
        1
176
     0
 40
1.0
176
     0
 90
        8
176
     2
 62
     7
176
     0
 40
1.0
176
     0
 90
        1
176
     0
 90
        6
176
     0
 90
        2
176
     0
 62
     7
176
     0
 90
        5
176
     0
 90
        0
176
     0
 90
        0
176
     0
290
     0
176
     0
 90
        1
176
     0
 40
0.0
176
     0
 90
        0
176
     0
290
     0
176
     0
290
     1
176
     0
290
     1
176
     0
290
     0
176
     0
290
     0
176
     0
290
     0
176
     0
290
     0
176
     0
290
     0
176
     0
290
     0
176
     0
 90
       50
176
     0
 40
0.0
176
     0
 40
1.0
176
     0
 90
        0
176
     0
 62
    18
420
        0
176
     0
 90
       50
176
     0
 90
        3
176
     0
 62
     5
420
      255
176
     0
290
     0
176
     0
 90
       50
176
     0
 90
       50
176
     0
 90
       50
176
     0
290
     0
176
     0
 90
       50
176
     0
 62
   256
176
     0
 40
1.0
176
     0
 90
        2
176
     0
  1
strokes_ogs.tif
176
     0
290
     0
176
     0
 40
1.0
176
     0
 40
1.0
176
     0
  0
VISUALSTYLE
  5
38
102
{ACAD_REACTORS
330
29
102
}
330
29
100
AcDbVisualStyle
  2
Facepattern
 70
    15
177
     3
291
     1
 70
    58
 90
        2
176
     1
 90
        2
176
     1
 90
        0
176
     1
 90
        0
176
     1
 40
0.6
176
     1
 40
30.0
176
     1
 62
     7
420
 16777215
176
     1
 90
        1
176
     1
 90
        4
176
     1
 62
     7
176
     1
 62
   257
176
     1
 90
        1
176
     1
 90
        1
176
     1
 40
1.0
176
     1
 90
        8
176
     1
 62
     7
176
     1
 40
1.0
176
     1
 90
        1
176
     1
 90
        6
176
     1
 90
        2
176
     1
 62
     7
176
     1
 90
        5
176
     1
 90
        0
176
     1
 90
        0
176
     1
290
     0
176
     1
 90
        1
176
     1
 40
0.0
176
     1
 90
        0
176
     1
290
     0
176
     1
290
     1
176
     1
290
     1
176
     1
290
     0
176
     1
290
     0
176
     1
290
     0
176
     1
290
     0
176
     1
290
     0
176
     1
290
     0
176
     1
 90
       50
176
     1
 40
0.0
176
     1
 40
1.0
176
     1
 90
        0
176
     1
 62
    18
420
        0
176
     1
 90
       50
176
     1
 90
        3
176
     1
 62
     5
420
      255
176
     1
290
     0
176
     1
 90
       50
176
     1
 90
       50
176
     1
 90
       50
176
     1
290
     0
176
     1
 90
       50
176
     1
 62
   256
176
     0
 40
1.0
176
     0
 90
        2
176
     1
  1
strokes_ogs.tif
176
     1
290
     0
176
     1
 40
1.0
176
     1
 40
1.0
176
     1
  0
VISUALSTYLE
  5
2A
102
{ACAD_REACTORS
330
29
102
}
330
29
100
AcDbVisualStyle
  2
Flat
 70
     0
177
     3
291
     1
 70
    58
 90
        2
176
     1
 90
        1
176
     1
 90
        1
176
     1
 90
        2
176
     1
 40
0.6
176
     1
 40
30.0
176
     1
 62
     7
420
 16777215
176
     1
 90
        0
176
     1
 90
        0
176
     1
 62
     7
176
     1
 62
   257
176
     1
 90
        1
176
     1
 90
        1
176
     1
 40
1.0
176
     1
 90
        8
176
     1
 62
     7
176
     1
 40
1.0
176
     1
 90
        1
176
     1
 90
        6
176
     1
 90
        2
176
     1
 62
     7
176
     1
 90
        5
176
     1
 90
        0
176
     1
 90
        0
176
     1
290
     0
176
     1
 90
       13
176
     1
 40
0.0
176
     1
 90
        0
176
     1
290
     0
176
     1
290
     1
176
     1
290
     1
176
     1
290
     0
176
     1
290
     0
176
     1
290
     0
176
     1
290
     0
176
     1
290
     0
176
     1
290
     0
176
     1
 90
       50
176
     1
 40
0.0
176
     1
 40
1.0
176
     1
 90
        0
176
     1
 62
    18
420
        0
176
     1
 90
       50
176
     1
 90
        3
176
     1
 62
     5
420
      255
176
     1
290
     0
176
     1
 90
       50
176
     1
 90
       50
176
     1
 90
       50
176
     1
290
     0
176
     1
 90
       50
176
     1
 62
   256
176
     0
 40
1.0
176
     0
 90
        2
176
     1
  1
strokes_ogs.tif
176
     1
290
     0
176
     1
 40
1.0
176
     1
 40
1.0
176
     1
  0
VISUALSTYLE
  5
2B
102
{ACAD_REACTORS
330
29
102
}
330
29
100
AcDbVisualStyle
  2
FlatWithEdges
 70
     1
177
     3
291
     1
 70
    58
 90
        2
176
     1
 90
        1
176
     1
 90
        1
176
     1
 90
        2
176
     1
 40
0.6
176
     1
 40
30.0
176
     1
 62
     7
420
 16777215
176
     1
 90
        1
176
     1
 90
        0
176
     1
 62
     7
176
     1
 62
   257
176
     1
 90
        1
176
     1
 90
        1
176
     1
 40
1.0
176
     1
 90
        0
176
     1
 62
   257
176
     1
 40
1.0
176
     1
 90
        1
176
     1
 90
        6
176
     1
 90
        2
176
     1
 62
     7
176
     1
 90
        5
176
     1
 90
        0
176
     1
 90
        0
176
     1
290
     0
176
     1
 90
       13
176
     1
 40
0.0
176
     1
 90
        0
176
     1
290
     0
176
     1
290
     1
176
     1
290
     1
176
     1
290
     0
176
     1
290
     0
176
     1
290
     0
176
     1
290
     0
176
     1
290
     0
176
     1
290
     0
176
     1
 90
       50
176
     1
 40
0.0
176
     1
 40
1.0
176
     1
 90
        0
176
     1
 62
    18
420
        0
176
     1
 90
       50
176
     1
 90
        3
176
     1
 62
     5
420
      255
176
     1
290
     0
176
     1
 90
       50
176
     1
 90
       50
176
     1
 90
       50
176
     1
290
     0
176
     1
 90
       50
176
     1
 62
   256
176
     0
 40
1.0
176
     0
 90
        2
176
     1
  1
strokes_ogs.tif
176
     1
290
     0
176
     1
 40
1.0
176
     1
 40
1.0
176
     1
  0
VISUALSTYLE
  5
2C
102
{ACAD_REACTORS
330
29
102
}
330
29
100
AcDbVisualStyle
  2
Gouraud
 70
     2
177
     3
291
     1
 70
    58
 90
        2
176
     1
 90
        2
176
     1
 90
        1
176
     1
 90
        2
176
     1
 40
0.6
176
     1
 40
30.0
176
     1
 62
     7
420
 16777215
176
     1
 90
        0
176
     1
 90
        0
176
     1
 62
     7
176
     1
 62
   257
176
     1
 90
        1
176
     1
 90
        1
176
     1
 40
1.0
176
     1
 90
        0
176
     1
 62
     7
176
     1
 40
1.0
176
     1
 90
        1
176
     1
 90
        6
176
     1
 90
        2
176
     1
 62
     7
176
     1
 90
        5
176
     1
 90
        0
176
     1
 90
        0
176
     1
290
     0
176
     1
 90
       13
176
     1
 40
0.0
176
     1
 90
        0
176
     1
290
     0
176
     1
290
     1
176
     1
290
     1
176
     1
290
     0
176
     1
290
     0
176
     1
290
     0
176
     1
290
     0
176
     1
290
     0
176
     1
290
     0
176
     1
 90
       50
176
     1
 40
0.0
176
     1
 40
1.0
176
     1
 90
        0
176
     1
 62
    18
420
        0
176
     1
 90
       50
176
     1
 90
        3
176
     1
 62
     5
420
      255
176
     1
290
     0
176
     1
 90
       50
176
     1
 90
       50
176
     1
 90
       50
176
     1
290
     0
176
     1
 90
       50
176
     1
 62
   256
176
     0
 40
1.0
176
     0
 90
        2
176
     1
  1
strokes_ogs.tif
176
     1
290
     0
176
     1
 40
1.0
176
     1
 40
1.0
176
     1
  0
VISUALSTYLE
  5
2D
102
{ACAD_REACTORS
330
29
102
}
330
29
100
AcDbVisualStyle
  2
GouraudWithEdges
 70
     3
177
     3
291
     1
 70
    58
 90
        2
176
     1
 90
        2
176
     1
 90
        1
176
     1
 90
        2
176
     1
 40
0.6
176
     1
 40
30.0
176
     1
 62
     7
420
 16777215
176
     1
 90
        1
176
     1
 90
        0
176
     1
 62
     7
176
     1
 62
   257
176
     1
 90
        1
176
     1
 90
        1
176
     1
 40
1.0
176
     1
 90
        0
176
     1
 62
   257
176
     1
 40
1.0
176
     1
 90
        1
176
     1
 90
        6
176
     1
 90
        2
176
     1
 62
     7
176
     1
 90
        5
176
     1
 90
        0
176
     1
 90
        0
176
     1
290
     0
176
     1
 90
       13
176
     1
 40
0.0
176
     1
 90
        0
176
     1
290
     0
176
     1
290
     1
176
     1
290
     1
176
     1
290
     0
176
     1
290
     0
176
     1
290
     0
176
     1
290
     0
176
     1
290
     0
176
     1
290
     0
176
     1
 90
       50
176
     1
 40
0.0
176
     1
 40
1.0
176
     1
 90
        0
176
     1
 62
    18
420
        0
176
     1
 90
       50
176
     1
 90
        3
176
     1
 62
     5
420
      255
176
     1
290
     0
176
     1
 90
       50
176
     1
 90
       50
176
     1
 90
       50
176
     1
290
     0
176
     1
 90
       50
176
     1
 62
   256
176
     0
 40
1.0
176
     0
 90
        2
176
     1
  1
strokes_ogs.tif
176
     1
290
     0
176
     1
 40
1.0
176
     1
 40
1.0
176
     1
  0
VISUALSTYLE
  5
31
102
{ACAD_REACTORS
330
29
102
}
330
29
100
AcDbVisualStyle
  2
Hidden
 70
     6
177
     3
291
     0
 70
    58
 90
        1
176
     1
 90
        2
176
     1
 90
        2
176
     1
 90
        0
176
     1
 40
0.6
176
     1
 40
30.0
176
     1
 62
     7
420
 16777215
176
     1
 90
        2
176
     1
 90
        2
176
     1
 62
     7
176
     1
 62
   257
176
     1
 90
        2
176
     1
 90
        1
176
     1
 40
40.0
176
     1
 90
        0
176
     1
 62
   257
176
     1
 40
1.0
176
     1
 90
        1
176
     1
 90
        6
176
     1
 90
        2
176
     1
 62
     7
176
     1
 90
        3
176
     1
 90
        0
176
     1
 90
        0
176
     1
290
     0
176
     1
 90
        1
176
     1
 40
0.0
176
     1
 90
        0
176
     1
290
     0
176
     1
290
     1
176
     1
290
     1
176
     1
290
     0
176
     1
290
     0
176
     1
290
     0
176
     1
290
     0
176
     1
290
     0
176
     1
290
     0
176
     1
 90
       50
176
     1
 40
0.0
176
     1
 40
1.0
176
     1
 90
        0
176
     1
 62
    18
420
        0
176
     1
 90
       50
176
     1
 90
        3
176
     1
 62
     5
420
      255
176
     1
290
     0
176
     1
 90
       50
176
     1
 90
       50
176
     1
 90
       50
176
     1
290
     0
176
     1
 90
       50
176
     1
 62
   256
176
     0
 40
1.0
176
     0
 90
        2
176
     1
  1
strokes_ogs.tif
176
     1
290
     0
176
     1
 40
1.0
176
     1
 40
1.0
176
     1
  0
VISUALSTYLE
  5
3F
102
{ACAD_REACTORS
330
29
102
}
330
29
100
AcDbVisualStyle
  2
JitterOff
 70
    20
177
     3
291
     1
 70
    58
 90
        2
176
     0
 90
        2
176
     0
 90
        0
176
     0
 90
        0
176
     0
 40
0.6
176
     0
 40
30.0
176
     0
 62
     7
420
 16777215
176
     0
 90
        1
176
     0
 90
        4
176
     0
 62
     7
176
     0
 62
   257
176
     0
 90
        1
176
     0
 90
        1
176
     0
 40
1.0
176
     0
 90
       10
176
     2
 62
     7
176
     0
 40
1.0
176
     0
 90
        1
176
     0
 90
        6
176
     0
 90
        2
176
     0
 62
     7
176
     0
 90
        5
176
     0
 90
        0
176
     0
 90
        0
176
     0
290
     0
176
     0
 90
        1
176
     0
 40
0.0
176
     0
 90
        0
176
     0
290
     0
176
     0
290
     1
176
     0
290
     1
176
     0
290
     0
176
     0
290
     0
176
     0
290
     0
176
     0
290
     0
176
     0
290
     0
176
     0
290
     0
176
     0
 90
       50
176
     0
 40
0.0
176
     0
 40
1.0
176
     0
 90
        0
176
     0
 62
    18
420
        0
176
     0
 90
       50
176
     0
 90
        3
176
     0
 62
     5
420
      255
176
     0
290
     0
176
     0
 90
       50
176
     0
 90
       50
176
     0
 90
       50
176
     0
290
     0
176
     0
 90
       50
176
     0
 62
   256
176
     0
 40
1.0
176
     0
 90
        2
176
     0
  1
strokes_ogs.tif
176
     0
290
     0
176
     0
 40
1.0
176
     0
 40
1.0
176
     0
  0
VISUALSTYLE
  5
37
102
{ACAD_REACTORS
330
29
102
}
330
29
100
AcDbVisualStyle
  2
Linepattern
 70
    14
177
     3
291
     1
 70
    58
 90
        2
176
     1
 90
        2
176
     1
 90
        0
176
     1
 90
        0
176
     1
 40
0.6
176
     1
 40
30.0
176
     1
 62
     7
420
 16777215
176
     1
 90
        1
176
     1
 90
        4
176
     1
 62
     7
176
     1
 62
   257
176
     1
 90
        7
176
     1
 90
        7
176
     1
 40
1.0
176
     1
 90
        8
176
     1
 62
     7
176
     1
 40
1.0
176
     1
 90
        1
176
     1
 90
        6
176
     1
 90
        2
176
     1
 62
     7
176
     1
 90
        5
176
     1
 90
        0
176
     1
 90
        0
176
     1
290
     0
176
     1
 90
        1
176
     1
 40
0.0
176
     1
 90
        0
176
     1
290
     0
176
     1
290
     1
176
     1
290
     1
176
     1
290
     0
176
     1
290
     0
176
     1
290
     0
176
     1
290
     0
176
     1
290
     0
176
     1
290
     0
176
     1
 90
       50
176
     1
 40
0.0
176
     1
 40
1.0
176
     1
 90
        0
176
     1
 62
    18
420
        0
176
     1
 90
       50
176
     1
 90
        3
176
     1
 62
     5
420
      255
176
     1
290
     0
176
     1
 90
       50
176
     1
 90
       50
176
     1
 90
       50
176
     1
290
     0
176
     1
 90
       50
176
     1
 62
   256
176
     0
 40
1.0
176
     0
 90
        2
176
     1
  1
strokes_ogs.tif
176
     1
290
     0
176
     1
 40
1.0
176
     1
 40
1.0
176
     1
  0
VISUALSTYLE
  5
40
102
{ACAD_REACTORS
330
29
102
}
330
29
100
AcDbVisualStyle
  2
OverhangOff
 70
    21
177
     3
291
     1
 70
    58
 90
        2
176
     0
 90
        2
176
     0
 90
        0
176
     0
 90
        0
176
     0
 40
0.6
176
     0
 40
30.0
176
     0
 62
     7
420
 16777215
176
     0
 90
        1
176
     0
 90
        4
176
     0
 62
     7
176
     0
 62
   257
176
     0
 90
        1
176
     0
 90
        1
176
     0
 40
1.0
176
     0
 90
        9
176
     2
 62
     7
176
     0
 40
1.0
176
     0
 90
        1
176
     0
 90
        6
176
     0
 90
        2
176
     0
 62
     7
176
     0
 90
        5
176
     0
 90
        0
176
     0
 90
        0
176
     0
290
     0
176
     0
 90
        1
176
     0
 40
0.0
176
     0
 90
        0
176
     0
290
     0
176
     0
290
     1
176
     0
290
     1
176
     0
290
     0
176
     0
290
     0
176
     0
290
     0
176
     0
290
     0
176
     0
290
     0
176
     0
290
     0
176
     0
 90
       50
176
     0
 40
0.0
176
     0
 40
1.0
176
     0
 90
        0
176
     0
 62
    18
420
        0
176
     0
 90
       50
176
     0
 90
        3
176
     0
 62
     5
420
      255
176
     0
290
     0
176
     0
 90
       50
176
     0
 90
       50
176
     0
 90
       50
176
     0
290
     0
176
     0
 90
       50
176
     0
 62
   256
176
     0
 40
1.0
176
     0
 90
        2
176
     0
  1
strokes_ogs.tif
176
     0
290
     0
176
     0
 40
1.0
176
     0
 40
1.0
176
     0
  0
VISUALSTYLE
  5
33
102
{ACAD_REACTORS
330
29
102
}
330
29
100
AcDbVisualStyle
  2
Realistic
 70
     8
177
     3
291
     0
 70
    58
 90
        2
176
     1
 90
        3
176
     1
 90
        0
176
     1
 90
        2
176
     1
 40
0.6
176
     1
 40
30.0
176
     1
 62
     7
420
 16777215
176
     1
 90
        0
176
     1
 90
        0
176
     1
 62
     7
176
     1
 62
   257
176
     1
 90
        1
176
     1
 90
        1
176
     1
 40
1.0
176
     1
 90
        8
176
     1
 62
   257
176
     1
 40
1.0
176
     1
 90
        1
176
     1
 90
        6
176
     1
 90
        2
176
     1
 62
     7
176
     1
 90
        3
176
     1
 90
        0
176
     1
 90
        0
176
     1
290
     0
176
     1
 90
       13
176
     1
 40
0.0
176
     1
 90
        0
176
     1
290
     0
176
     1
290
     1
176
     1
290
     1
176
     1
290
     0
176
     1
290
     0
176
     1
290
     0
176
     1
290
     0
176
     1
290
     0
176
     1
290
     0
176
     1
 90
       50
176
     1
 40
0.0
176
     1
 40
1.0
176
     1
 90
        0
176
     1
 62
    18
420
        0
176
     1
 90
       50
176
     1
 90
        3
176
     1
 62
     5
420
      255
176
     1
290
     0
176
     1
 90
       50
176
     1
 90
       50
176
     1
 90
       50
176
     1
290
     0
176
     1
 90
       50
176
     1
 62
   256
176
     0
 40
1.0
176
     0
 90
        2
176
     1
  1
strokes_ogs.tif
176
     1
290
     0
176
     1
 40
1.0
176
     1
 40
1.0
176
     1
  0
VISUALSTYLE
  5
3E
102
{ACAD_REACTORS
330
29
102
}
330
29
100
AcDbVisualStyle
  2
Shaded
 70
    27
177
     3
291
     0
 70
    58
 90
        2
176
     1
 90
        2
176
     1
 90
        1
176
     1
 90
        2
176
     1
 40
0.6
176
     1
 40
30.0
176
     1
 62
     7
420
 16777215
176
     1
 90
        0
176
     1
 90
        4
176
     1
 62
     7
176
     1
 62
   257
176
     1
 90
        1
176
     1
 90
        1
176
     1
 40
1.0
176
     1
 90
        8
176
     1
 62
   257
176
     1
 40
1.0
176
     1
 90
        1
176
     1
 90
        6
176
     1
 90
        2
176
     1
 62
     8
420
  7895160
176
     1
 90
        3
176
     1
 90
        0
176
     1
 90
        0
176
     1
290
     0
176
     1
 90
        5
176
     1
 40
0.0
176
     1
 90
        0
176
     1
290
     0
176
     1
290
     1
176
     1
290
     1
176
     1
290
     0
176
     1
290
     0
176
     1
290
     0
176
     1
290
     0
176
     1
290
     0
176
     1
290
     0
176
     1
 90
       50
176
     1
 40
0.0
176
     1
 40
1.0
176
     1
 90
        0
176
     1
 62
    18
420
        0
176
     1
 90
       50
176
     1
 90
        3
176
     1
 62
     5
420
      255
176
     1
290
     0
176
     1
 90
       50
176
     1
 90
       50
176
     1
 90
       50
176
     1
290
     0
176
     1
 90
       50
176
     1
 62
   256
176
     0
 40
1.0
176
     0
 90
        2
176
     1
  1
strokes_ogs.tif
176
     1
290
     0
176
     1
 40
1.0
176
     1
 40
1.0
176
     1
  0
VISUALSTYLE
  5
3D
102
{ACAD_REACTORS
330
29
102
}
330
29
100
AcDbVisualStyle
  2
Shaded with edges
 70
    26
177
     3
291
     0
 70
    58
 90
        2
176
     1
 90
        2
176
     1
 90
        1
176
     1
 90
        2
176
     1
 40
0.6
176
     1
 40
30.0
176
     1
 62
     7
420
 16777215
176
     1
 90
        1
176
     1
 90
        2
176
     1
 62
     7
176
     1
 62
   257
176
     1
 90
        2
176
     1
 90
        1
176
     1
 40
1.0
176
     1
 90
        8
176
     1
 62
   257
176
     1
 40
1.0
176
     1
 90
        1
176
     1
 90
        6
176
     1
 90
        2
176
     1
 62
     7
176
     1
 90
        3
176
     1
 90
        0
176
     1
 90
        0
176
     1
290
     0
176
     1
 90
        5
176
     1
 40
0.0
176
     1
 90
        0
176
     1
290
     0
176
     1
290
     1
176
     1
290
     1
176
     1
290
     0
176
     1
290
     0
176
     1
290
     0
176
     1
290
     0
176
     1
290
     0
176
     1
290
     0
176
     1
 90
       50
176
     1
 40
0.0
176
     1
 40
1.0
176
     1
 90
        0
176
     1
 62
    18
420
        0
176
     1
 90
       50
176
     1
 90
        3
176
     1
 62
     5
420
      255
176
     1
290
     0
176
     1
 90
       50
176
     1
 90
       50
176
     1
 90
       50
176
     1
290
     0
176
     1
 90
       50
176
     1
 62
   256
176
     0
 40
1.0
176
     0
 90
        2
176
     1
  1
strokes_ogs.tif
176
     1
290
     0
176
     1
 40
1.0
176
     1
 40
1.0
176
     1
  0
VISUALSTYLE
  5
3A
102
{ACAD_REACTORS
330
29
102
}
330
29
100
AcDbVisualStyle
  2
Shades of Gray
 70
    23
177
     3
291
     0
 70
    58
 90
        2
176
     1
 90
        2
176
     1
 90
        3
176
     1
 90
        0
176
     1
 40
0.6
176
     1
 40
30.0
176
     1
 62
     7
420
 16777215
176
     1
 90
        2
176
     1
 90
        2
176
     1
 62
     7
176
     1
 62
     7
176
     1
 90
        1
176
     1
 90
        1
176
     1
 40
40.0
176
     1
 90
        8
176
     1
 62
     7
176
     1
 40
1.0
176
     1
 90
        1
176
     1
 90
        6
176
     1
 90
        2
176
     1
 62
     7
176
     1
 90
        3
176
     1
 90
        0
176
     1
 90
        0
176
     1
290
     0
176
     1
 90
        1
176
     1
 40
0.0
176
     1
 90
        0
176
     1
290
     0
176
     1
290
     1
176
     1
290
     1
176
     1
290
     0
176
     1
290
     0
176
     1
290
     0
176
     1
290
     0
176
     1
290
     0
176
     1
290
     0
176
     1
 90
       50
176
     1
 40
0.0
176
     1
 40
1.0
176
     1
 90
        0
176
     1
 62
    18
420
        0
176
     1
 90
       50
176
     1
 90
        3
176
     1
 62
     5
420
      255
176
     1
290
     0
176
     1
 90
       50
176
     1
 90
       50
176
     1
 90
       50
176
     1
290
     0
176
     1
 90
       50
176
     1
 62
   256
176
     0
 40
1.0
176
     0
 90
        2
176
     1
  1
strokes_ogs.tif
176
     1
290
     0
176
     1
 40
1.0
176
     1
 40
1.0
176
     1
  0
VISUALSTYLE
  5
3B
102
{ACAD_REACTORS
330
29
102
}
330
29
100
AcDbVisualStyle
  2
Sketchy
 70
    24
177
     3
291
     0
 70
    58
 90
        1
176
     1
 90
        2
176
     1
 90
        2
176
     1
 90
        0
176
     1
 40
0.6
176
     1
 40
30.0
176
     1
 62
     7
420
 16777215
176
     1
 90
        2
176
     1
 90
        2
176
     1
 62
     7
176
     1
 62
     7
176
     1
 90
        1
176
     1
 90
        1
176
     1
 40
40.0
176
     1
 90
       11
176
     1
 62
     7
176
     1
 40
1.0
176
     1
 90
        1
176
     1
 90
        6
176
     1
 90
        2
176
     1
 62
     7
176
     1
 90
        6
176
     1
 90
        0
176
     1
 90
        0
176
     1
290
     0
176
     1
 90
        1
176
     1
 40
0.0
176
     1
 90
        0
176
     1
290
     0
176
     1
290
     1
176
     1
290
     1
176
     1
290
     0
176
     1
290
     0
176
     1
290
     0
176
     1
290
     0
176
     1
290
     0
176
     1
290
     0
176
     1
 90
       50
176
     1
 40
0.0
176
     1
 40
1.0
176
     1
 90
        0
176
     1
 62
    18
420
        0
176
     1
 90
       50
176
     1
 90
        3
176
     1
 62
     5
420
      255
176
     1
290
     0
176
     1
 90
       50
176
     1
 90
       50
176
     1
 90
       50
176
     1
290
     0
176
     1
 90
       50
176
     1
 62
   256
176
     0
 40
1.0
176
     0
 90
        2
176
     1
  1
strokes_ogs.tif
176
     1
290
     0
176
     1
 40
1.0
176
     1
 40
1.0
176
     1
  0
VISUALSTYLE
  5
36
102
{ACAD_REACTORS
330
29
102
}
330
29
100
AcDbVisualStyle
  2
Thicken
 70
    13
177
     3
291
     1
 70
    58
 90
        2
176
     1
 90
        2
176
     1
 90
        0
176
     1
 90
        0
176
     1
 40
0.6
176
     1
 40
30.0
176
     1
 62
     7
420
 16777215
176
     1
 90
        1
176
     1
 90
        4
176
     1
 62
     7
176
     1
 62
   257
176
     1
 90
        1
176
     1
 90
        1
176
     1
 40
1.0
176
     1
 90
       12
176
     1
 62
     7
176
     1
 40
1.0
176
     1
 90
        1
176
     1
 90
        6
176
     1
 90
        2
176
     1
 62
     7
176
     1
 90
        5
176
     1
 90
        0
176
     1
 90
        0
176
     1
290
     0
176
     1
 90
        1
176
     1
 40
0.0
176
     1
 90
        0
176
     1
290
     0
176
     1
290
     1
176
     1
290
     1
176
     1
290
     0
176
     1
290
     0
176
     1
290
     0
176
     1
290
     0
176
     1
290
     0
176
     1
290
     0
176
     1
 90
       50
176
     1
 40
0.0
176
     1
 40
1.0
176
     1
 90
        0
176
     1
 62
    18
420
        0
176
     1
 90
       50
176
     1
 90
        3
176
     1
 62
     5
420
      255
176
     1
290
     0
176
     1
 90
       50
176
     1
 90
       50
176
     1
 90
       50
176
     1
290
     0
176
     1
 90
       50
176
     1
 62
   256
176
     0
 40
1.0
176
     0
 90
        2
176
     1
  1
strokes_ogs.tif
176
     1
290
     0
176
     1
 40
1.0
176
     1
 40
1.0
176
     1
  0
VISUALSTYLE
  5
30
102
{ACAD_REACTORS
330
29
102
}
330
29
100
AcDbVisualStyle
  2
Wireframe
 70
     5
177
     3
291
     0
 70
    58
 90
        0
176
     1
 90
        2
176
     1
 90
        0
176
     1
 90
        0
176
     1
 40
0.6
176
     1
 40
30.0
176
     1
 62
     7
420
 16777215
176
     1
 90
        1
176
     1
 90
        4
176
     1
 62
     7
176
     1
 62
   257
176
     1
 90
        1
176
     1
 90
        1
176
     1
 40
1.0
176
     1
 90
        0
176
     1
 62
   257
176
     1
 40
1.0
176
     1
 90
        1
176
     1
 90
        6
176
     1
 90
        2
176
     1
 62
     7
176
     1
 90
        3
176
     1
 90
        0
176
     1
 90
        0
176
     1
290
     0
176
     1
 90
        1
176
     1
 40
0.0
176
     1
 90
        0
176
     1
290
     0
176
     1
290
     1
176
     1
290
     1
176
     1
290
     0
176
     1
290
     0
176
     1
290
     0
176
     1
290
     0
176
     1
290
     0
176
     1
290
     0
176
     1
 90
       50
176
     1
 40
0.0
176
     1
 40
1.0
176
     1
 90
        0
176
     1
 62
    18
420
        0
176
     1
 90
       50
176
     1
 90
        3
176
     1
 62
     5
420
      255
176
     1
290
     0
176
     1
 90
       50
176
     1
 90
       50
176
     1
 90
       50
176
     1
290
     0
176
     1
 90
       50
176
     1
 62
   256
176
     0
 40
1.0
176
     0
 90
        2
176
     1
  1
strokes_ogs.tif
176
     1
290
     0
176
     1
 40
1.0
176
     1
 40
1.0
176
     1
  0
VISUALSTYLE
  5
3C
102
{ACAD_REACTORS
330
29
102
}
330
29
100
AcDbVisualStyle
  2
X-Ray
 70
    25
177
     3
291
     0
 70
    58
 90
        2
176
     1
 90
        2
176
     1
 90
        1
176
     1
 90
        1
176
     1
 40
0.5
176
     1
 40
30.0
176
     1
 62
     7
420
 16777215
176
     1
 90
        1
176
     1
 90
        0
176
     1
 62
     7
176
     1
 62
   257
176
     1
 90
        1
176
     1
 90
        1
176
     1
 40
1.0
176
     1
 90
        8
176
     1
 62
     7
176
     1
 40
1.0
176
     1
 90
        1
176
     1
 90
        6
176
     1
 90
        2
176
     1
 62
     7
176
     1
 90
        3
176
     1
 90
        0
176
     1
 90
        0
176
     1
290
     0
176
     1
 90
       13
176
     1
 40
0.0
176
     1
 90
        0
176
     1
290
     0
176
     1
290
     1
176
     1
290
     1
176
     1
290
     0
176
     1
290
     0
176
     1
290
     0
176
     1
290
     0
176
     1
290
     0
176
     1
290
     0
176
     1
 90
       50
176
     1
 40
0.0
176
     1
 40
1.0
176
     1
 90
        0
176
     1
 62
    18
420
        0
176
     1
 90
       50
176
     1
 90
        3
176
     1
 62
     5
420
      255
176
     1
290
     0
176
     1
 90
       50
176
     1
 90
       50
176
     1
 90
       50
176
     1
290
     0
176
     1
 90
       50
176
     1
 62
   256
176
     0
 40
1.0
176
     0
 90
        2
176
     1
  1
strokes_ogs.tif
176
     1
290
     0
176
     1
 40
1.0
176
     1
 40
1.0
176
     1
  0
DICTIONARYVAR
  5
80
102
{ACAD_REACTORS
330
7B
102
}
330
7B
100
DictionaryVariables
280
     0
  1
1:1
  0
DICTIONARYVAR
  5
7D
102
{ACAD_REACTORS
330
7B
102
}
330
7B
100
DictionaryVariables
280
     0
  1
STANDARD
  0
DICTIONARYVAR
  5
7C
102
{ACAD_REACTORS
330
7B
102
}
330
7B
100
DictionaryVariables
280
     0
  1
STANDARD
  0
DICTIONARYVAR
  5
7E
102
{ACAD_REACTORS
330
7B
102
}
330
7B
100
DictionaryVariables
280
     0
  1
Imperial24
  0
DICTIONARYVAR
  5
7F
102
{ACAD_REACTORS
330
7B
102
}
330
7B
100
DictionaryVariables
280
     0
  1
Imperial24
  0
XRECORD
  5
154
102
{ACAD_REACTORS
330
14E
102
}
330
14E
100
AcDbXrecord
280
     1
  1
BUILDING_ID
  1
Projet8
  1
FLOOR_ID
  1
609
  0
XRECORD
  5
152
102
{ACAD_REACTORS
330
14E
102
}
330
14E
100
AcDbXrecord
280
     1
  1
-2000011
  1
Murs
  1
-2000014
  1
Fenêtres
  1
-2000200
  1
Coupes
  1
-2000535
  1
Elévations
  0
XRECORD
  5
14F
102
{ACAD_REACTORS
330
14E
102
}
330
14E
100
AcDbXrecord
280
     1
  1
3a93425c-2300-4028-ba88-1ea9f379db3b
  0
XRECORD
  5
153
102
{ACAD_REACTORS
330
14E
102
}
330
14E
100
AcDbXrecord
280
     1
  1
-2000016
  1
Verre
  1
-2000018
  1
Cadre/Meneau
  1
-2000020
  1
Appui/Linteau
  1
135838
  1
Tapées
  0
XRECORD
  5
151
102
{ACAD_REACTORS
330
14E
102
}
330
14E
100
AcDbXrecord
280
     1
  1
255852
  1
1 Vantail - Droit : 0.60 m x 0.95 m - Appui en aluminium (2.00m large)
  1
29331
  1
Mur de base : Générique - Ext. 200 mm : Générique - Ext. 200 mm
  1
583
  1
Coupe : Coupe du bâtiment
  1
590
  1
Elévation : Elévation
  0
DICTIONARY
  5
1A
330
19
100
AcDbDictionary
280
     1
281
     1
  3
BUMPTILE
360
1C
  3
DIFFUSETILE
360
1B
  3
OPACITYTILE
360
1F
  3
REFLECTIONTILE
360
1E
  3
REFRACTIONTILE
360
20
  3
SPECULARTILE
360
1D
  0
DICTIONARY
  5
12
330
11
100
AcDbDictionary
280
     1
281
     1
  3
BUMPTILE
360
14
  3
DIFFUSETILE
360
13
  3
OPACITYTILE
360
17
  3
REFLECTIONTILE
360
16
  3
REFRACTIONTILE
360
18
  3
SPECULARTILE
360
15
  0
DICTIONARY
  5
22
330
21
100
AcDbDictionary
280
     1
281
     1
  3
BUMPTILE
360
24
  3
DIFFUSETILE
360
23
  3
OPACITYTILE
360
27
  3
REFLECTIONTILE
360
26
  3
REFRACTIONTILE
360
28
  3
SPECULARTILE
360
25
  0
DICTIONARY
  5
159
330
65
100
AcDbDictionary
280
     1
281
     1
  3
ACAD_ROUNDTRIP_2008_TABLESTYLE_CELLSTYLEMAP
360
15A
  0
XRECORD
  5
1C
102
{ACAD_REACTORS
330
1A
102
}
330
1A
100
AcDbXrecord
280
     1
270
     1
271
     1
  0
XRECORD
  5
1B
102
{ACAD_REACTORS
330
1A
102
}
330
1A
100
AcDbXrecord
280
     1
270
     1
271
     1
  0
XRECORD
  5
1F
102
{ACAD_REACTORS
330
1A
102
}
330
1A
100
AcDbXrecord
280
     1
270
     1
271
     1
  0
XRECORD
  5
1E
102
{ACAD_REACTORS
330
1A
102
}
330
1A
100
AcDbXrecord
280
     1
270
     1
271
     1
  0
XRECORD
  5
20
102
{ACAD_REACTORS
330
1A
102
}
330
1A
100
AcDbXrecord
280
     1
270
     1
271
     1
  0
XRECORD
  5
1D
102
{ACAD_REACTORS
330
1A
102
}
330
1A
100
AcDbXrecord
280
     1
270
     1
271
     1
  0
XRECORD
  5
14
102
{ACAD_REACTORS
330
12
102
}
330
12
100
AcDbXrecord
280
     1
270
     1
271
     1
  0
XRECORD
  5
13
102
{ACAD_REACTORS
330
12
102
}
330
12
100
AcDbXrecord
280
     1
270
     1
271
     1
  0
XRECORD
  5
17
102
{ACAD_REACTORS
330
12
102
}
330
12
100
AcDbXrecord
280
     1
270
     1
271
     1
  0
XRECORD
  5
16
102
{ACAD_REACTORS
330
12
102
}
330
12
100
AcDbXrecord
280
     1
270
     1
271
     1
  0
XRECORD
  5
18
102
{ACAD_REACTORS
330
12
102
}
330
12
100
AcDbXrecord
280
     1
270
     1
271
     1
  0
XRECORD
  5
15
102
{ACAD_REACTORS
330
12
102
}
330
12
100
AcDbXrecord
280
     1
270
     1
271
     1
  0
XRECORD
  5
24
102
{ACAD_REACTORS
330
22
102
}
330
22
100
AcDbXrecord
280
     1
270
     1
271
     1
  0
XRECORD
  5
23
102
{ACAD_REACTORS
330
22
102
}
330
22
100
AcDbXrecord
280
     1
270
     1
271
     1
  0
XRECORD
  5
27
102
{ACAD_REACTORS
330
22
102
}
330
22
100
AcDbXrecord
280
     1
270
     1
271
     1
  0
XRECORD
  5
26
102
{ACAD_REACTORS
330
22
102
}
330
22
100
AcDbXrecord
280
     1
270
     1
271
     1
  0
XRECORD
  5
28
102
{ACAD_REACTORS
330
22
102
}
330
22
100
AcDbXrecord
280
     1
270
     1
271
     1
  0
XRECORD
  5
25
102
{ACAD_REACTORS
330
22
102
}
330
22
100
AcDbXrecord
280
     1
270
     1
271
     1
  0
CELLSTYLEMAP
  5
15A
102
{ACAD_REACTORS
330
159
102
}
330
159
100
AcDbCellStyleMap
 90
        3
300
CELLSTYLE
  1
TABLEFORMAT_BEGIN
 90
        5
170
     1
 91
        0
 92
    32768
 62
   257
 93
        1
300
CONTENTFORMAT
  1
CONTENTFORMAT_BEGIN
 90
        0
 91
        0
 92
      512
 93
        0
300

 40
0.0
140
1.0
 94
        5
 62
     0
340
55
144
0.25
309
CONTENTFORMAT_END
171
     0
 94
        0
309
TABLEFORMAT_END
  1
CELLSTYLE_BEGIN
 90
        1
 91
        1
300
_TITLE
309
CELLSTYLE_END
300
CELLSTYLE
  1
TABLEFORMAT_BEGIN
 90
        5
170
     1
 91
        0
 92
        0
 62
   257
 93
        1
300
CONTENTFORMAT
  1
CONTENTFORMAT_BEGIN
 90
        0
 91
        0
 92
      512
 93
        0
300

 40
0.0
140
1.0
 94
        5
 62
     0
340
55
144
0.18
309
CONTENTFORMAT_END
171
     0
 94
        0
309
TABLEFORMAT_END
  1
CELLSTYLE_BEGIN
 90
        2
 91
        1
300
_HEADER
309
CELLSTYLE_END
300
CELLSTYLE
  1
TABLEFORMAT_BEGIN
 90
        5
170
     1
 91
        0
 92
        0
 62
   257
 93
        1
300
CONTENTFORMAT
  1
CONTENTFORMAT_BEGIN
 90
        0
 91
        0
 92
      512
 93
        0
300

 40
0.0
140
1.0
 94
        2
 62
     0
340
55
144
0.18
309
CONTENTFORMAT_END
171
     0
 94
        0
309
TABLEFORMAT_END
  1
CELLSTYLE_BEGIN
 90
        3
 91
        2
300
_DATA
309
CELLSTYLE_END
  0
ENDSEC
  0
EOF
