  0
SECTION
  2
HEADER
  9
$ACADVER
  1
AC1032
  9
$ACADMAINTVER
 90
      329
  9
$DWGCODEPAGE
  3
ANSI_1252
  9
$REQUIREDVERSIONS
160
                 0
  9
$INSBASE
 10
0.0
 20
0.0
 30
0.0
  9
$EXTMIN
 10
-6118.069306400009
 20
-1669.200000000027
 30
0.0
  9
$EXTMAX
 10
16025.83180093553
 20
8417.728137423832
 30
0.0
  9
$LIMMIN
 10
0.0
 20
0.0
  9
$LIMMAX
 10
12.0
 20
9.0
  9
$ORTHOMODE
 70
     0
  9
$REGENMODE
 70
     1
  9
$FILLMODE
 70
     1
  9
$QTEXTMODE
 70
     0
  9
$MIRRTEXT
 70
     0
  9
$LTSCALE
 40
1.0
  9
$ATTMODE
 70
     1
  9
$TEXTSIZE
 40
0.2
  9
$TRACEWID
 40
0.05
  9
$TEXTSTYLE
  7
Standard
  9
$CLAYER
  8
0
  9
$CELTYPE
  6
ByLayer
  9
$CECOLOR
 62
   256
  9
$CELTSCALE
 40
1.0
  9
$DISPSILH
 70
     0
  9
$DIMSCALE
 40
1.0
  9
$DIMASZ
 40
0.18
  9
$DIMEXO
 40
0.0625
  9
$DIMDLI
 40
0.38
  9
$DIMRND
 40
0.0
  9
$DIMDLE
 40
0.0
  9
$DIMEXE
 40
0.18
  9
$DIMTP
 40
0.0
  9
$DIMTM
 40
0.0
  9
$DIMTXT
 40
0.18
  9
$DIMCEN
 40
0.09
  9
$DIMTSZ
 40
0.0
  9
$DIMTOL
 70
     0
  9
$DIMLIM
 70
     0
  9
$DIMTIH
 70
     1
  9
$DIMTOH
 70
     1
  9
$DIMSE1
 70
     0
  9
$DIMSE2
 70
     0
  9
$DIMTAD
 70
     0
  9
$DIMZIN
 70
     0
  9
$DIMBLK
  1

  9
$DIMASO
 70
     1
  9
$DIMSHO
 70
     1
  9
$DIMPOST
  1

  9
$DIMAPOST
  1

  9
$DIMALT
 70
     0
  9
$DIMALTD
 70
     2
  9
$DIMALTF
 40
25.4
  9
$DIMLFAC
 40
1.0
  9
$DIMTOFL
 70
     0
  9
$DIMTVP
 40
0.0
  9
$DIMTIX
 70
     0
  9
$DIMSOXD
 70
     0
  9
$DIMSAH
 70
     0
  9
$DIMBLK1
  1

  9
$DIMBLK2
  1

  9
$DIMSTYLE
  2
Standard
  9
$DIMCLRD
 70
     0
  9
$DIMCLRE
 70
     0
  9
$DIMCLRT
 70
     0
  9
$DIMTFAC
 40
1.0
  9
$DIMGAP
 40
0.09
  9
$DIMJUST
 70
     0
  9
$DIMSD1
 70
     0
  9
$DIMSD2
 70
     0
  9
$DIMTOLJ
 70
     1
  9
$DIMTZIN
 70
     0
  9
$DIMALTZ
 70
     0
  9
$DIMALTTZ
 70
     0
  9
$DIMUPT
 70
     0
  9
$DIMDEC
 70
     4
  9
$DIMTDEC
 70
     4
  9
$DIMALTU
 70
     2
  9
$DIMALTTD
 70
     2
  9
$DIMTXSTY
  7
Standard
  9
$DIMAUNIT
 70
     0
  9
$DIMADEC
 70
     0
  9
$DIMALTRND
 40
0.0
  9
$DIMAZIN
 70
     0
  9
$DIMDSEP
 70
    46
  9
$DIMATFIT
 70
     3
  9
$DIMFRAC
 70
     0
  9
$DIMLDRBLK
  1

  9
$DIMLUNIT
 70
     2
  9
$DIMLWD
 70
    -2
  9
$DIMLWE
 70
    -2
  9
$DIMTMOVE
 70
     0
  9
$DIMFXL
 40
1.0
  9
$DIMFXLON
 70
     0
  9
$DIMJOGANG
 40
0.7853981633974483
  9
$DIMTFILL
 70
     0
  9
$DIMTFILLCLR
 70
     0
  9
$DIMARCSYM
 70
     0
  9
$DIMLTYPE
  6

  9
$DIMLTEX1
  6

  9
$DIMLTEX2
  6

  9
$DIMTXTDIRECTION
 70
     0
  9
$LUNITS
 70
     2
  9
$LUPREC
 70
     4
  9
$SKETCHINC
 40
0.1
  9
$FILLETRAD
 40
0.0
  9
$AUNITS
 70
     0
  9
$AUPREC
 70
     0
  9
$MENU
  1
.
  9
$ELEVATION
 40
0.0
  9
$PELEVATION
 40
0.0
  9
$THICKNESS
 40
0.0
  9
$LIMCHECK
 70
     0
  9
$CHAMFERA
 40
0.0
  9
$CHAMFERB
 40
0.0
  9
$CHAMFERC
 40
0.0
  9
$CHAMFERD
 40
0.0
  9
$SKPOLY
 70
     0
  9
$TDCREATE
 40
2461174.938993055
  9
$TDUCREATE
 40
2461174.855659723
  9
$TDUPDATE
 40
2461174.938993055
  9
$TDUUPDATE
 40
2461174.855659723
  9
$TDINDWG
 40
0.0000000000
  9
$TDUSRTIMER
 40
0.0000000000
  9
$USRTIMER
 70
     1
  9
$ANGBASE
 50
0.0
  9
$ANGDIR
 70
     0
  9
$PDMODE
 70
     0
  9
$PDSIZE
 40
0.0
  9
$PLINEWID
 40
0.0
  9
$SPLFRAME
 70
     0
  9
$SPLINETYPE
 70
     6
  9
$SPLINESEGS
 70
     8
  9
$HANDSEED
  5
1C8
  9
$SURFTAB1
 70
     6
  9
$SURFTAB2
 70
     6
  9
$SURFTYPE
 70
     6
  9
$SURFU
 70
     6
  9
$SURFV
 70
     6
  9
$UCSBASE
  2

  9
$UCSNAME
  2

  9
$UCSORG
 10
0.0
 20
0.0
 30
0.0
  9
$UCSXDIR
 10
1.0
 20
0.0
 30
0.0
  9
$UCSYDIR
 10
0.0
 20
1.0
 30
0.0
  9
$UCSORTHOREF
  2

  9
$UCSORTHOVIEW
 70
     0
  9
$UCSORGTOP
 10
0.0
 20
0.0
 30
0.0
  9
$UCSORGBOTTOM
 10
0.0
 20
0.0
 30
0.0
  9
$UCSORGLEFT
 10
0.0
 20
0.0
 30
0.0
  9
$UCSORGRIGHT
 10
0.0
 20
0.0
 30
0.0
  9
$UCSORGFRONT
 10
0.0
 20
0.0
 30
0.0
  9
$UCSORGBACK
 10
0.0
 20
0.0
 30
0.0
  9
$PUCSBASE
  2

  9
$PUCSNAME
  2

  9
$PUCSORG
 10
0.0
 20
0.0
 30
0.0
  9
$PUCSXDIR
 10
1.0
 20
0.0
 30
0.0
  9
$PUCSYDIR
 10
0.0
 20
1.0
 30
0.0
  9
$PUCSORTHOREF
  2

  9
$PUCSORTHOVIEW
 70
     0
  9
$PUCSORGTOP
 10
0.0
 20
0.0
 30
0.0
  9
$PUCSORGBOTTOM
 10
0.0
 20
0.0
 30
0.0
  9
$PUCSORGLEFT
 10
0.0
 20
0.0
 30
0.0
  9
$PUCSORGRIGHT
 10
0.0
 20
0.0
 30
0.0
  9
$PUCSORGFRONT
 10
0.0
 20
0.0
 30
0.0
  9
$PUCSORGBACK
 10
0.0
 20
0.0
 30
0.0
  9
$USERI1
 70
     0
  9
$USERI2
 70
     0
  9
$USERI3
 70
     0
  9
$USERI4
 70
     0
  9
$USERI5
 70
     0
  9
$USERR1
 40
0.0
  9
$USERR2
 40
0.0
  9
$USERR3
 40
0.0
  9
$USERR4
 40
0.0
  9
$USERR5
 40
0.0
  9
$WORLDVIEW
 70
     1
  9
$SHADEDGE
 70
     3
  9
$SHADEDIF
 70
    70
  9
$TILEMODE
 70
     1
  9
$MAXACTVP
 70
    64
  9
$PINSBASE
 10
0.0
 20
0.0
 30
0.0
  9
$PLIMCHECK
 70
     0
  9
$PEXTMIN
 10
1.000000000000000E+20
 20
1.000000000000000E+20
 30
1.000000000000000E+20
  9
$PEXTMAX
 10
-1.000000000000000E+20
 20
-1.000000000000000E+20
 30
-1.000000000000000E+20
  9
$PLIMMIN
 10
0.0
 20
0.0
  9
$PLIMMAX
 10
12.0
 20
9.0
  9
$UNITMODE
 70
     0
  9
$VISRETAIN
 70
     1
  9
$PLINEGEN
 70
     0
  9
$PSLTSCALE
 70
     1
  9
$TREEDEPTH
 70
  3020
  9
$CMLSTYLE
  2
Standard
  9
$CMLJUST
 70
     0
  9
$CMLSCALE
 40
1.0
  9
$PROXYGRAPHICS
 70
     1
  9
$MEASUREMENT
 70
     1
  9
$CELWEIGHT
370
    -1
  9
$ENDCAPS
280
     0
  9
$JOINSTYLE
280
     0
  9
$LWDISPLAY
290
     0
  9
$INSUNITS
 70
     4
  9
$HYPERLINKBASE
  1

  9
$STYLESHEET
  1

  9
$XEDIT
290
     1
  9
$CEPSNTYPE
380
     0
  9
$PSTYLEMODE
290
     1
  9
$FINGERPRINTGUID
  2
{5ADA6C63-D6C2-7E48-AEF1-D0FA2128754A}
  9
$VERSIONGUID
  2
{377C776E-B68F-6E49-AD48-6930E6C99719}
  9
$EXTNAMES
290
     1
  9
$PSVPSCALE
 40
0.0
  9
$OLESTARTUP
290
     0
  9
$SORTENTS
280
   127
  9
$INDEXCTL
280
     0
  9
$HIDETEXT
280
     1
  9
$XCLIPFRAME
280
     2
  9
$HALOGAP
280
     0
  9
$OBSCOLOR
 70
   257
  9
$OBSLTYPE
280
     0
  9
$INTERSECTIONDISPLAY
280
     0
  9
$INTERSECTIONCOLOR
 70
   257
  9
$DIMASSOC
280
     2
  9
$PROJECTNAME
  1

  9
$CAMERADISPLAY
290
     0
  9
$LENSLENGTH
 40
50.0
  9
$CAMERAHEIGHT
 40
0.0
  9
$STEPSPERSEC
 40
2.0
  9
$STEPSIZE
 40
6.0
  9
$3DDWFPREC
 40
2.0
  9
$PSOLWIDTH
 40
0.25
  9
$PSOLHEIGHT
 40
4.0
  9
$LOFTANG1
 40
1.570796326794896
  9
$LOFTANG2
 40
1.570796326794896
  9
$LOFTMAG1
 40
0.0
  9
$LOFTMAG2
 40
0.0
  9
$LOFTPARAM
 70
     7
  9
$LOFTNORMALS
280
     1
  9
$LATITUDE
 40
37.795
  9
$LONGITUDE
 40
-122.394
  9
$NORTHDIRECTION
 40
0.0
  9
$TIMEZONE
 70
 -8000
  9
$LIGHTGLYPHDISPLAY
280
     1
  9
$TILEMODELIGHTSYNCH
280
     1
  9
$CMATERIAL
347
11
  9
$SOLIDHIST
280
     0
  9
$SHOWHIST
280
     1
  9
$DWFFRAME
280
     2
  9
$DGNFRAME
280
     0
  9
$REALWORLDSCALE
290
     1
  9
$INTERFERECOLOR
 62
     1
  9
$INTERFEREOBJVS
345
33
  9
$INTERFEREVPVS
346
30
  9
$CSHADOW
280
     0
  9
$SHADOWPLANELOCATION
 40
0.0
  0
ENDSEC
  0
SECTION
  2
CLASSES
  0
CLASS
  1
ACDBDICTIONARYWDFLT
  2
AcDbDictionaryWithDefault
  3
ObjectDBX Classes
 90
        0
 91
        1
280
     0
281
     0
  0
CLASS
  1
MATERIAL
  2
AcDbMaterial
  3
ObjectDBX Classes
 90
     1153
 91
        3
280
     0
281
     0
  0
CLASS
  1
VISUALSTYLE
  2
AcDbVisualStyle
  3
ObjectDBX Classes
 90
     4095
 91
       24
280
     0
281
     0
  0
CLASS
  1
SCALE
  2
AcDbScale
  3
ObjectDBX Classes
 90
     1153
 91
       17
280
     0
281
     0
  0
CLASS
  1
TABLESTYLE
  2
AcDbTableStyle
  3
ObjectDBX Classes
 90
     4095
 91
        1
280
     0
281
     0
  0
CLASS
  1
MLEADERSTYLE
  2
AcDbMLeaderStyle
  3
ACDB_MLEADERSTYLE_CLASS
 90
     4095
 91
        1
280
     0
281
     0
  0
CLASS
  1
ACDBSECTIONVIEWSTYLE
  2
AcDbSectionViewStyle
  3
ObjectDBX Classes
 90
     1025
 91
        1
280
     0
281
     0
  0
CLASS
  1
ACDBDETAILVIEWSTYLE
  2
AcDbDetailViewStyle
  3
ObjectDBX Classes
 90
     1025
 91
        1
280
     0
281
     0
  0
CLASS
  1
RASTERVARIABLES
  2
AcDbRasterVariables
  3
ISM
 90
        0
 91
        1
280
     0
281
     0
  0
CLASS
  1
DICTIONARYVAR
  2
AcDbDictionaryVar
  3
ObjectDBX Classes
 90
        0
 91
        5
280
     0
281
     0
  0
CLASS
  1
CELLSTYLEMAP
  2
AcDbCellStyleMap
  3
ObjectDBX Classes
 90
     1152
 91
        2
280
     0
281
     0
  0
CLASS
  1
SORTENTSTABLE
  2
AcDbSortentsTable
  3
ObjectDBX Classes
 90
        0
 91
        1
280
     0
281
     0
  0
ENDSEC
  0
SECTION
  2
TABLES
  0
TABLE
  2
VPORT
  5
8
330
0
100
AcDbSymbolTable
 70
     1
  0
VPORT
  5
57
330
8
100
AcDbSymbolTableRecord
100
AcDbViewportTableRecord
  2
*Active
 70
     0
 10
0.0
 20
0.0
 11
1.0
 21
1.0
 12
4953.881247267759
 22
3374.264068711902
 13
0.0
 23
0.0
 14
1.0
 24
1.0
 15
0.0
 25
0.0
 16
0.0
 26
0.0
 36
1.0
 17
0.0
 27
0.0
 37
0.0
 40
10086.92813742386
 41
2.195306718323756
 42
50.0
 43
0.0
 44
0.0
 50
0.0
 51
0.0
 71
     0
 72
  1000
 73
     1
 74
     1
 75
     0
 76
     0
 77
     0
 78
     0
281
     0
 65
     1
110
0.0
120
0.0
130
0.0
111
1.0
121
0.0
131
0.0
112
0.0
122
1.0
132
0.0
 79
     0
146
0.0
 60
     3
 61
     5
292
     1
282
     1
141
0.0
142
0.0
 63
   250
421
  3355443
  0
ENDTAB
  0
TABLE
  2
LTYPE
  5
5
330
0
100
AcDbSymbolTable
 70
     3
  0
LTYPE
  5
5B
330
5
100
AcDbSymbolTableRecord
100
AcDbLinetypeTableRecord
  2
ByBlock
 70
     0
  3

 72
    65
 73
     0
 40
0.0
  0
LTYPE
  5
5C
330
5
100
AcDbSymbolTableRecord
100
AcDbLinetypeTableRecord
  2
ByLayer
 70
     0
  3

 72
    65
 73
     0
 40
0.0
  0
LTYPE
  5
5D
330
5
100
AcDbSymbolTableRecord
100
AcDbLinetypeTableRecord
  2
Continuous
 70
     0
  3
Solid line
 72
    65
 73
     0
 40
0.0
  0
LTYPE
  5
AF
330
5
100
AcDbSymbolTableRecord
100
AcDbLinetypeTableRecord
  2
Centre
 70
     0
  3

 72
    65
 73
     4
 40
12.5
 49
2.5
 74
     0
 49
-1.874999999999999
 74
     0
 49
6.25
 74
     0
 49
-1.874999999999999
 74
     0
  0
LTYPE
  5
174
330
5
100
AcDbSymbolTableRecord
100
AcDbLinetypeTableRecord
  2
Tiret point
 70
     0
  3

 72
    65
 73
     4
 40
6.25
 49
2.5
 74
     0
 49
-1.874999999999999
 74
     0
 49
0.0
 74
     0
 49
-1.874999999999999
 74
     0
  0
ENDTAB
  0
TABLE
  2
LAYER
  5
2
330
0
100
AcDbSymbolTable
 70
     8
  0
LAYER
  5
54
330
2
100
AcDbSymbolTableRecord
100
AcDbLayerTableRecord
  2
0
 70
     0
 62
     7
  6
Continuous
370
    -3
390
F
347
21
348
0
  0
LAYER
  5
84
330
2
100
AcDbSymbolTableRecord
100
AcDbLayerTableRecord
  2
A-WALL
 70
     0
 62
   113
  6
Continuous
370
    13
390
F
347
21
348
0
  0
LAYER
  5
85
330
2
100
AcDbSymbolTableRecord
100
AcDbLayerTableRecord
  2
A-GLAZ
 70
     0
 62
   151
  6
Continuous
370
    13
390
F
347
21
348
0
  0
LAYER
  5
86
330
2
100
AcDbSymbolTableRecord
100
AcDbLayerTableRecord
  2
A-FLOR
 70
     0
 62
   192
  6
Continuous
370
    13
390
F
347
21
348
0
  0
LAYER
  5
C6
330
2
100
AcDbSymbolTableRecord
100
AcDbLayerTableRecord
  2
A-GLAZ-SILL
 70
     0
 62
     1
  6
Continuous
370
    13
390
F
347
21
348
0
  0
LAYER
  5
14F
330
2
100
AcDbSymbolTableRecord
100
AcDbLayerTableRecord
  2
A-FLOR-PATT
 70
     0
 62
     8
  6
Continuous
370
    13
390
F
347
21
348
0
  0
LAYER
  5
165
330
2
100
AcDbSymbolTableRecord
100
AcDbLayerTableRecord
  2
A-FLOR-LEVL
 70
     0
 62
    51
  6
Continuous
370
    30
390
F
347
21
348
0
  0
LAYER
  5
17E
330
2
100
AcDbSymbolTableRecord
100
AcDbLayerTableRecord
  2
G-ANNO-SYMB
 70
     0
 62
   111
  6
Continuous
370
    30
390
F
347
21
348
0
  0
ENDTAB
  0
TABLE
  2
STYLE
  5
3
330
0
100
AcDbSymbolTable
 70
     4
  0
STYLE
  5
55
330
3
100
AcDbSymbolTableRecord
100
AcDbTextStyleTableRecord
  2
Standard
 70
     0
 40
0.0
 41
1.0
 50
0.0
 71
     0
 42
0.2
  3
txt
  4

  0
STYLE
  5
5A
330
3
100
AcDbSymbolTableRecord
100
AcDbTextStyleTableRecord
  2
Annotative
 70
     0
 40
0.0
 41
1.0
 50
0.0
 71
     0
 42
0.2
  3
txt
  4

1001
AcadAnnotative
1000
AnnotativeData
1002
{
1070
     1
1070
     1
1002
}
  0
STYLE
  5
171
330
3
100
AcDbSymbolTableRecord
100
AcDbTextStyleTableRecord
  2
Trebuchet MS
 70
     0
 40
299.9999999999996
 41
1.0
 50
0.0
 71
     0
 42
0.2
  3
trebuc.ttf
  4

1001
ACAD
1000
Trebuchet MS
1071
       34
  0
STYLE
  5
1B4
330
3
100
AcDbSymbolTableRecord
100
AcDbTextStyleTableRecord
  2
Trebuchet MS_1
 70
     0
 40
249.9999999999997
 41
1.0
 50
0.0
 71
     0
 42
0.2
  3
trebuc.ttf
  4

1001
ACAD
1000
Trebuchet MS
1071
       34
  0
ENDTAB
  0
TABLE
  2
VIEW
  5
6
330
0
100
AcDbSymbolTable
 70
     0
  0
ENDTAB
  0
TABLE
  2
UCS
  5
7
330
0
100
AcDbSymbolTable
 70
     0
  0
ENDTAB
  0
TABLE
  2
APPID
  5
9
330
0
100
AcDbSymbolTable
 70
     3
  0
APPID
  5
56
330
9
100
AcDbSymbolTableRecord
100
AcDbRegAppTableRecord
  2
ACAD
 70
     0
  0
APPID
  5
5E
330
9
100
AcDbSymbolTableRecord
100
AcDbRegAppTableRecord
  2
AcadAnnotative
 70
     0
  0
APPID
  5
78
330
9
100
AcDbSymbolTableRecord
100
AcDbRegAppTableRecord
  2
REVIT
 70
     0
  0
ENDTAB
  0
TABLE
  2
DIMSTYLE
  5
A
330
0
100
AcDbSymbolTable
 70
     2
100
AcDbDimStyleTable
 71
     0
  0
DIMSTYLE
105
58
330
A
100
AcDbSymbolTableRecord
100
AcDbDimStyleTableRecord
  2
Standard
 70
     0
340
55
  0
DIMSTYLE
105
59
330
A
100
AcDbSymbolTableRecord
100
AcDbDimStyleTableRecord
  2
Annotative
 70
     0
340
55
1001
AcadAnnotative
1000
AnnotativeData
1002
{
1070
     1
1070
     1
1002
}
  0
ENDTAB
  0
TABLE
  2
BLOCK_RECORD
  5
1
330
0
100
AcDbSymbolTable
 70
     7
  0
BLOCK_RECORD
  5
70
102
{ACAD_XDICTIONARY
360
1C2
102
}
330
1
100
AcDbSymbolTableRecord
100
AcDbBlockTableRecord
  2
*Model_Space
340
73
 70
     0
280
     1
281
     0
  0
BLOCK_RECORD
  5
6C
330
1
100
AcDbSymbolTableRecord
100
AcDbBlockTableRecord
  2
*Paper_Space
340
6F
 70
     0
280
     1
281
     0
  0
BLOCK_RECORD
  5
74
330
1
100
AcDbSymbolTableRecord
100
AcDbBlockTableRecord
  2
*Paper_Space0
340
77
 70
     0
280
     1
281
     0
  0
BLOCK_RECORD
  5
AE
330
1
100
AcDbSymbolTableRecord
100
AcDbBlockTableRecord
  2
1 Vantail - Droit - 0_60 m x 0_95 m - Appui en aluminium _2_00m large_-255854-Coupe 1
340
0
102
{BLKREFS
331
C4
331
164
102
}
 70
     0
280
     1
281
     0
  0
BLOCK_RECORD
  5
C5
330
1
100
AcDbSymbolTableRecord
100
AcDbBlockTableRecord
  2
1 Vantail - Droit - 0_60 m x 0_95 m - Appui en aluminium _2_00m large_-V1-Coupe 1
340
0
102
{BLKREFS
331
F5
331
14D
102
}
 70
     0
280
     1
281
     0
  0
BLOCK_RECORD
  5
F6
330
1
100
AcDbSymbolTableRecord
100
AcDbBlockTableRecord
  2
1 Vantail - Droit - 0_60 m x 0_95 m - Appui en aluminium _2_00m large_-V2-Coupe 1
340
0
102
{BLKREFS
331
125
331
14E
102
}
 70
     0
280
     1
281
     0
  0
BLOCK_RECORD
  5
166
330
1
100
AcDbSymbolTableRecord
100
AcDbBlockTableRecord
  2
Niveau - Marqueur de niveau - Point triangulaire-1765-Coupe 1
340
0
102
{BLKREFS
331
170
331
176
331
17A
102
}
 70
     0
280
     1
281
     0
  0
BLOCK_RECORD
  5
17F
330
1
100
AcDbSymbolTableRecord
100
AcDbBlockTableRecord
  2
Coupe - Marque de la ligne de coupe - Verticale pleine-3537-Coupe 1
340
0
102
{BLKREFS
331
18B
331
1B7
102
}
 70
     0
280
     1
281
     0
  0
BLOCK_RECORD
  5
18E
330
1
100
AcDbSymbolTableRecord
100
AcDbBlockTableRecord
  2
Coupe - Extrémité de la ligne de coupe - Pleine-2974-Coupe 1
340
0
102
{BLKREFS
331
1B3
331
1BA
102
}
 70
     0
280
     1
281
     0
  0
ENDTAB
  0
ENDSEC
  0
SECTION
  2
BLOCKS
  0
BLOCK
  5
71
330
70
100
AcDbEntity
  8
0
100
AcDbBlockBegin
  2
*Model_Space
 70
     0
 10
0.0
 20
0.0
 30
0.0
  3
*Model_Space
  1

  0
ENDBLK
  5
72
330
70
100
AcDbEntity
  8
0
100
AcDbBlockEnd
  0
BLOCK
  5
6D
330
6C
100
AcDbEntity
 67
     1
  8
0
100
AcDbBlockBegin
  2
*Paper_Space
 70
     0
 10
0.0
 20
0.0
 30
0.0
  3
*Paper_Space
  1

  0
ENDBLK
  5
6E
330
6C
100
AcDbEntity
 67
     1
  8
0
100
AcDbBlockEnd
  0
BLOCK
  5
75
330
74
100
AcDbEntity
 67
     1
  8
0
100
AcDbBlockBegin
  2
*Paper_Space0
 70
     0
 10
0.0
 20
0.0
 30
0.0
  3
*Paper_Space0
  1

  0
ENDBLK
  5
76
330
74
100
AcDbEntity
 67
     1
  8
0
100
AcDbBlockEnd
  0
BLOCK
  5
C2
330
AE
100
AcDbEntity
  8
0
100
AcDbBlockBegin
  2
1 Vantail - Droit - 0_60 m x 0_95 m - Appui en aluminium _2_00m large_-255854-Coupe 1
 70
     0
 10
0.0
 20
0.0
 30
0.0
  3
1 Vantail - Droit - 0_60 m x 0_95 m - Appui en aluminium _2_00m large_-255854-Coupe 1
  1

  0
LINE
  5
B0
330
AE
100
AcDbEntity
  8
A-GLAZ
  6
Centre
370
     9
100
AcDbLine
 10
6825.473373766302
 20
849.9999999999806
 30
0.0
 11
4825.473373766303
 21
1275.000000000118
 31
0.0
1001
REVIT
1002
{
1070
     1
1000
255403
1002
}
1002
{
1070
     5
1000
255852
1002
}
1002
{
1070
     3
1000
135064
1002
}
  0
LINE
  5
B1
330
AE
100
AcDbEntity
  8
A-GLAZ
  6
Centre
370
     9
100
AcDbLine
 10
6825.473373766302
 20
1749.999999999981
 30
0.0
 11
4825.473373766303
 21
1275.000000000118
 31
0.0
1001
REVIT
1002
{
1070
     1
1000
255403
1002
}
1002
{
1070
     5
1000
255852
1002
}
1002
{
1070
     3
1000
135064
1002
}
  0
LINE
  5
B2
330
AE
100
AcDbEntity
  8
A-GLAZ
100
AcDbLine
 10
4875.473373766301
 20
1699.999999999982
 30
0.0
 11
4875.473373766301
 21
899.9999999999799
 31
0.0
1001
REVIT
1002
{
1070
     1
1000
255403
1002
}
1002
{
1070
     5
1000
255852
1002
}
1002
{
1070
     3
1000
-2000018
1002
}
  0
LINE
  5
B3
330
AE
100
AcDbEntity
  8
A-GLAZ
100
AcDbLine
 10
4875.473373766301
 20
899.9999999999799
 30
0.0
 11
6775.473373766302
 21
899.9999999999801
 31
0.0
1001
REVIT
1002
{
1070
     1
1000
255403
1002
}
1002
{
1070
     5
1000
255852
1002
}
1002
{
1070
     3
1000
-2000018
1002
}
  0
LINE
  5
B4
330
AE
100
AcDbEntity
  8
A-GLAZ
100
AcDbLine
 10
6825.473373766302
 20
849.9999999999806
 30
0.0
 11
6825.473373766302
 21
1749.999999999981
 31
0.0
1001
REVIT
1002
{
1070
     1
1000
255403
1002
}
1002
{
1070
     5
1000
255852
1002
}
1002
{
1070
     3
1000
-2000018
1002
}
  0
LINE
  5
B5
330
AE
100
AcDbEntity
  8
A-GLAZ
100
AcDbLine
 10
6825.473373766302
 20
1749.999999999981
 30
0.0
 11
4825.473373766303
 21
1749.999999999981
 31
0.0
1001
REVIT
1002
{
1070
     1
1000
255403
1002
}
1002
{
1070
     5
1000
255852
1002
}
1002
{
1070
     3
1000
-2000018
1002
}
  0
LINE
  5
B6
330
AE
100
AcDbEntity
  8
A-GLAZ
100
AcDbLine
 10
4825.473373766303
 20
1749.999999999981
 30
0.0
 11
4825.473373766303
 21
849.9999999999806
 31
0.0
1001
REVIT
1002
{
1070
     1
1000
255403
1002
}
1002
{
1070
     5
1000
255852
1002
}
1002
{
1070
     3
1000
-2000018
1002
}
  0
LINE
  5
B7
330
AE
100
AcDbEntity
  8
A-GLAZ
100
AcDbLine
 10
4825.473373766303
 20
849.9999999999806
 30
0.0
 11
6825.473373766302
 21
849.9999999999806
 31
0.0
1001
REVIT
1002
{
1070
     1
1000
255403
1002
}
1002
{
1070
     5
1000
255852
1002
}
1002
{
1070
     3
1000
-2000018
1002
}
  0
LINE
  5
B8
330
AE
100
AcDbEntity
  8
A-GLAZ
100
AcDbLine
 10
6775.473373766302
 20
1699.999999999981
 30
0.0
 11
6775.473373766302
 21
899.9999999999801
 31
0.0
1001
REVIT
1002
{
1070
     1
1000
255403
1002
}
1002
{
1070
     5
1000
255852
1002
}
1002
{
1070
     3
1000
-2000018
1002
}
  0
LINE
  5
B9
330
AE
100
AcDbEntity
  8
A-GLAZ
100
AcDbLine
 10
4875.473373766301
 20
1699.999999999982
 30
0.0
 11
6775.473373766302
 21
1699.999999999982
 31
0.0
1001
REVIT
1002
{
1070
     1
1000
255403
1002
}
1002
{
1070
     5
1000
255852
1002
}
1002
{
1070
     3
1000
-2000018
1002
}
  0
LINE
  5
BA
330
AE
100
AcDbEntity
  8
A-GLAZ
100
AcDbLine
 10
6875.473373766301
 20
799.9999999999809
 30
0.0
 11
4775.473373766303
 21
799.9999999999809
 31
0.0
1001
REVIT
1002
{
1070
     1
1000
255403
1002
}
1002
{
1070
     5
1000
255852
1002
}
1002
{
1070
     3
1000
-2000018
1002
}
  0
LINE
  5
BB
330
AE
100
AcDbEntity
  8
A-GLAZ
100
AcDbLine
 10
4775.473373766303
 20
799.9999999999809
 30
0.0
 11
4775.473373766303
 21
1799.99999999998
 31
0.0
1001
REVIT
1002
{
1070
     1
1000
255403
1002
}
1002
{
1070
     5
1000
255852
1002
}
1002
{
1070
     3
1000
-2000018
1002
}
  0
LINE
  5
BC
330
AE
100
AcDbEntity
  8
A-GLAZ
100
AcDbLine
 10
6875.473373766301
 20
1799.99999999998
 30
0.0
 11
6875.473373766301
 21
799.9999999999809
 31
0.0
1001
REVIT
1002
{
1070
     1
1000
255403
1002
}
1002
{
1070
     5
1000
255852
1002
}
1002
{
1070
     3
1000
-2000018
1002
}
  0
LINE
  5
BD
330
AE
100
AcDbEntity
  8
A-GLAZ
100
AcDbLine
 10
6825.473373766302
 20
1749.999999999981
 30
0.0
 11
6825.473373766302
 21
849.9999999999809
 31
0.0
1001
REVIT
1002
{
1070
     1
1000
255403
1002
}
1002
{
1070
     5
1000
255852
1002
}
1002
{
1070
     3
1000
-2000018
1002
}
  0
LINE
  5
BE
330
AE
100
AcDbEntity
  8
A-GLAZ
100
AcDbLine
 10
4825.473373766303
 20
849.9999999999809
 30
0.0
 11
4825.473373766303
 21
1749.999999999981
 31
0.0
1001
REVIT
1002
{
1070
     1
1000
255403
1002
}
1002
{
1070
     5
1000
255852
1002
}
1002
{
1070
     3
1000
-2000018
1002
}
  0
LINE
  5
BF
330
AE
100
AcDbEntity
  8
A-GLAZ
100
AcDbLine
 10
4825.473373766303
 20
1749.999999999981
 30
0.0
 11
6825.473373766302
 21
1749.999999999981
 31
0.0
1001
REVIT
1002
{
1070
     1
1000
255403
1002
}
1002
{
1070
     5
1000
255852
1002
}
1002
{
1070
     3
1000
-2000018
1002
}
  0
LINE
  5
C0
330
AE
100
AcDbEntity
  8
A-GLAZ
100
AcDbLine
 10
6825.473373766302
 20
849.9999999999809
 30
0.0
 11
4825.473373766303
 21
849.9999999999809
 31
0.0
1001
REVIT
1002
{
1070
     1
1000
255403
1002
}
1002
{
1070
     5
1000
255852
1002
}
1002
{
1070
     3
1000
-2000018
1002
}
  0
LINE
  5
C1
330
AE
100
AcDbEntity
  8
A-GLAZ
100
AcDbLine
 10
6875.473373766301
 20
1799.999999999981
 30
0.0
 11
4775.473373766303
 21
1799.99999999998
 31
0.0
1001
REVIT
1002
{
1070
     1
1000
255403
1002
}
1002
{
1070
     5
1000
255852
1002
}
1002
{
1070
     3
1000
-2000018
1002
}
  0
ENDBLK
  5
C3
330
AE
100
AcDbEntity
  8
0
100
AcDbBlockEnd
  0
BLOCK
  5
F3
330
C5
100
AcDbEntity
  8
0
100
AcDbBlockBegin
  2
1 Vantail - Droit - 0_60 m x 0_95 m - Appui en aluminium _2_00m large_-V1-Coupe 1
 70
     0
 10
0.0
 20
0.0
 30
0.0
  3
1 Vantail - Droit - 0_60 m x 0_95 m - Appui en aluminium _2_00m large_-V1-Coupe 1
  1

  0
LINE
  5
C7
330
C5
100
AcDbEntity
  8
A-GLAZ-SILL
100
AcDbLine
 10
-1159.526626233753
 20
789.7296905869786
 30
0.0
 11
-1289.526626234684
 21
776.0661400023423
 31
0.0
1001
REVIT
1002
{
1070
     1
1000
255475
1002
}
1002
{
1070
     5
1000
255852
1002
}
1002
{
1070
     3
1000
-2000020
1002
}
  0
LINE
  5
C8
330
C5
100
AcDbEntity
  8
A-GLAZ-SILL
100
AcDbLine
 10
-1289.526626234684
 20
776.0661400023423
 30
0.0
 11
-1289.526626234684
 21
760.5104235264469
 31
0.0
1001
REVIT
1002
{
1070
     1
1000
255475
1002
}
1002
{
1070
     5
1000
255852
1002
}
1002
{
1070
     3
1000
-2000020
1002
}
  0
LINE
  5
C9
330
C5
100
AcDbEntity
  8
A-GLAZ-SILL
100
AcDbLine
 10
-1289.526626234684
 20
760.5104235264469
 30
0.0
 11
-1284.526626234682
 21
761.0359447027751
 31
0.0
1001
REVIT
1002
{
1070
     1
1000
255475
1002
}
1002
{
1070
     5
1000
255852
1002
}
1002
{
1070
     3
1000
-2000020
1002
}
  0
LINE
  5
CA
330
C5
100
AcDbEntity
  8
A-GLAZ-SILL
100
AcDbLine
 10
-1284.526626234682
 20
761.0359447027751
 30
0.0
 11
-1284.526626234682
 21
771.3364494153534
 31
0.0
1001
REVIT
1002
{
1070
     1
1000
255475
1002
}
1002
{
1070
     5
1000
255852
1002
}
1002
{
1070
     3
1000
-2000020
1002
}
  0
LINE
  5
CB
330
C5
100
AcDbEntity
  8
A-GLAZ-SILL
100
AcDbLine
 10
-1284.526626234682
 20
771.3364494153534
 30
0.0
 11
-1154.526626233753
 21
784.9999999999895
 31
0.0
1001
REVIT
1002
{
1070
     1
1000
255475
1002
}
1002
{
1070
     5
1000
255852
1002
}
1002
{
1070
     3
1000
-2000020
1002
}
  0
LINE
  5
CC
330
C5
100
AcDbEntity
  8
A-GLAZ-SILL
100
AcDbLine
 10
-1154.526626233753
 20
784.9999999999895
 30
0.0
 11
-1154.526626233753
 21
799.9999999999809
 31
0.0
1001
REVIT
1002
{
1070
     1
1000
255475
1002
}
1002
{
1070
     5
1000
255852
1002
}
1002
{
1070
     3
1000
-2000020
1002
}
  0
LINE
  5
CD
330
C5
100
AcDbEntity
  8
A-GLAZ-SILL
100
AcDbLine
 10
-1154.526626233753
 20
799.9999999999809
 30
0.0
 11
-1159.526626233753
 21
799.9999999999809
 31
0.0
1001
REVIT
1002
{
1070
     1
1000
255475
1002
}
1002
{
1070
     5
1000
255852
1002
}
1002
{
1070
     3
1000
-2000020
1002
}
  0
LINE
  5
CE
330
C5
100
AcDbEntity
  8
A-GLAZ-SILL
100
AcDbLine
 10
-1159.526626233753
 20
799.9999999999809
 30
0.0
 11
-1159.526626233753
 21
789.7296905869786
 31
0.0
1001
REVIT
1002
{
1070
     1
1000
255475
1002
}
1002
{
1070
     5
1000
255852
1002
}
1002
{
1070
     3
1000
-2000020
1002
}
  0
LINE
  5
CF
330
C5
100
AcDbEntity
  8
A-GLAZ
100
AcDbLine
 10
-1100.526626233707
 20
1699.999999999981
 30
0.0
 11
-1100.526626233707
 21
899.9999999999804
 31
0.0
1001
REVIT
1002
{
1070
     1
1000
255475
1002
}
1002
{
1070
     5
1000
255852
1002
}
1002
{
1070
     3
1000
-2000016
1002
}
  0
LINE
  5
D0
330
C5
100
AcDbEntity
  8
A-GLAZ
100
AcDbLine
 10
-1100.526626233707
 20
899.9999999999804
 30
0.0
 11
-1088.526626233707
 21
899.9999999999804
 31
0.0
1001
REVIT
1002
{
1070
     1
1000
255475
1002
}
1002
{
1070
     5
1000
255852
1002
}
1002
{
1070
     3
1000
-2000016
1002
}
  0
LINE
  5
D1
330
C5
100
AcDbEntity
  8
A-GLAZ
100
AcDbLine
 10
-1088.526626233707
 20
899.9999999999804
 30
0.0
 11
-1088.526626233707
 21
1699.999999999981
 31
0.0
1001
REVIT
1002
{
1070
     1
1000
255475
1002
}
1002
{
1070
     5
1000
255852
1002
}
1002
{
1070
     3
1000
-2000016
1002
}
  0
LINE
  5
D2
330
C5
100
AcDbEntity
  8
A-GLAZ
100
AcDbLine
 10
-1088.526626233707
 20
1699.999999999981
 30
0.0
 11
-1100.526626233707
 21
1699.999999999981
 31
0.0
1001
REVIT
1002
{
1070
     1
1000
255475
1002
}
1002
{
1070
     5
1000
255852
1002
}
1002
{
1070
     3
1000
-2000016
1002
}
  0
LINE
  5
D3
330
C5
100
AcDbEntity
  8
A-GLAZ
100
AcDbLine
 10
-1074.526626233698
 20
899.9999999999801
 30
0.0
 11
-1114.526626233695
 21
899.9999999999801
 31
0.0
1001
REVIT
1002
{
1070
     1
1000
255475
1002
}
1002
{
1070
     5
1000
255852
1002
}
1002
{
1070
     3
1000
-2000018
1002
}
  0
LINE
  5
D4
330
C5
100
AcDbEntity
  8
A-GLAZ
100
AcDbLine
 10
-1114.526626233695
 20
899.9999999999801
 30
0.0
 11
-1114.526626233695
 21
849.9999999999806
 31
0.0
1001
REVIT
1002
{
1070
     1
1000
255475
1002
}
1002
{
1070
     5
1000
255852
1002
}
1002
{
1070
     3
1000
-2000018
1002
}
  0
LINE
  5
D5
330
C5
100
AcDbEntity
  8
A-GLAZ
100
AcDbLine
 10
-1114.526626233695
 20
849.9999999999806
 30
0.0
 11
-1074.526626233698
 21
849.9999999999806
 31
0.0
1001
REVIT
1002
{
1070
     1
1000
255475
1002
}
1002
{
1070
     5
1000
255852
1002
}
1002
{
1070
     3
1000
-2000018
1002
}
  0
LINE
  5
D6
330
C5
100
AcDbEntity
  8
A-GLAZ
100
AcDbLine
 10
-1074.526626233698
 20
849.9999999999806
 30
0.0
 11
-1074.526626233698
 21
899.9999999999801
 31
0.0
1001
REVIT
1002
{
1070
     1
1000
255475
1002
}
1002
{
1070
     5
1000
255852
1002
}
1002
{
1070
     3
1000
-2000018
1002
}
  0
LINE
  5
D7
330
C5
100
AcDbEntity
  8
A-GLAZ
100
AcDbLine
 10
-1074.526626233698
 20
1699.999999999982
 30
0.0
 11
-1074.526626233698
 21
1749.999999999981
 31
0.0
1001
REVIT
1002
{
1070
     1
1000
255475
1002
}
1002
{
1070
     5
1000
255852
1002
}
1002
{
1070
     3
1000
-2000018
1002
}
  0
LINE
  5
D8
330
C5
100
AcDbEntity
  8
A-GLAZ
100
AcDbLine
 10
-1074.526626233698
 20
1749.999999999981
 30
0.0
 11
-1114.526626233695
 21
1749.999999999981
 31
0.0
1001
REVIT
1002
{
1070
     1
1000
255475
1002
}
1002
{
1070
     5
1000
255852
1002
}
1002
{
1070
     3
1000
-2000018
1002
}
  0
LINE
  5
D9
330
C5
100
AcDbEntity
  8
A-GLAZ
100
AcDbLine
 10
-1114.526626233695
 20
1749.999999999981
 30
0.0
 11
-1114.526626233695
 21
1699.999999999982
 31
0.0
1001
REVIT
1002
{
1070
     1
1000
255475
1002
}
1002
{
1070
     5
1000
255852
1002
}
1002
{
1070
     3
1000
-2000018
1002
}
  0
LINE
  5
DA
330
C5
100
AcDbEntity
  8
A-GLAZ
100
AcDbLine
 10
-1114.526626233695
 20
1699.999999999982
 30
0.0
 11
-1074.526626233698
 21
1699.999999999982
 31
0.0
1001
REVIT
1002
{
1070
     1
1000
255475
1002
}
1002
{
1070
     5
1000
255852
1002
}
1002
{
1070
     3
1000
-2000018
1002
}
  0
LINE
  5
DB
330
C5
100
AcDbEntity
  8
A-GLAZ
100
AcDbLine
 10
-1074.526626233695
 20
1699.999999999981
 30
0.0
 11
-1074.526626233695
 21
899.9999999999801
 31
0.0
1001
REVIT
1002
{
1070
     1
1000
255475
1002
}
1002
{
1070
     5
1000
255852
1002
}
1002
{
1070
     3
1000
-2000018
1002
}
  0
LINE
  5
DC
330
C5
100
AcDbEntity
  8
A-GLAZ
100
AcDbLine
 10
-1114.526626233692
 20
1699.999999999981
 30
0.0
 11
-1114.526626233692
 21
899.9999999999801
 31
0.0
1001
REVIT
1002
{
1070
     1
1000
255475
1002
}
1002
{
1070
     5
1000
255852
1002
}
1002
{
1070
     3
1000
-2000018
1002
}
  0
LINE
  5
DD
330
C5
100
AcDbEntity
  8
A-GLAZ
100
AcDbLine
 10
-1174.526626233672
 20
799.9999999999809
 30
0.0
 11
-1074.526626233716
 21
799.9999999999809
 31
0.0
1001
REVIT
1002
{
1070
     1
1000
255475
1002
}
1002
{
1070
     5
1000
255852
1002
}
1002
{
1070
     3
1000
-2000018
1002
}
  0
LINE
  5
DE
330
C5
100
AcDbEntity
  8
A-GLAZ
100
AcDbLine
 10
-1074.526626233716
 20
799.9999999999809
 30
0.0
 11
-1074.526626233717
 21
849.9999999999809
 31
0.0
1001
REVIT
1002
{
1070
     1
1000
255475
1002
}
1002
{
1070
     5
1000
255852
1002
}
1002
{
1070
     3
1000
-2000018
1002
}
  0
LINE
  5
DF
330
C5
100
AcDbEntity
  8
A-GLAZ
100
AcDbLine
 10
-1074.526626233717
 20
849.9999999999809
 30
0.0
 11
-1114.526626233716
 21
849.9999999999809
 31
0.0
1001
REVIT
1002
{
1070
     1
1000
255475
1002
}
1002
{
1070
     5
1000
255852
1002
}
1002
{
1070
     3
1000
-2000018
1002
}
  0
LINE
  5
E0
330
C5
100
AcDbEntity
  8
A-GLAZ
100
AcDbLine
 10
-1114.526626233716
 20
849.9999999999809
 30
0.0
 11
-1114.526626233716
 21
864.9999999999804
 31
0.0
1001
REVIT
1002
{
1070
     1
1000
255475
1002
}
1002
{
1070
     5
1000
255852
1002
}
1002
{
1070
     3
1000
-2000018
1002
}
  0
LINE
  5
E1
330
C5
100
AcDbEntity
  8
A-GLAZ
100
AcDbLine
 10
-1114.526626233716
 20
864.9999999999804
 30
0.0
 11
-1124.526626233716
 21
864.9999999999804
 31
0.0
1001
REVIT
1002
{
1070
     1
1000
255475
1002
}
1002
{
1070
     5
1000
255852
1002
}
1002
{
1070
     3
1000
-2000018
1002
}
  0
LINE
  5
E2
330
C5
100
AcDbEntity
  8
A-GLAZ
100
AcDbLine
 10
-1124.526626233716
 20
864.9999999999804
 30
0.0
 11
-1124.526626233716
 21
839.3761424862699
 31
0.0
1001
REVIT
1002
{
1070
     1
1000
255475
1002
}
1002
{
1070
     5
1000
255852
1002
}
1002
{
1070
     3
1000
-2000018
1002
}
  0
LINE
  5
E3
330
C5
100
AcDbEntity
  8
A-GLAZ
100
AcDbLine
 10
-1124.526626233716
 20
839.3761424862699
 30
0.0
 11
-1184.526626233672
 21
823.2991909404146
 31
0.0
1001
REVIT
1002
{
1070
     1
1000
255475
1002
}
1002
{
1070
     5
1000
255852
1002
}
1002
{
1070
     3
1000
-2000018
1002
}
  0
LINE
  5
E4
330
C5
100
AcDbEntity
  8
A-GLAZ
100
AcDbLine
 10
-1184.526626233672
 20
823.2991909404146
 30
0.0
 11
-1184.526626233672
 21
794.9999999999808
 31
0.0
1001
REVIT
1002
{
1070
     1
1000
255475
1002
}
1002
{
1070
     5
1000
255852
1002
}
1002
{
1070
     3
1000
-2000018
1002
}
  0
LINE
  5
E5
330
C5
100
AcDbEntity
  8
A-GLAZ
100
AcDbLine
 10
-1184.526626233672
 20
794.9999999999808
 30
0.0
 11
-1174.526626233672
 21
794.9999999999808
 31
0.0
1001
REVIT
1002
{
1070
     1
1000
255475
1002
}
1002
{
1070
     5
1000
255852
1002
}
1002
{
1070
     3
1000
-2000018
1002
}
  0
LINE
  5
E6
330
C5
100
AcDbEntity
  8
A-GLAZ
100
AcDbLine
 10
-1174.526626233672
 20
794.9999999999808
 30
0.0
 11
-1174.526626233672
 21
799.9999999999809
 31
0.0
1001
REVIT
1002
{
1070
     1
1000
255475
1002
}
1002
{
1070
     5
1000
255852
1002
}
1002
{
1070
     3
1000
-2000018
1002
}
  0
LINE
  5
E7
330
C5
100
AcDbEntity
  8
A-GLAZ
100
AcDbLine
 10
-1124.526626233716
 20
1799.99999999998
 30
0.0
 11
-1124.526626233716
 21
1734.99999999998
 31
0.0
1001
REVIT
1002
{
1070
     1
1000
255475
1002
}
1002
{
1070
     5
1000
255852
1002
}
1002
{
1070
     3
1000
-2000018
1002
}
  0
LINE
  5
E8
330
C5
100
AcDbEntity
  8
A-GLAZ
100
AcDbLine
 10
-1124.526626233716
 20
1734.99999999998
 30
0.0
 11
-1114.526626233716
 21
1734.99999999998
 31
0.0
1001
REVIT
1002
{
1070
     1
1000
255475
1002
}
1002
{
1070
     5
1000
255852
1002
}
1002
{
1070
     3
1000
-2000018
1002
}
  0
LINE
  5
E9
330
C5
100
AcDbEntity
  8
A-GLAZ
100
AcDbLine
 10
-1114.526626233716
 20
1734.99999999998
 30
0.0
 11
-1114.526626233716
 21
1749.999999999981
 31
0.0
1001
REVIT
1002
{
1070
     1
1000
255475
1002
}
1002
{
1070
     5
1000
255852
1002
}
1002
{
1070
     3
1000
-2000018
1002
}
  0
LINE
  5
EA
330
C5
100
AcDbEntity
  8
A-GLAZ
100
AcDbLine
 10
-1114.526626233716
 20
1749.999999999981
 30
0.0
 11
-1074.526626233716
 21
1749.999999999981
 31
0.0
1001
REVIT
1002
{
1070
     1
1000
255475
1002
}
1002
{
1070
     5
1000
255852
1002
}
1002
{
1070
     3
1000
-2000018
1002
}
  0
LINE
  5
EB
330
C5
100
AcDbEntity
  8
A-GLAZ
100
AcDbLine
 10
-1074.526626233716
 20
1749.999999999981
 30
0.0
 11
-1074.526626233716
 21
1799.99999999998
 31
0.0
1001
REVIT
1002
{
1070
     1
1000
255475
1002
}
1002
{
1070
     5
1000
255852
1002
}
1002
{
1070
     3
1000
-2000018
1002
}
  0
LINE
  5
EC
330
C5
100
AcDbEntity
  8
A-GLAZ
100
AcDbLine
 10
-1074.526626233716
 20
1799.99999999998
 30
0.0
 11
-1124.526626233716
 21
1799.99999999998
 31
0.0
1001
REVIT
1002
{
1070
     1
1000
255475
1002
}
1002
{
1070
     5
1000
255852
1002
}
1002
{
1070
     3
1000
-2000018
1002
}
  0
LINE
  5
ED
330
C5
100
AcDbEntity
  8
A-GLAZ
100
AcDbLine
 10
-1124.526626233719
 20
864.9999999999804
 30
0.0
 11
-1124.526626233719
 21
1734.99999999998
 31
0.0
1001
REVIT
1002
{
1070
     1
1000
255475
1002
}
1002
{
1070
     5
1000
255852
1002
}
1002
{
1070
     3
1000
-2000018
1002
}
  0
LINE
  5
EE
330
C5
100
AcDbEntity
  8
A-GLAZ
370
     9
100
AcDbLine
 10
-1124.526626233716
 20
1749.999999999981
 30
0.0
 11
-1124.526626233716
 21
1759.999999999981
 31
0.0
1001
REVIT
1002
{
1070
     1
1000
255475
1002
}
1002
{
1070
     5
1000
255852
1002
}
1002
{
1070
     3
1000
135838
1002
}
  0
LINE
  5
EF
330
C5
100
AcDbEntity
  8
A-GLAZ
370
     9
100
AcDbLine
 10
-1124.526626233716
 20
1759.999999999981
 30
0.0
 11
-1174.526626233717
 21
1759.999999999981
 31
0.0
1001
REVIT
1002
{
1070
     1
1000
255475
1002
}
1002
{
1070
     5
1000
255852
1002
}
1002
{
1070
     3
1000
135838
1002
}
  0
LINE
  5
F0
330
C5
100
AcDbEntity
  8
A-GLAZ
370
     9
100
AcDbLine
 10
-1174.526626233717
 20
1759.999999999981
 30
0.0
 11
-1174.526626233717
 21
1749.999999999981
 31
0.0
1001
REVIT
1002
{
1070
     1
1000
255475
1002
}
1002
{
1070
     5
1000
255852
1002
}
1002
{
1070
     3
1000
135838
1002
}
  0
LINE
  5
F1
330
C5
100
AcDbEntity
  8
A-GLAZ
370
     9
100
AcDbLine
 10
-1174.526626233717
 20
1749.999999999981
 30
0.0
 11
-1124.526626233716
 21
1749.999999999981
 31
0.0
1001
REVIT
1002
{
1070
     1
1000
255475
1002
}
1002
{
1070
     5
1000
255852
1002
}
1002
{
1070
     3
1000
135838
1002
}
  0
LINE
  5
F2
330
C5
100
AcDbEntity
  8
A-GLAZ
370
     9
100
AcDbLine
 10
-1174.526626233721
 20
825.9786828647124
 30
0.0
 11
-1174.526626233721
 21
1749.999999999981
 31
0.0
1001
REVIT
1002
{
1070
     1
1000
255475
1002
}
1002
{
1070
     5
1000
255852
1002
}
1002
{
1070
     3
1000
135838
1002
}
  0
ENDBLK
  5
F4
330
C5
100
AcDbEntity
  8
0
100
AcDbBlockEnd
  0
BLOCK
  5
123
330
F6
100
AcDbEntity
  8
0
100
AcDbBlockBegin
  2
1 Vantail - Droit - 0_60 m x 0_95 m - Appui en aluminium _2_00m large_-V2-Coupe 1
 70
     0
 10
0.0
 20
0.0
 30
0.0
  3
1 Vantail - Droit - 0_60 m x 0_95 m - Appui en aluminium _2_00m large_-V2-Coupe 1
  1

  0
LINE
  5
F7
330
F6
100
AcDbEntity
  8
A-GLAZ-SILL
100
AcDbLine
 10
8940.473373767273
 20
776.0661400023423
 30
0.0
 11
8810.473373766342
 21
789.7296905869786
 31
0.0
1001
REVIT
1002
{
1070
     1
1000
255663
1002
}
1002
{
1070
     5
1000
255852
1002
}
1002
{
1070
     3
1000
-2000020
1002
}
  0
LINE
  5
F8
330
F6
100
AcDbEntity
  8
A-GLAZ-SILL
100
AcDbLine
 10
8810.473373766342
 20
789.7296905869786
 30
0.0
 11
8810.473373766342
 21
799.9999999999809
 31
0.0
1001
REVIT
1002
{
1070
     1
1000
255663
1002
}
1002
{
1070
     5
1000
255852
1002
}
1002
{
1070
     3
1000
-2000020
1002
}
  0
LINE
  5
F9
330
F6
100
AcDbEntity
  8
A-GLAZ-SILL
100
AcDbLine
 10
8810.473373766342
 20
799.9999999999809
 30
0.0
 11
8805.473373766343
 21
799.9999999999809
 31
0.0
1001
REVIT
1002
{
1070
     1
1000
255663
1002
}
1002
{
1070
     5
1000
255852
1002
}
1002
{
1070
     3
1000
-2000020
1002
}
  0
LINE
  5
FA
330
F6
100
AcDbEntity
  8
A-GLAZ-SILL
100
AcDbLine
 10
8805.473373766343
 20
799.9999999999809
 30
0.0
 11
8805.473373766343
 21
784.9999999999895
 31
0.0
1001
REVIT
1002
{
1070
     1
1000
255663
1002
}
1002
{
1070
     5
1000
255852
1002
}
1002
{
1070
     3
1000
-2000020
1002
}
  0
LINE
  5
FB
330
F6
100
AcDbEntity
  8
A-GLAZ-SILL
100
AcDbLine
 10
8805.473373766343
 20
784.9999999999895
 30
0.0
 11
8935.473373767273
 21
771.3364494153534
 31
0.0
1001
REVIT
1002
{
1070
     1
1000
255663
1002
}
1002
{
1070
     5
1000
255852
1002
}
1002
{
1070
     3
1000
-2000020
1002
}
  0
LINE
  5
FC
330
F6
100
AcDbEntity
  8
A-GLAZ-SILL
100
AcDbLine
 10
8935.473373767273
 20
771.3364494153534
 30
0.0
 11
8935.473373767273
 21
761.0359447027751
 31
0.0
1001
REVIT
1002
{
1070
     1
1000
255663
1002
}
1002
{
1070
     5
1000
255852
1002
}
1002
{
1070
     3
1000
-2000020
1002
}
  0
LINE
  5
FD
330
F6
100
AcDbEntity
  8
A-GLAZ-SILL
100
AcDbLine
 10
8935.473373767273
 20
761.0359447027751
 30
0.0
 11
8940.473373767273
 21
760.5104235264469
 31
0.0
1001
REVIT
1002
{
1070
     1
1000
255663
1002
}
1002
{
1070
     5
1000
255852
1002
}
1002
{
1070
     3
1000
-2000020
1002
}
  0
LINE
  5
FE
330
F6
100
AcDbEntity
  8
A-GLAZ-SILL
100
AcDbLine
 10
8940.473373767273
 20
760.5104235264469
 30
0.0
 11
8940.473373767273
 21
776.0661400023423
 31
0.0
1001
REVIT
1002
{
1070
     1
1000
255663
1002
}
1002
{
1070
     5
1000
255852
1002
}
1002
{
1070
     3
1000
-2000020
1002
}
  0
LINE
  5
FF
330
F6
100
AcDbEntity
  8
A-GLAZ
100
AcDbLine
 10
8751.473373766293
 20
899.9999999999804
 30
0.0
 11
8751.473373766293
 21
1699.999999999981
 31
0.0
1001
REVIT
1002
{
1070
     1
1000
255663
1002
}
1002
{
1070
     5
1000
255852
1002
}
1002
{
1070
     3
1000
-2000016
1002
}
  0
LINE
  5
100
330
F6
100
AcDbEntity
  8
A-GLAZ
100
AcDbLine
 10
8751.473373766293
 20
1699.999999999981
 30
0.0
 11
8739.473373766292
 21
1699.999999999981
 31
0.0
1001
REVIT
1002
{
1070
     1
1000
255663
1002
}
1002
{
1070
     5
1000
255852
1002
}
1002
{
1070
     3
1000
-2000016
1002
}
  0
LINE
  5
101
330
F6
100
AcDbEntity
  8
A-GLAZ
100
AcDbLine
 10
8739.473373766292
 20
1699.999999999981
 30
0.0
 11
8739.473373766292
 21
899.9999999999804
 31
0.0
1001
REVIT
1002
{
1070
     1
1000
255663
1002
}
1002
{
1070
     5
1000
255852
1002
}
1002
{
1070
     3
1000
-2000016
1002
}
  0
LINE
  5
102
330
F6
100
AcDbEntity
  8
A-GLAZ
100
AcDbLine
 10
8739.473373766292
 20
899.9999999999804
 30
0.0
 11
8751.473373766293
 21
899.9999999999804
 31
0.0
1001
REVIT
1002
{
1070
     1
1000
255663
1002
}
1002
{
1070
     5
1000
255852
1002
}
1002
{
1070
     3
1000
-2000016
1002
}
  0
LINE
  5
103
330
F6
100
AcDbEntity
  8
A-GLAZ
100
AcDbLine
 10
8765.473373766281
 20
899.9999999999801
 30
0.0
 11
8725.473373766282
 21
899.9999999999801
 31
0.0
1001
REVIT
1002
{
1070
     1
1000
255663
1002
}
1002
{
1070
     5
1000
255852
1002
}
1002
{
1070
     3
1000
-2000018
1002
}
  0
LINE
  5
104
330
F6
100
AcDbEntity
  8
A-GLAZ
100
AcDbLine
 10
8725.473373766282
 20
899.9999999999801
 30
0.0
 11
8725.473373766282
 21
849.9999999999806
 31
0.0
1001
REVIT
1002
{
1070
     1
1000
255663
1002
}
1002
{
1070
     5
1000
255852
1002
}
1002
{
1070
     3
1000
-2000018
1002
}
  0
LINE
  5
105
330
F6
100
AcDbEntity
  8
A-GLAZ
100
AcDbLine
 10
8725.473373766282
 20
849.9999999999806
 30
0.0
 11
8765.473373766281
 21
849.9999999999806
 31
0.0
1001
REVIT
1002
{
1070
     1
1000
255663
1002
}
1002
{
1070
     5
1000
255852
1002
}
1002
{
1070
     3
1000
-2000018
1002
}
  0
LINE
  5
106
330
F6
100
AcDbEntity
  8
A-GLAZ
100
AcDbLine
 10
8765.473373766281
 20
849.9999999999806
 30
0.0
 11
8765.473373766281
 21
899.9999999999801
 31
0.0
1001
REVIT
1002
{
1070
     1
1000
255663
1002
}
1002
{
1070
     5
1000
255852
1002
}
1002
{
1070
     3
1000
-2000018
1002
}
  0
LINE
  5
107
330
F6
100
AcDbEntity
  8
A-GLAZ
100
AcDbLine
 10
8725.473373766282
 20
1749.999999999981
 30
0.0
 11
8725.473373766282
 21
1699.999999999982
 31
0.0
1001
REVIT
1002
{
1070
     1
1000
255663
1002
}
1002
{
1070
     5
1000
255852
1002
}
1002
{
1070
     3
1000
-2000018
1002
}
  0
LINE
  5
108
330
F6
100
AcDbEntity
  8
A-GLAZ
100
AcDbLine
 10
8725.473373766282
 20
1699.999999999982
 30
0.0
 11
8765.473373766281
 21
1699.999999999982
 31
0.0
1001
REVIT
1002
{
1070
     1
1000
255663
1002
}
1002
{
1070
     5
1000
255852
1002
}
1002
{
1070
     3
1000
-2000018
1002
}
  0
LINE
  5
109
330
F6
100
AcDbEntity
  8
A-GLAZ
100
AcDbLine
 10
8765.473373766281
 20
1699.999999999982
 30
0.0
 11
8765.473373766281
 21
1749.999999999981
 31
0.0
1001
REVIT
1002
{
1070
     1
1000
255663
1002
}
1002
{
1070
     5
1000
255852
1002
}
1002
{
1070
     3
1000
-2000018
1002
}
  0
LINE
  5
10A
330
F6
100
AcDbEntity
  8
A-GLAZ
100
AcDbLine
 10
8765.473373766281
 20
1749.999999999981
 30
0.0
 11
8725.473373766282
 21
1749.999999999981
 31
0.0
1001
REVIT
1002
{
1070
     1
1000
255663
1002
}
1002
{
1070
     5
1000
255852
1002
}
1002
{
1070
     3
1000
-2000018
1002
}
  0
LINE
  5
10B
330
F6
100
AcDbEntity
  8
A-GLAZ
100
AcDbLine
 10
8725.473373766291
 20
1699.999999999982
 30
0.0
 11
8725.473373766291
 21
899.9999999999799
 31
0.0
1001
REVIT
1002
{
1070
     1
1000
255663
1002
}
1002
{
1070
     5
1000
255852
1002
}
1002
{
1070
     3
1000
-2000018
1002
}
  0
LINE
  5
10C
330
F6
100
AcDbEntity
  8
A-GLAZ
100
AcDbLine
 10
8765.47337376629
 20
899.9999999999799
 30
0.0
 11
8765.47337376629
 21
1699.999999999982
 31
0.0
1001
REVIT
1002
{
1070
     1
1000
255663
1002
}
1002
{
1070
     5
1000
255852
1002
}
1002
{
1070
     3
1000
-2000018
1002
}
  0
LINE
  5
10D
330
F6
100
AcDbEntity
  8
A-GLAZ
100
AcDbLine
 10
8725.473373766305
 20
799.9999999999809
 30
0.0
 11
8825.473373766261
 21
799.9999999999809
 31
0.0
1001
REVIT
1002
{
1070
     1
1000
255663
1002
}
1002
{
1070
     5
1000
255852
1002
}
1002
{
1070
     3
1000
-2000018
1002
}
  0
LINE
  5
10E
330
F6
100
AcDbEntity
  8
A-GLAZ
100
AcDbLine
 10
8825.473373766261
 20
799.9999999999809
 30
0.0
 11
8825.473373766261
 21
794.9999999999808
 31
0.0
1001
REVIT
1002
{
1070
     1
1000
255663
1002
}
1002
{
1070
     5
1000
255852
1002
}
1002
{
1070
     3
1000
-2000018
1002
}
  0
LINE
  5
10F
330
F6
100
AcDbEntity
  8
A-GLAZ
100
AcDbLine
 10
8825.473373766261
 20
794.9999999999808
 30
0.0
 11
8835.47337376626
 21
794.9999999999808
 31
0.0
1001
REVIT
1002
{
1070
     1
1000
255663
1002
}
1002
{
1070
     5
1000
255852
1002
}
1002
{
1070
     3
1000
-2000018
1002
}
  0
LINE
  5
110
330
F6
100
AcDbEntity
  8
A-GLAZ
100
AcDbLine
 10
8835.47337376626
 20
794.9999999999808
 30
0.0
 11
8835.47337376626
 21
823.2991909404146
 31
0.0
1001
REVIT
1002
{
1070
     1
1000
255663
1002
}
1002
{
1070
     5
1000
255852
1002
}
1002
{
1070
     3
1000
-2000018
1002
}
  0
LINE
  5
111
330
F6
100
AcDbEntity
  8
A-GLAZ
100
AcDbLine
 10
8835.47337376626
 20
823.2991909404146
 30
0.0
 11
8775.473373766306
 21
839.3761424862693
 31
0.0
1001
REVIT
1002
{
1070
     1
1000
255663
1002
}
1002
{
1070
     5
1000
255852
1002
}
1002
{
1070
     3
1000
-2000018
1002
}
  0
LINE
  5
112
330
F6
100
AcDbEntity
  8
A-GLAZ
100
AcDbLine
 10
8775.473373766306
 20
839.3761424862693
 30
0.0
 11
8775.473373766306
 21
864.9999999999804
 31
0.0
1001
REVIT
1002
{
1070
     1
1000
255663
1002
}
1002
{
1070
     5
1000
255852
1002
}
1002
{
1070
     3
1000
-2000018
1002
}
  0
LINE
  5
113
330
F6
100
AcDbEntity
  8
A-GLAZ
100
AcDbLine
 10
8775.473373766306
 20
864.9999999999804
 30
0.0
 11
8765.473373766306
 21
864.9999999999804
 31
0.0
1001
REVIT
1002
{
1070
     1
1000
255663
1002
}
1002
{
1070
     5
1000
255852
1002
}
1002
{
1070
     3
1000
-2000018
1002
}
  0
LINE
  5
114
330
F6
100
AcDbEntity
  8
A-GLAZ
100
AcDbLine
 10
8765.473373766306
 20
864.9999999999804
 30
0.0
 11
8765.473373766306
 21
849.9999999999809
 31
0.0
1001
REVIT
1002
{
1070
     1
1000
255663
1002
}
1002
{
1070
     5
1000
255852
1002
}
1002
{
1070
     3
1000
-2000018
1002
}
  0
LINE
  5
115
330
F6
100
AcDbEntity
  8
A-GLAZ
100
AcDbLine
 10
8765.473373766306
 20
849.9999999999809
 30
0.0
 11
8725.473373766305
 21
849.9999999999809
 31
0.0
1001
REVIT
1002
{
1070
     1
1000
255663
1002
}
1002
{
1070
     5
1000
255852
1002
}
1002
{
1070
     3
1000
-2000018
1002
}
  0
LINE
  5
116
330
F6
100
AcDbEntity
  8
A-GLAZ
100
AcDbLine
 10
8725.473373766305
 20
849.9999999999809
 30
0.0
 11
8725.473373766305
 21
799.9999999999809
 31
0.0
1001
REVIT
1002
{
1070
     1
1000
255663
1002
}
1002
{
1070
     5
1000
255852
1002
}
1002
{
1070
     3
1000
-2000018
1002
}
  0
LINE
  5
117
330
F6
100
AcDbEntity
  8
A-GLAZ
100
AcDbLine
 10
8775.473373766306
 20
1734.99999999998
 30
0.0
 11
8775.473373766306
 21
1799.999999999981
 31
0.0
1001
REVIT
1002
{
1070
     1
1000
255663
1002
}
1002
{
1070
     5
1000
255852
1002
}
1002
{
1070
     3
1000
-2000018
1002
}
  0
LINE
  5
118
330
F6
100
AcDbEntity
  8
A-GLAZ
100
AcDbLine
 10
8775.473373766306
 20
1799.999999999981
 30
0.0
 11
8725.473373766305
 21
1799.999999999981
 31
0.0
1001
REVIT
1002
{
1070
     1
1000
255663
1002
}
1002
{
1070
     5
1000
255852
1002
}
1002
{
1070
     3
1000
-2000018
1002
}
  0
LINE
  5
119
330
F6
100
AcDbEntity
  8
A-GLAZ
100
AcDbLine
 10
8725.473373766305
 20
1799.999999999981
 30
0.0
 11
8725.473373766305
 21
1749.999999999981
 31
0.0
1001
REVIT
1002
{
1070
     1
1000
255663
1002
}
1002
{
1070
     5
1000
255852
1002
}
1002
{
1070
     3
1000
-2000018
1002
}
  0
LINE
  5
11A
330
F6
100
AcDbEntity
  8
A-GLAZ
100
AcDbLine
 10
8725.473373766305
 20
1749.999999999981
 30
0.0
 11
8765.473373766306
 21
1749.999999999981
 31
0.0
1001
REVIT
1002
{
1070
     1
1000
255663
1002
}
1002
{
1070
     5
1000
255852
1002
}
1002
{
1070
     3
1000
-2000018
1002
}
  0
LINE
  5
11B
330
F6
100
AcDbEntity
  8
A-GLAZ
100
AcDbLine
 10
8765.473373766306
 20
1749.999999999981
 30
0.0
 11
8765.473373766306
 21
1734.99999999998
 31
0.0
1001
REVIT
1002
{
1070
     1
1000
255663
1002
}
1002
{
1070
     5
1000
255852
1002
}
1002
{
1070
     3
1000
-2000018
1002
}
  0
LINE
  5
11C
330
F6
100
AcDbEntity
  8
A-GLAZ
100
AcDbLine
 10
8765.473373766306
 20
1734.99999999998
 30
0.0
 11
8775.473373766306
 21
1734.99999999998
 31
0.0
1001
REVIT
1002
{
1070
     1
1000
255663
1002
}
1002
{
1070
     5
1000
255852
1002
}
1002
{
1070
     3
1000
-2000018
1002
}
  0
LINE
  5
11D
330
F6
100
AcDbEntity
  8
A-GLAZ
100
AcDbLine
 10
8775.47337376631
 20
1734.99999999998
 30
0.0
 11
8775.47337376631
 21
864.9999999999804
 31
0.0
1001
REVIT
1002
{
1070
     1
1000
255663
1002
}
1002
{
1070
     5
1000
255852
1002
}
1002
{
1070
     3
1000
-2000018
1002
}
  0
LINE
  5
11E
330
F6
100
AcDbEntity
  8
A-GLAZ
370
     9
100
AcDbLine
 10
8775.473373766306
 20
1759.999999999981
 30
0.0
 11
8775.473373766306
 21
1749.999999999981
 31
0.0
1001
REVIT
1002
{
1070
     1
1000
255663
1002
}
1002
{
1070
     5
1000
255852
1002
}
1002
{
1070
     3
1000
135838
1002
}
  0
LINE
  5
11F
330
F6
100
AcDbEntity
  8
A-GLAZ
370
     9
100
AcDbLine
 10
8775.473373766306
 20
1749.999999999981
 30
0.0
 11
8825.473373766309
 21
1749.999999999981
 31
0.0
1001
REVIT
1002
{
1070
     1
1000
255663
1002
}
1002
{
1070
     5
1000
255852
1002
}
1002
{
1070
     3
1000
135838
1002
}
  0
LINE
  5
120
330
F6
100
AcDbEntity
  8
A-GLAZ
370
     9
100
AcDbLine
 10
8825.473373766309
 20
1749.999999999981
 30
0.0
 11
8825.473373766309
 21
1759.999999999981
 31
0.0
1001
REVIT
1002
{
1070
     1
1000
255663
1002
}
1002
{
1070
     5
1000
255852
1002
}
1002
{
1070
     3
1000
135838
1002
}
  0
LINE
  5
121
330
F6
100
AcDbEntity
  8
A-GLAZ
370
     9
100
AcDbLine
 10
8825.473373766309
 20
1759.999999999981
 30
0.0
 11
8775.473373766306
 21
1759.999999999981
 31
0.0
1001
REVIT
1002
{
1070
     1
1000
255663
1002
}
1002
{
1070
     5
1000
255852
1002
}
1002
{
1070
     3
1000
135838
1002
}
  0
LINE
  5
122
330
F6
100
AcDbEntity
  8
A-GLAZ
370
     9
100
AcDbLine
 10
8825.473373766312
 20
825.9786828647113
 30
0.0
 11
8825.473373766312
 21
1749.999999999981
 31
0.0
1001
REVIT
1002
{
1070
     1
1000
255663
1002
}
1002
{
1070
     5
1000
255852
1002
}
1002
{
1070
     3
1000
135838
1002
}
  0
ENDBLK
  5
124
330
F6
100
AcDbEntity
  8
0
100
AcDbBlockEnd
  0
BLOCK
  5
16E
330
166
100
AcDbEntity
  8
0
100
AcDbBlockBegin
  2
Niveau - Marqueur de niveau - Point triangulaire-1765-Coupe 1
 70
     0
 10
0.0
 20
0.0
 30
0.0
  3
Niveau - Marqueur de niveau - Point triangulaire-1765-Coupe 1
  1

  0
LINE
  5
167
330
166
100
AcDbEntity
  8
A-FLOR-LEVL
100
AcDbLine
 10
13345.11095584408
 20
499.9999999999817
 30
0.0
 11
13845.11095584408
 21
-0.0000000000140604
 31
0.0
1001
REVIT
1002
{
1070
     1
1000
608
1002
}
1002
{
1070
     5
1000
602
1002
}
  0
LINE
  5
168
330
166
100
AcDbEntity
  8
A-FLOR-LEVL
100
AcDbLine
 10
13845.11095584408
 20
-0.0000000000141661
 30
0.0
 11
13845.11095584408
 21
999.9999999999813
 31
0.0
1001
REVIT
1002
{
1070
     1
1000
608
1002
}
1002
{
1070
     5
1000
602
1002
}
  0
LINE
  5
169
330
166
100
AcDbEntity
  8
A-FLOR-LEVL
100
AcDbLine
 10
13345.11095584408
 20
499.9999999999817
 30
0.0
 11
15845.11095584408
 21
499.9999999999817
 31
0.0
1001
REVIT
1002
{
1070
     1
1000
608
1002
}
1002
{
1070
     5
1000
602
1002
}
  0
HATCH
  5
16D
330
166
100
AcDbEntity
  8
A-FLOR-LEVL
100
AcDbHatch
 10
0.0
 20
0.0
 30
0.0
210
0.0
220
0.0
230
1.0
  2
SOLID
 70
     1
 71
     0
 91
        1
 92
        1
 93
        3
 72
     1
 10
13845.11095584408
 20
499.9999999999846
 11
13845.11095584408
 21
-0.0000000000144951
 72
     1
 10
13845.11095584408
 20
-0.0000000000144833
 11
13345.11095584408
 21
499.9999999999849
 72
     1
 10
13345.11095584408
 20
499.9999999999846
 11
13845.11095584408
 21
499.9999999999846
 97
        0
 75
     0
 76
     1
 98
        1
 10
0.0
 20
0.0
450
        0
451
        0
460
0.0
461
0.0
452
        0
462
0.0
453
        0
470

1001
REVIT
1002
{
1070
     1
1000
608
1002
}
1002
{
1070
     5
1000
602
1002
}
  0
ENDBLK
  5
16F
330
166
100
AcDbEntity
  8
0
100
AcDbBlockEnd
  0
BLOCK
  5
189
330
17F
100
AcDbEntity
  8
0
100
AcDbBlockBegin
  2
Coupe - Marque de la ligne de coupe - Verticale pleine-3537-Coupe 1
 70
     0
 10
0.0
 20
0.0
 30
0.0
  3
Coupe - Marque de la ligne de coupe - Verticale pleine-3537-Coupe 1
  1

  0
HATCH
  5
184
330
17F
100
AcDbEntity
  8
G-ANNO-SYMB
100
AcDbHatch
 10
0.0
 20
0.0
 30
0.0
210
0.0
220
0.0
230
1.0
  2
SOLID
 70
     1
 71
     0
 91
        1
 92
        1
 93
        4
 72
     1
 10
2259.063198170526
 20
-1469.200000000027
 11
1359.063198170527
 21
-1469.200000000018
 72
     1
 10
1359.063198170527
 20
-1469.200000000018
 11
1359.063198170525
 21
-1669.200000000018
 72
     1
 10
1359.063198170525
 20
-1669.200000000018
 11
2259.063198170524
 21
-1669.200000000027
 72
     1
 10
2259.063198170524
 20
-1669.200000000027
 11
2259.063198170526
 21
-1469.200000000027
 97
        0
 75
     0
 76
     1
 98
        1
 10
0.0
 20
0.0
450
        0
451
        0
460
0.0
461
0.0
452
        0
462
0.0
453
        0
470

1001
REVIT
1002
{
1070
     1
1000
256588
1002
}
1002
{
1070
     5
1000
583
1002
}
  0
LINE
  5
185
330
17F
100
AcDbEntity
  8
G-ANNO-SYMB
100
AcDbLine
 10
2259.063198170526
 20
-1469.200000000027
 30
0.0
 11
2259.063198170524
 21
-1669.200000000027
 31
0.0
1001
REVIT
1002
{
1070
     1
1000
256588
1002
}
1002
{
1070
     5
1000
583
1002
}
  0
LINE
  5
186
330
17F
100
AcDbEntity
  8
G-ANNO-SYMB
100
AcDbLine
 10
2259.063198170524
 20
-1669.200000000027
 30
0.0
 11
1359.063198170525
 21
-1669.200000000018
 31
0.0
1001
REVIT
1002
{
1070
     1
1000
256588
1002
}
1002
{
1070
     5
1000
583
1002
}
  0
LINE
  5
187
330
17F
100
AcDbEntity
  8
G-ANNO-SYMB
100
AcDbLine
 10
1359.063198170525
 20
-1669.200000000018
 30
0.0
 11
1359.063198170527
 21
-1469.200000000018
 31
0.0
1001
REVIT
1002
{
1070
     1
1000
256588
1002
}
1002
{
1070
     5
1000
583
1002
}
  0
LINE
  5
188
330
17F
100
AcDbEntity
  8
G-ANNO-SYMB
100
AcDbLine
 10
1359.063198170527
 20
-1469.200000000018
 30
0.0
 11
2259.063198170526
 21
-1469.200000000027
 31
0.0
1001
REVIT
1002
{
1070
     1
1000
256588
1002
}
1002
{
1070
     5
1000
583
1002
}
  0
ENDBLK
  5
18A
330
17F
100
AcDbEntity
  8
0
100
AcDbBlockEnd
  0
BLOCK
  5
1B1
330
18E
100
AcDbEntity
  8
0
100
AcDbBlockBegin
  2
Coupe - Extrémité de la ligne de coupe - Pleine-2974-Coupe 1
 70
     0
 10
0.0
 20
0.0
 30
0.0
  3
Coupe - Extrémité de la ligne de coupe - Pleine-2974-Coupe 1
  1

  0
LINE
  5
18F
330
18E
100
AcDbEntity
  8
G-ANNO-SYMB
100
AcDbLine
 10
2207.591335594392
 20
7569.19999999997
 30
0.0
 11
1359.063198170536
 21
8417.728137423827
 31
0.0
1001
REVIT
1002
{
1070
     1
1000
256588
1002
}
1002
{
1070
     5
1000
583
1002
}
  0
LINE
  5
190
330
18E
100
AcDbEntity
  8
G-ANNO-SYMB
100
AcDbLine
 10
2207.591335594392
 20
7569.19999999997
 30
0.0
 11
1359.063198170524
 21
6720.671862576122
 31
0.0
1001
REVIT
1002
{
1070
     1
1000
256588
1002
}
1002
{
1070
     5
1000
583
1002
}
  0
LINE
  5
191
330
18E
100
AcDbEntity
  8
G-ANNO-SYMB
100
AcDbLine
 10
1359.063198170526
 20
6969.199999999975
 30
0.0
 11
1359.063198170524
 21
6720.671862576122
 31
0.0
1001
REVIT
1002
{
1070
     1
1000
256588
1002
}
1002
{
1070
     5
1000
583
1002
}
  0
LINE
  5
192
330
18E
100
AcDbEntity
  8
G-ANNO-SYMB
100
AcDbLine
 10
1359.063198170534
 20
8169.199999999975
 30
0.0
 11
1359.063198170536
 21
8417.728137423827
 31
0.0
1001
REVIT
1002
{
1070
     1
1000
256588
1002
}
1002
{
1070
     5
1000
583
1002
}
  0
ARC
  5
193
330
18E
100
AcDbEntity
  8
G-ANNO-SYMB
100
AcDbCircle
 10
1359.063198170533
 20
7569.199999999975
 30
0.0
 40
599.9999999999992
100
AcDbArc
 50
89.99999999999939
 51
269.9999999999988
1001
REVIT
1002
{
1070
     1
1000
256588
1002
}
1002
{
1070
     5
1000
583
1002
}
  0
ARC
  5
194
330
18E
100
AcDbEntity
  8
G-ANNO-SYMB
100
AcDbCircle
 10
1359.063198170531
 20
7569.199999999975
 30
0.0
 40
599.999999999999
100
AcDbArc
 50
269.9999999999992
 51
89.99999999999939
1001
REVIT
1002
{
1070
     1
1000
256588
1002
}
1002
{
1070
     5
1000
583
1002
}
  0
HATCH
  5
198
330
18E
100
AcDbEntity
  8
G-ANNO-SYMB
100
AcDbHatch
 10
0.0
 20
0.0
 30
0.0
210
0.0
220
0.0
230
1.0
  2
SOLID
 70
     1
 71
     0
 91
        1
 92
        1
 93
        3
 72
     1
 10
2207.591335594384
 20
7569.199999999963
 11
1959.063198170531
 21
7569.199999999965
 72
     2
 10
1359.06319817053
 20
7569.199999999975
 40
600.0000000000011
 50
359.9999999999988
 51
404.9999999999987
 73
     1
 72
     1
 10
1783.327266882469
 20
7993.464068711894
 11
2207.591335594384
 21
7569.199999999963
 97
        0
 75
     0
 76
     1
 98
        1
 10
0.0
 20
0.0
450
        0
451
        0
460
0.0
461
0.0
452
        0
462
0.0
453
        0
470

1001
REVIT
1002
{
1070
     1
1000
256588
1002
}
1002
{
1070
     5
1000
583
1002
}
  0
LINE
  5
199
330
18E
100
AcDbEntity
  8
G-ANNO-SYMB
100
AcDbLine
 10
2207.591335594384
 20
7569.199999999963
 30
0.0
 11
1783.327266882469
 21
7993.464068711894
 31
0.0
1001
REVIT
1002
{
1070
     1
1000
256588
1002
}
1002
{
1070
     5
1000
583
1002
}
  0
ARC
  5
19A
330
18E
100
AcDbEntity
  8
G-ANNO-SYMB
100
AcDbCircle
 10
1359.06319817053
 20
7569.199999999975
 30
0.0
 40
600.0000000000011
100
AcDbArc
 50
359.9999999999988
 51
44.99999999999875
1001
REVIT
1002
{
1070
     1
1000
256588
1002
}
1002
{
1070
     5
1000
583
1002
}
  0
LINE
  5
19B
330
18E
100
AcDbEntity
  8
G-ANNO-SYMB
100
AcDbLine
 10
1959.063198170531
 20
7569.199999999965
 30
0.0
 11
2207.591335594384
 21
7569.199999999963
 31
0.0
1001
REVIT
1002
{
1070
     1
1000
256588
1002
}
1002
{
1070
     5
1000
583
1002
}
  0
HATCH
  5
19F
330
18E
100
AcDbEntity
  8
G-ANNO-SYMB
100
AcDbHatch
 10
0.0
 20
0.0
 30
0.0
210
0.0
220
0.0
230
1.0
  2
SOLID
 70
     1
 71
     0
 91
        1
 92
        1
 93
        3
 72
     1
 10
1359.06319817055
 20
8417.728137423829
 11
1783.327266882467
 21
7993.464068711897
 72
     2
 10
1359.063198170531
 20
7569.199999999977
 40
600.0
 50
44.99999999999928
 51
89.99999999999902
 73
     1
 72
     1
 10
1359.063198170545
 20
8169.199999999975
 11
1359.06319817055
 21
8417.728137423829
 97
        0
 75
     0
 76
     1
 98
        1
 10
0.0
 20
0.0
450
        0
451
        0
460
0.0
461
0.0
452
        0
462
0.0
453
        0
470

1001
REVIT
1002
{
1070
     1
1000
256588
1002
}
1002
{
1070
     5
1000
583
1002
}
  0
LINE
  5
1A0
330
18E
100
AcDbEntity
  8
G-ANNO-SYMB
100
AcDbLine
 10
1359.06319817055
 20
8417.728137423829
 30
0.0
 11
1359.063198170545
 21
8169.199999999975
 31
0.0
1001
REVIT
1002
{
1070
     1
1000
256588
1002
}
1002
{
1070
     5
1000
583
1002
}
  0
ARC
  5
1A1
330
18E
100
AcDbEntity
  8
G-ANNO-SYMB
100
AcDbCircle
 10
1359.063198170531
 20
7569.199999999977
 30
0.0
 40
600.0
100
AcDbArc
 50
44.99999999999928
 51
89.99999999999902
1001
REVIT
1002
{
1070
     1
1000
256588
1002
}
1002
{
1070
     5
1000
583
1002
}
  0
LINE
  5
1A2
330
18E
100
AcDbEntity
  8
G-ANNO-SYMB
100
AcDbLine
 10
1783.327266882467
 20
7993.464068711897
 30
0.0
 11
1359.06319817055
 21
8417.728137423829
 31
0.0
1001
REVIT
1002
{
1070
     1
1000
256588
1002
}
1002
{
1070
     5
1000
583
1002
}
  0
HATCH
  5
1A6
330
18E
100
AcDbEntity
  8
G-ANNO-SYMB
100
AcDbHatch
 10
0.0
 20
0.0
 30
0.0
210
0.0
220
0.0
230
1.0
  2
SOLID
 70
     1
 71
     0
 91
        1
 92
        1
 93
        3
 72
     1
 10
2207.591335594383
 20
7569.199999999963
 11
1783.327266882456
 21
7144.935931288043
 72
     2
 10
1359.06319817053
 20
7569.199999999977
 40
600.0
 50
314.9999999999995
 51
359.9999999999991
 73
     1
 72
     1
 10
1959.063198170531
 20
7569.199999999966
 11
2207.591335594383
 21
7569.199999999963
 97
        0
 75
     0
 76
     1
 98
        1
 10
0.0
 20
0.0
450
        0
451
        0
460
0.0
461
0.0
452
        0
462
0.0
453
        0
470

1001
REVIT
1002
{
1070
     1
1000
256588
1002
}
1002
{
1070
     5
1000
583
1002
}
  0
LINE
  5
1A7
330
18E
100
AcDbEntity
  8
G-ANNO-SYMB
100
AcDbLine
 10
2207.591335594383
 20
7569.199999999963
 30
0.0
 11
1959.063198170531
 21
7569.199999999966
 31
0.0
1001
REVIT
1002
{
1070
     1
1000
256588
1002
}
1002
{
1070
     5
1000
583
1002
}
  0
ARC
  5
1A8
330
18E
100
AcDbEntity
  8
G-ANNO-SYMB
100
AcDbCircle
 10
1359.06319817053
 20
7569.199999999977
 30
0.0
 40
600.0
100
AcDbArc
 50
314.9999999999995
 51
359.9999999999991
1001
REVIT
1002
{
1070
     1
1000
256588
1002
}
1002
{
1070
     5
1000
583
1002
}
  0
LINE
  5
1A9
330
18E
100
AcDbEntity
  8
G-ANNO-SYMB
100
AcDbLine
 10
1783.327266882456
 20
7144.935931288043
 30
0.0
 11
2207.591335594383
 21
7569.199999999963
 31
0.0
1001
REVIT
1002
{
1070
     1
1000
256588
1002
}
1002
{
1070
     5
1000
583
1002
}
  0
HATCH
  5
1AD
330
18E
100
AcDbEntity
  8
G-ANNO-SYMB
100
AcDbHatch
 10
0.0
 20
0.0
 30
0.0
210
0.0
220
0.0
230
1.0
  2
SOLID
 70
     1
 71
     0
 91
        1
 92
        1
 93
        3
 72
     1
 10
1359.063198170525
 20
6720.671862576122
 11
1359.063198170527
 21
6969.199999999975
 72
     2
 10
1359.063198170531
 20
7569.199999999975
 40
599.999999999999
 50
269.9999999999993
 51
314.999999999999
 73
     1
 72
     1
 10
1783.327266882454
 20
7144.935931288042
 11
1359.063198170525
 21
6720.671862576122
 97
        0
 75
     0
 76
     1
 98
        1
 10
0.0
 20
0.0
450
        0
451
        0
460
0.0
461
0.0
452
        0
462
0.0
453
        0
470

1001
REVIT
1002
{
1070
     1
1000
256588
1002
}
1002
{
1070
     5
1000
583
1002
}
  0
LINE
  5
1AE
330
18E
100
AcDbEntity
  8
G-ANNO-SYMB
100
AcDbLine
 10
1359.063198170525
 20
6720.671862576122
 30
0.0
 11
1783.327266882454
 21
7144.935931288042
 31
0.0
1001
REVIT
1002
{
1070
     1
1000
256588
1002
}
1002
{
1070
     5
1000
583
1002
}
  0
ARC
  5
1AF
330
18E
100
AcDbEntity
  8
G-ANNO-SYMB
100
AcDbCircle
 10
1359.063198170531
 20
7569.199999999975
 30
0.0
 40
599.999999999999
100
AcDbArc
 50
269.9999999999993
 51
314.999999999999
1001
REVIT
1002
{
1070
     1
1000
256588
1002
}
1002
{
1070
     5
1000
583
1002
}
  0
LINE
  5
1B0
330
18E
100
AcDbEntity
  8
G-ANNO-SYMB
100
AcDbLine
 10
1359.063198170527
 20
6969.199999999975
 30
0.0
 11
1359.063198170525
 21
6720.671862576122
 31
0.0
1001
REVIT
1002
{
1070
     1
1000
256588
1002
}
1002
{
1070
     5
1000
583
1002
}
  0
ENDBLK
  5
1B2
330
18E
100
AcDbEntity
  8
0
100
AcDbBlockEnd
  0
ENDSEC
  0
SECTION
  2
ENTITIES
  0
LINE
  5
87
330
70
100
AcDbEntity
  8
A-WALL
100
AcDbLine
 10
8725.473373766305
 20
3799.999999999982
 30
0.0
 11
8725.473373766305
 21
1799.99999999998
 31
0.0
1001
REVIT
1002
{
1070
     1
1000
254994
1002
}
1002
{
1070
     5
1000
29331
1002
}
1002
{
1070
     2
1000
-2000011
1002
}
  0
LINE
  5
88
330
70
100
AcDbEntity
  8
A-WALL
100
AcDbLine
 10
8725.473373766305
 20
1799.99999999998
 30
0.0
 11
8775.473373766306
 21
1799.99999999998
 31
0.0
1001
REVIT
1002
{
1070
     1
1000
254994
1002
}
1002
{
1070
     5
1000
29331
1002
}
1002
{
1070
     2
1000
-2000011
1002
}
  0
LINE
  5
89
330
70
100
AcDbEntity
  8
A-WALL
100
AcDbLine
 10
8775.473373766306
 20
1799.99999999998
 30
0.0
 11
8775.473373766306
 21
1759.99999999998
 31
0.0
1001
REVIT
1002
{
1070
     1
1000
254994
1002
}
1002
{
1070
     5
1000
29331
1002
}
1002
{
1070
     2
1000
-2000011
1002
}
  0
LINE
  5
8A
330
70
100
AcDbEntity
  8
A-WALL
100
AcDbLine
 10
8775.473373766306
 20
1759.99999999998
 30
0.0
 11
8825.47337376631
 21
1759.99999999998
 31
0.0
1001
REVIT
1002
{
1070
     1
1000
254994
1002
}
1002
{
1070
     5
1000
29331
1002
}
1002
{
1070
     2
1000
-2000011
1002
}
  0
LINE
  5
8C
330
70
100
AcDbEntity
  8
A-WALL
100
AcDbLine
 10
8825.47337376631
 20
1749.999999999981
 30
0.0
 11
8925.473373766307
 21
1749.999999999981
 31
0.0
1001
REVIT
1002
{
1070
     1
1000
254994
1002
}
1002
{
1070
     5
1000
29331
1002
}
1002
{
1070
     2
1000
-2000011
1002
}
  0
LINE
  5
8D
330
70
100
AcDbEntity
  8
A-WALL
100
AcDbLine
 10
8925.47337376631
 20
777.6427035314295
 30
0.0
 11
8925.473373766307
 21
3772.387491768095
 31
0.0
1001
REVIT
1002
{
1070
     1
1000
254994
1002
}
1002
{
1070
     5
1000
29331
1002
}
1002
{
1070
     2
1000
-2000011
1002
}
  0
LINE
  5
8E
330
70
100
AcDbEntity
  8
A-WALL
100
AcDbLine
 10
8925.473373766307
 20
2999.99999999998
 30
0.0
 11
8725.473373766305
 21
2999.999999999981
 31
0.0
1001
REVIT
1002
{
1070
     1
1000
254994
1002
}
1002
{
1070
     5
1000
29331
1002
}
1002
{
1070
     2
1000
-2000011
1002
}
  0
LINE
  5
8F
330
70
100
AcDbEntity
  8
A-WALL
100
AcDbLine
 10
8725.473373766305
 20
799.9999999999811
 30
0.0
 11
8725.473373766305
 21
-0.0000000000194916
 31
0.0
1001
REVIT
1002
{
1070
     1
1000
254994
1002
}
1002
{
1070
     5
1000
29331
1002
}
1002
{
1070
     2
1000
-2000011
1002
}
  0
LINE
  5
90
330
70
100
AcDbEntity
  8
A-WALL
100
AcDbLine
 10
8725.473373766305
 20
-0.0000000000194916
 30
0.0
 11
8925.473373766307
 21
-0.0000000000194916
 31
0.0
1001
REVIT
1002
{
1070
     1
1000
254994
1002
}
1002
{
1070
     5
1000
29331
1002
}
1002
{
1070
     2
1000
-2000011
1002
}
  0
LINE
  5
91
330
70
100
AcDbEntity
  8
A-WALL
100
AcDbLine
 10
8925.473373766307
 20
-0.0000000000194916
 30
0.0
 11
8925.473373766307
 21
772.3874917680948
 31
0.0
1001
REVIT
1002
{
1070
     1
1000
254994
1002
}
1002
{
1070
     5
1000
29331
1002
}
1002
{
1070
     2
1000
-2000011
1002
}
  0
LINE
  5
92
330
70
100
AcDbEntity
  8
A-WALL
100
AcDbLine
 10
8925.473373766307
 20
772.3874917680948
 30
0.0
 11
8805.473373766259
 21
784.999999999981
 31
0.0
1001
REVIT
1002
{
1070
     1
1000
254994
1002
}
1002
{
1070
     5
1000
29331
1002
}
1002
{
1070
     2
1000
-2000011
1002
}
  0
LINE
  5
93
330
70
100
AcDbEntity
  8
A-WALL
100
AcDbLine
 10
8805.473373766259
 20
784.999999999981
 30
0.0
 11
8805.473373766259
 21
799.9999999999811
 31
0.0
1001
REVIT
1002
{
1070
     1
1000
254994
1002
}
1002
{
1070
     5
1000
29331
1002
}
1002
{
1070
     2
1000
-2000011
1002
}
  0
LINE
  5
94
330
70
100
AcDbEntity
  8
A-WALL
100
AcDbLine
 10
8805.473373766259
 20
799.9999999999811
 30
0.0
 11
8725.473373766305
 21
799.9999999999811
 31
0.0
1001
REVIT
1002
{
1070
     1
1000
254994
1002
}
1002
{
1070
     5
1000
29331
1002
}
1002
{
1070
     2
1000
-2000011
1002
}
  0
LINE
  5
96
330
70
100
AcDbEntity
  8
A-WALL
100
AcDbLine
 10
8825.47337376631
 20
1759.99999999998
 30
0.0
 11
8825.473373766314
 21
825.9786828647124
 31
0.0
1001
REVIT
1002
{
1070
     1
1000
254994
1002
}
1002
{
1070
     5
1000
29331
1002
}
1002
{
1070
     2
1000
-2000011
1002
}
  0
LINE
  5
97
330
70
100
AcDbEntity
  8
A-WALL
100
AcDbLine
 10
8825.473373766266
 20
794.9999999999809
 30
0.0
 11
8825.473373766266
 21
788.1531270580019
 31
0.0
1001
REVIT
1002
{
1070
     1
1000
254994
1002
}
1002
{
1070
     5
1000
29331
1002
}
1002
{
1070
     2
1000
-2000011
1002
}
  0
LINE
  5
98
330
70
100
AcDbEntity
  8
A-WALL
100
AcDbLine
 10
-1074.526626233716
 20
-0.0000000000194916
 30
0.0
 11
-1074.526626233716
 21
799.9999999999811
 31
0.0
1001
REVIT
1002
{
1070
     1
1000
255042
1002
}
1002
{
1070
     5
1000
29331
1002
}
1002
{
1070
     2
1000
-2000011
1002
}
  0
LINE
  5
99
330
70
100
AcDbEntity
  8
A-WALL
100
AcDbLine
 10
-1074.526626233716
 20
799.9999999999811
 30
0.0
 11
-1154.526626233671
 21
799.9999999999811
 31
0.0
1001
REVIT
1002
{
1070
     1
1000
255042
1002
}
1002
{
1070
     5
1000
29331
1002
}
1002
{
1070
     2
1000
-2000011
1002
}
  0
LINE
  5
9A
330
70
100
AcDbEntity
  8
A-WALL
100
AcDbLine
 10
-1154.526626233671
 20
799.9999999999811
 30
0.0
 11
-1154.526626233671
 21
784.999999999981
 31
0.0
1001
REVIT
1002
{
1070
     1
1000
255042
1002
}
1002
{
1070
     5
1000
29331
1002
}
1002
{
1070
     2
1000
-2000011
1002
}
  0
LINE
  5
9B
330
70
100
AcDbEntity
  8
A-WALL
100
AcDbLine
 10
-1154.526626233671
 20
784.999999999981
 30
0.0
 11
-1274.526626233717
 21
772.3874917680953
 31
0.0
1001
REVIT
1002
{
1070
     1
1000
255042
1002
}
1002
{
1070
     5
1000
29331
1002
}
1002
{
1070
     2
1000
-2000011
1002
}
  0
LINE
  5
9C
330
70
100
AcDbEntity
  8
A-WALL
100
AcDbLine
 10
-1274.526626233717
 20
772.3874917680953
 30
0.0
 11
-1274.526626233717
 21
-0.0000000000194916
 31
0.0
1001
REVIT
1002
{
1070
     1
1000
255042
1002
}
1002
{
1070
     5
1000
29331
1002
}
1002
{
1070
     2
1000
-2000011
1002
}
  0
LINE
  5
9E
330
70
100
AcDbEntity
  8
A-WALL
100
AcDbLine
 10
-1074.526626233716
 20
1799.99999999998
 30
0.0
 11
-1074.526626233716
 21
3799.999999999981
 31
0.0
1001
REVIT
1002
{
1070
     1
1000
255042
1002
}
1002
{
1070
     5
1000
29331
1002
}
1002
{
1070
     2
1000
-2000011
1002
}
  0
LINE
  5
A0
330
70
100
AcDbEntity
  8
A-WALL
100
AcDbLine
 10
-1274.526626233717
 20
3772.387491768095
 30
0.0
 11
-1274.52662623372
 21
777.6427035314301
 31
0.0
1001
REVIT
1002
{
1070
     1
1000
255042
1002
}
1002
{
1070
     5
1000
29331
1002
}
1002
{
1070
     2
1000
-2000011
1002
}
  0
LINE
  5
A1
330
70
100
AcDbEntity
  8
A-WALL
100
AcDbLine
 10
-1274.526626233717
 20
1749.999999999981
 30
0.0
 11
-1174.526626233719
 21
1749.999999999981
 31
0.0
1001
REVIT
1002
{
1070
     1
1000
255042
1002
}
1002
{
1070
     5
1000
29331
1002
}
1002
{
1070
     2
1000
-2000011
1002
}
  0
LINE
  5
A3
330
70
100
AcDbEntity
  8
A-WALL
100
AcDbLine
 10
-1174.526626233719
 20
1759.99999999998
 30
0.0
 11
-1124.526626233716
 21
1759.99999999998
 31
0.0
1001
REVIT
1002
{
1070
     1
1000
255042
1002
}
1002
{
1070
     5
1000
29331
1002
}
1002
{
1070
     2
1000
-2000011
1002
}
  0
LINE
  5
A4
330
70
100
AcDbEntity
  8
A-WALL
100
AcDbLine
 10
-1124.526626233716
 20
1759.99999999998
 30
0.0
 11
-1124.526626233716
 21
1799.99999999998
 31
0.0
1001
REVIT
1002
{
1070
     1
1000
255042
1002
}
1002
{
1070
     5
1000
29331
1002
}
1002
{
1070
     2
1000
-2000011
1002
}
  0
LINE
  5
A5
330
70
100
AcDbEntity
  8
A-WALL
100
AcDbLine
 10
-1124.526626233716
 20
1799.99999999998
 30
0.0
 11
-1074.526626233716
 21
1799.99999999998
 31
0.0
1001
REVIT
1002
{
1070
     1
1000
255042
1002
}
1002
{
1070
     5
1000
29331
1002
}
1002
{
1070
     2
1000
-2000011
1002
}
  0
LINE
  5
A7
330
70
100
AcDbEntity
  8
A-WALL
100
AcDbLine
 10
-1174.526626233722
 20
825.9786828647133
 30
0.0
 11
-1174.526626233719
 21
1759.99999999998
 31
0.0
1001
REVIT
1002
{
1070
     1
1000
255042
1002
}
1002
{
1070
     5
1000
29331
1002
}
1002
{
1070
     2
1000
-2000011
1002
}
  0
LINE
  5
A8
330
70
100
AcDbEntity
  8
A-WALL
100
AcDbLine
 10
-1174.526626233669
 20
788.1531270580021
 30
0.0
 11
-1174.526626233669
 21
794.9999999999809
 31
0.0
1001
REVIT
1002
{
1070
     1
1000
255042
1002
}
1002
{
1070
     5
1000
29331
1002
}
1002
{
1070
     2
1000
-2000011
1002
}
  0
LINE
  5
A9
330
70
100
AcDbEntity
  8
A-WALL
100
AcDbLine
 10
2925.473373766277
 20
2749.99999999998
 30
0.0
 11
2925.473373766277
 21
-0.0000000000194916
 31
0.0
1001
REVIT
1002
{
1070
     1
1000
255126
1002
}
1002
{
1070
     5
1000
29331
1002
}
1002
{
1070
     2
1000
-2000011
1002
}
  0
LINE
  5
AA
330
70
100
AcDbEntity
  8
A-WALL
100
AcDbLine
 10
6875.473373766301
 20
799.9999999999809
 30
0.0
 11
4775.473373766303
 21
799.9999999999809
 31
0.0
1001
REVIT
1002
{
1070
     1
1000
255172
1002
}
1002
{
1070
     5
1000
29331
1002
}
1002
{
1070
     2
1000
-2000011
1002
}
  0
LINE
  5
AB
330
70
100
AcDbEntity
  8
A-WALL
100
AcDbLine
 10
4775.473373766303
 20
799.9999999999809
 30
0.0
 11
4775.473373766303
 21
1799.99999999998
 31
0.0
1001
REVIT
1002
{
1070
     1
1000
255172
1002
}
1002
{
1070
     5
1000
29331
1002
}
1002
{
1070
     2
1000
-2000011
1002
}
  0
LINE
  5
AC
330
70
100
AcDbEntity
  8
A-WALL
100
AcDbLine
 10
4775.473373766303
 20
1799.99999999998
 30
0.0
 11
6875.473373766301
 21
1799.999999999981
 31
0.0
1001
REVIT
1002
{
1070
     1
1000
255172
1002
}
1002
{
1070
     5
1000
29331
1002
}
1002
{
1070
     2
1000
-2000011
1002
}
  0
LINE
  5
AD
330
70
100
AcDbEntity
  8
A-WALL
100
AcDbLine
 10
6875.473373766301
 20
1799.999999999981
 30
0.0
 11
6875.473373766301
 21
799.9999999999809
 31
0.0
1001
REVIT
1002
{
1070
     1
1000
255172
1002
}
1002
{
1070
     5
1000
29331
1002
}
1002
{
1070
     2
1000
-2000011
1002
}
  0
INSERT
  5
C4
330
70
100
AcDbEntity
  8
A-GLAZ
370
     9
100
AcDbBlockReference
  2
1 Vantail - Droit - 0_60 m x 0_95 m - Appui en aluminium _2_00m large_-255854-Coupe 1
 10
0.0
 20
0.0
 30
0.0
1001
REVIT
1002
{
1070
     1
1000
255403
1002
}
1002
{
1070
     5
1000
255852
1002
}
1002
{
1070
     2
1000
-2000014
1002
}
1002
{
1070
     3
1000
135838
1002
}
  0
INSERT
  5
F5
330
70
100
AcDbEntity
  8
A-GLAZ
370
     9
100
AcDbBlockReference
  2
1 Vantail - Droit - 0_60 m x 0_95 m - Appui en aluminium _2_00m large_-V1-Coupe 1
 10
0.0
 20
0.0
 30
0.0
1001
REVIT
1002
{
1070
     1
1000
255475
1002
}
1002
{
1070
     5
1000
255852
1002
}
1002
{
1070
     2
1000
-2000014
1002
}
1002
{
1070
     3
1000
135838
1002
}
  0
INSERT
  5
125
330
70
100
AcDbEntity
  8
A-GLAZ
370
     9
100
AcDbBlockReference
  2
1 Vantail - Droit - 0_60 m x 0_95 m - Appui en aluminium _2_00m large_-V2-Coupe 1
 10
0.0
 20
0.0
 30
0.0
1001
REVIT
1002
{
1070
     1
1000
255663
1002
}
1002
{
1070
     5
1000
255852
1002
}
1002
{
1070
     2
1000
-2000014
1002
}
1002
{
1070
     3
1000
135838
1002
}
  0
LINE
  5
126
330
70
100
AcDbEntity
  8
A-WALL
100
AcDbLine
 10
8725.473373766305
 20
5749.999999999979
 30
0.0
 11
8725.473373766305
 21
4799.999999999981
 31
0.0
1001
REVIT
1002
{
1070
     1
1000
255856
1002
}
1002
{
1070
     5
1000
29331
1002
}
1002
{
1070
     2
1000
-2000011
1002
}
  0
LINE
  5
127
330
70
100
AcDbEntity
  8
A-WALL
100
AcDbLine
 10
8725.473373766305
 20
4799.999999999981
 30
0.0
 11
8775.473373766306
 21
4799.99999999998
 31
0.0
1001
REVIT
1002
{
1070
     1
1000
255856
1002
}
1002
{
1070
     5
1000
29331
1002
}
1002
{
1070
     2
1000
-2000011
1002
}
  0
LINE
  5
128
330
70
100
AcDbEntity
  8
A-WALL
100
AcDbLine
 10
8775.473373766306
 20
4799.99999999998
 30
0.0
 11
8775.473373766306
 21
4759.999999999981
 31
0.0
1001
REVIT
1002
{
1070
     1
1000
255856
1002
}
1002
{
1070
     5
1000
29331
1002
}
1002
{
1070
     2
1000
-2000011
1002
}
  0
LINE
  5
129
330
70
100
AcDbEntity
  8
A-WALL
100
AcDbLine
 10
8775.473373766306
 20
4759.999999999981
 30
0.0
 11
8825.47337376631
 21
4759.99999999998
 31
0.0
1001
REVIT
1002
{
1070
     1
1000
255856
1002
}
1002
{
1070
     5
1000
29331
1002
}
1002
{
1070
     2
1000
-2000011
1002
}
  0
LINE
  5
12B
330
70
100
AcDbEntity
  8
A-WALL
100
AcDbLine
 10
8825.47337376631
 20
4749.999999999981
 30
0.0
 11
8925.473373766307
 21
4749.999999999981
 31
0.0
1001
REVIT
1002
{
1070
     1
1000
255856
1002
}
1002
{
1070
     5
1000
29331
1002
}
1002
{
1070
     2
1000
-2000011
1002
}
  0
LINE
  5
12C
330
70
100
AcDbEntity
  8
A-WALL
100
AcDbLine
 10
8925.47337376631
 20
3777.64270353143
 30
0.0
 11
8925.473373766307
 21
5749.999999999979
 31
0.0
1001
REVIT
1002
{
1070
     1
1000
255856
1002
}
1002
{
1070
     5
1000
29331
1002
}
1002
{
1070
     2
1000
-2000011
1002
}
  0
LINE
  5
131
330
70
100
AcDbEntity
  8
A-WALL
100
AcDbLine
 10
8925.473373766307
 20
3772.387491768095
 30
0.0
 11
8805.473373766259
 21
3784.999999999981
 31
0.0
1001
REVIT
1002
{
1070
     1
1000
255856
1002
}
1002
{
1070
     5
1000
29331
1002
}
1002
{
1070
     2
1000
-2000011
1002
}
  0
LINE
  5
132
330
70
100
AcDbEntity
  8
A-WALL
100
AcDbLine
 10
8805.473373766259
 20
3784.999999999981
 30
0.0
 11
8805.473373766259
 21
3799.999999999981
 31
0.0
1001
REVIT
1002
{
1070
     1
1000
255856
1002
}
1002
{
1070
     5
1000
29331
1002
}
1002
{
1070
     2
1000
-2000011
1002
}
  0
LINE
  5
133
330
70
100
AcDbEntity
  8
A-WALL
100
AcDbLine
 10
8805.473373766259
 20
3799.999999999981
 30
0.0
 11
8725.473373766305
 21
3799.999999999982
 31
0.0
1001
REVIT
1002
{
1070
     1
1000
255856
1002
}
1002
{
1070
     5
1000
29331
1002
}
1002
{
1070
     2
1000
-2000011
1002
}
  0
LINE
  5
135
330
70
100
AcDbEntity
  8
A-WALL
100
AcDbLine
 10
8825.47337376631
 20
4759.99999999998
 30
0.0
 11
8825.473373766314
 21
3825.978682864712
 31
0.0
1001
REVIT
1002
{
1070
     1
1000
255856
1002
}
1002
{
1070
     5
1000
29331
1002
}
1002
{
1070
     2
1000
-2000011
1002
}
  0
LINE
  5
136
330
70
100
AcDbEntity
  8
A-WALL
100
AcDbLine
 10
8825.473373766266
 20
3794.999999999981
 30
0.0
 11
8825.473373766266
 21
3788.153127058003
 31
0.0
1001
REVIT
1002
{
1070
     1
1000
255856
1002
}
1002
{
1070
     5
1000
29331
1002
}
1002
{
1070
     2
1000
-2000011
1002
}
  0
LINE
  5
138
330
70
100
AcDbEntity
  8
A-WALL
100
AcDbLine
 10
-1074.526626233716
 20
3799.999999999981
 30
0.0
 11
-1154.526626233671
 21
3799.999999999981
 31
0.0
1001
REVIT
1002
{
1070
     1
1000
255858
1002
}
1002
{
1070
     5
1000
29331
1002
}
1002
{
1070
     2
1000
-2000011
1002
}
  0
LINE
  5
139
330
70
100
AcDbEntity
  8
A-WALL
100
AcDbLine
 10
-1154.526626233671
 20
3799.999999999981
 30
0.0
 11
-1154.526626233671
 21
3784.999999999981
 31
0.0
1001
REVIT
1002
{
1070
     1
1000
255858
1002
}
1002
{
1070
     5
1000
29331
1002
}
1002
{
1070
     2
1000
-2000011
1002
}
  0
LINE
  5
13A
330
70
100
AcDbEntity
  8
A-WALL
100
AcDbLine
 10
-1154.526626233671
 20
3784.999999999981
 30
0.0
 11
-1274.526626233717
 21
3772.387491768095
 31
0.0
1001
REVIT
1002
{
1070
     1
1000
255858
1002
}
1002
{
1070
     5
1000
29331
1002
}
1002
{
1070
     2
1000
-2000011
1002
}
  0
LINE
  5
13D
330
70
100
AcDbEntity
  8
A-WALL
100
AcDbLine
 10
-1074.526626233716
 20
4799.99999999998
 30
0.0
 11
-1074.526626233716
 21
5749.999999999979
 31
0.0
1001
REVIT
1002
{
1070
     1
1000
255858
1002
}
1002
{
1070
     5
1000
29331
1002
}
1002
{
1070
     2
1000
-2000011
1002
}
  0
LINE
  5
13F
330
70
100
AcDbEntity
  8
A-WALL
100
AcDbLine
 10
-1274.526626233717
 20
5749.999999999979
 30
0.0
 11
-1274.52662623372
 21
3777.64270353143
 31
0.0
1001
REVIT
1002
{
1070
     1
1000
255858
1002
}
1002
{
1070
     5
1000
29331
1002
}
1002
{
1070
     2
1000
-2000011
1002
}
  0
LINE
  5
140
330
70
100
AcDbEntity
  8
A-WALL
100
AcDbLine
 10
-1274.526626233717
 20
4749.999999999981
 30
0.0
 11
-1174.526626233719
 21
4749.999999999981
 31
0.0
1001
REVIT
1002
{
1070
     1
1000
255858
1002
}
1002
{
1070
     5
1000
29331
1002
}
1002
{
1070
     2
1000
-2000011
1002
}
  0
LINE
  5
142
330
70
100
AcDbEntity
  8
A-WALL
100
AcDbLine
 10
-1174.526626233719
 20
4759.99999999998
 30
0.0
 11
-1124.526626233716
 21
4759.999999999981
 31
0.0
1001
REVIT
1002
{
1070
     1
1000
255858
1002
}
1002
{
1070
     5
1000
29331
1002
}
1002
{
1070
     2
1000
-2000011
1002
}
  0
LINE
  5
143
330
70
100
AcDbEntity
  8
A-WALL
100
AcDbLine
 10
-1124.526626233716
 20
4759.999999999981
 30
0.0
 11
-1124.526626233716
 21
4799.99999999998
 31
0.0
1001
REVIT
1002
{
1070
     1
1000
255858
1002
}
1002
{
1070
     5
1000
29331
1002
}
1002
{
1070
     2
1000
-2000011
1002
}
  0
LINE
  5
144
330
70
100
AcDbEntity
  8
A-WALL
100
AcDbLine
 10
-1124.526626233716
 20
4799.99999999998
 30
0.0
 11
-1074.526626233716
 21
4799.99999999998
 31
0.0
1001
REVIT
1002
{
1070
     1
1000
255858
1002
}
1002
{
1070
     5
1000
29331
1002
}
1002
{
1070
     2
1000
-2000011
1002
}
  0
LINE
  5
146
330
70
100
AcDbEntity
  8
A-WALL
100
AcDbLine
 10
-1174.526626233722
 20
3825.978682864714
 30
0.0
 11
-1174.526626233719
 21
4759.99999999998
 31
0.0
1001
REVIT
1002
{
1070
     1
1000
255858
1002
}
1002
{
1070
     5
1000
29331
1002
}
1002
{
1070
     2
1000
-2000011
1002
}
  0
LINE
  5
147
330
70
100
AcDbEntity
  8
A-WALL
100
AcDbLine
 10
-1174.526626233669
 20
3788.153127058003
 30
0.0
 11
-1174.526626233669
 21
3794.999999999981
 31
0.0
1001
REVIT
1002
{
1070
     1
1000
255858
1002
}
1002
{
1070
     5
1000
29331
1002
}
1002
{
1070
     2
1000
-2000011
1002
}
  0
LINE
  5
148
330
70
100
AcDbEntity
  8
A-WALL
100
AcDbLine
 10
8925.473373766307
 20
5749.999999999979
 30
0.0
 11
-1274.526626233717
 21
5749.999999999979
 31
0.0
1001
REVIT
1002
{
1070
     1
1000
255859
1002
}
1002
{
1070
     5
1000
29331
1002
}
1002
{
1070
     2
1000
-2000011
1002
}
  0
LINE
  5
149
330
70
100
AcDbEntity
  8
A-WALL
100
AcDbLine
 10
6875.473373766306
 20
3799.999999999981
 30
0.0
 11
4775.473373766308
 21
3799.999999999981
 31
0.0
1001
REVIT
1002
{
1070
     1
1000
255859
1002
}
1002
{
1070
     5
1000
29331
1002
}
1002
{
1070
     2
1000
-2000011
1002
}
  0
LINE
  5
14A
330
70
100
AcDbEntity
  8
A-WALL
100
AcDbLine
 10
4775.473373766308
 20
3799.999999999981
 30
0.0
 11
4775.473373766308
 21
4799.99999999998
 31
0.0
1001
REVIT
1002
{
1070
     1
1000
255859
1002
}
1002
{
1070
     5
1000
29331
1002
}
1002
{
1070
     2
1000
-2000011
1002
}
  0
LINE
  5
14B
330
70
100
AcDbEntity
  8
A-WALL
100
AcDbLine
 10
4775.473373766308
 20
4799.99999999998
 30
0.0
 11
6875.473373766306
 21
4799.999999999981
 31
0.0
1001
REVIT
1002
{
1070
     1
1000
255859
1002
}
1002
{
1070
     5
1000
29331
1002
}
1002
{
1070
     2
1000
-2000011
1002
}
  0
LINE
  5
14C
330
70
100
AcDbEntity
  8
A-WALL
100
AcDbLine
 10
6875.473373766306
 20
4799.999999999981
 30
0.0
 11
6875.473373766306
 21
3799.999999999981
 31
0.0
1001
REVIT
1002
{
1070
     1
1000
255859
1002
}
1002
{
1070
     5
1000
29331
1002
}
1002
{
1070
     2
1000
-2000011
1002
}
  0
INSERT
  5
14D
330
70
100
AcDbEntity
  8
A-GLAZ
370
     9
100
AcDbBlockReference
  2
1 Vantail - Droit - 0_60 m x 0_95 m - Appui en aluminium _2_00m large_-V1-Coupe 1
 10
0.0
 20
3000.0
 30
0.0
1001
REVIT
1002
{
1070
     1
1000
255865
1002
}
1002
{
1070
     5
1000
255852
1002
}
1002
{
1070
     2
1000
-2000014
1002
}
1002
{
1070
     3
1000
135838
1002
}
  0
INSERT
  5
14E
330
70
100
AcDbEntity
  8
A-GLAZ
370
     9
100
AcDbBlockReference
  2
1 Vantail - Droit - 0_60 m x 0_95 m - Appui en aluminium _2_00m large_-V2-Coupe 1
 10
0.0
 20
3000.0
 30
0.0
1001
REVIT
1002
{
1070
     1
1000
255868
1002
}
1002
{
1070
     5
1000
255852
1002
}
1002
{
1070
     2
1000
-2000014
1002
}
1002
{
1070
     3
1000
135838
1002
}
  0
HATCH
  5
155
330
70
100
AcDbEntity
  8
A-FLOR-PATT
370
     9
100
AcDbHatch
 10
0.0
 20
0.0
 30
0.0
210
0.0
220
0.0
230
1.0
  2
FP_1
 70
     0
 71
     0
 91
        1
 92
        1
 93
        5
 72
     1
 10
8725.473373766311
 20
-250.0000000000222
 11
8725.473373766311
 21
-0.0000000000216573
 72
     1
 10
8725.473373766311
 20
-0.0000000000216573
 11
-1274.526626233722
 21
-0.0000000000216573
 72
     1
 10
-1274.526626233722
 20
-0.0000000000216573
 11
-1274.526626233722
 21
-250.0000000000222
 72
     1
 10
-1274.526626233722
 20
-250.0000000000222
 11
7574.885378640432
 21
-250.0000000000222
 72
     1
 10
7574.885378640434
 20
-250.0000000000222
 11
8725.473373766311
 21
-250.0000000000222
 97
        0
 75
     0
 76
     2
 52
0.0
 41
1.0
 77
     0
 78
    17
 53
50.0
 43
3863.521
 44
2750.0
 45
728.7365011075199
 46
-63.75582262483607
 79
     2
 49
76.2
 49
-838.2000000000001
 53
355.0
 43
3863.521
 44
2750.0
 45
-140.9716152248045
 46
764.227602585715
 79
     2
 49
60.96
 49
-670.5599999999999
 53
100.451
 43
3924.249000000001
 44
2744.687
 45
587.7700066638369
 46
700.4667512811675
 79
     2
 49
64.76
 49
-712.36
 53
46.184
 43
3863.521
 44
2953.2
 45
1084.316239662759
 46
-168.1709612287867
 79
     2
 49
114.3
 49
-1257.3
 53
96.636
 43
3953.881
 44
2939.186
 45
949.6099128555584
 46
989.7098464133105
 79
     2
 49
97.14
 49
-1068.54
 53
351.184
 43
3863.521
 44
2953.2
 45
949.620552888774
 46
989.7011531044203
 79
     2
 49
91.44
 49
-1005.84
 53
21.0
 43
3965.121
 44
2902.4
 45
606.4578690252075
 46
-409.0605652741464
 79
     2
 49
76.2
 49
-838.2000000000001
 53
326.0
 43
3965.121
 44
2902.4
 45
247.208340968463
 46
736.752917204011
 79
     2
 49
60.96
 49
-670.5599999999999
 53
71.45100000000001
 43
4015.659
 44
2868.312
 45
853.6682507774541
 46
327.6854711435369
 79
     2
 49
64.76
 49
-712.36
 53
37.5
 43
3863.521
 44
2750.0
 45
12.35469342532113
 46
338.2201185742302
 79
     5
 49
33.528
 49
-628.9039999999999
 49
33.528
 49
-647.1919999999999
 49
-673.1
 53
37.5
 43
3863.521
 44
2750.0
 45
12.35469342532113
 46
338.2201185742302
 79
     3
 49
-1343.152
 49
33.528
 49
-639.5719999999999
 53
7.499999999999999
 43
3863.521
 44
2750.0
 45
267.2788744354337
 46
400.7221270887441
 79
     5
 49
33.528
 49
-354.584
 49
33.528
 49
-613.6639999999999
 49
-256.54
 53
7.499999999999999
 43
3863.521
 44
2750.0
 45
267.2788744354337
 46
400.7221270887441
 79
     3
 49
-1035.304
 49
33.528
 49
-223.012
 53
327.5
 43
3636.953
 44
2750.0
 45
542.363331518853
 46
-22.91534459201296
 79
     5
 49
33.528
 49
-220.472
 49
33.528
 49
-758.952
 49
-1051.56
 53
327.5
 43
3636.953
 44
2750.0
 45
542.363331518853
 46
-22.91534459201296
 79
     3
 49
-1046.48
 49
33.528
 49
-1018.032
 53
317.5
 43
3535.353
 44
2750.0
 45
592.5169587678777
 46
101.7071067647935
 79
     5
 49
33.528
 49
-296.672
 49
33.528
 49
-492.7599999999999
 49
-746.76
 53
317.5
 43
3535.353
 44
2750.0
 45
592.5169587678777
 46
101.7071067647935
 79
     3
 49
-856.488
 49
33.528
 49
-713.2319999999999
 98
        1
 10
0.0
 20
0.0
1001
REVIT
1002
{
1070
     1
1000
255893
1002
}
1002
{
1070
     5
1000
634
1002
}
1002
{
1070
     2
1000
-2000032
1002
}
1002
{
1070
     3
1000
-2000608
1002
}
  0
LINE
  5
156
330
70
100
AcDbEntity
  8
A-FLOR
100
AcDbLine
 10
-1274.526626233716
 20
-250.0000000000195
 30
0.0
 11
8725.473373766305
 21
-250.0000000000195
 31
0.0
1001
REVIT
1002
{
1070
     1
1000
255893
1002
}
1002
{
1070
     5
1000
634
1002
}
1002
{
1070
     2
1000
-2000032
1002
}
  0
LINE
  5
157
330
70
100
AcDbEntity
  8
A-FLOR
100
AcDbLine
 10
8725.473373766305
 20
-250.0000000000195
 30
0.0
 11
8725.473373766305
 21
-0.0000000000194916
 31
0.0
1001
REVIT
1002
{
1070
     1
1000
255893
1002
}
1002
{
1070
     5
1000
634
1002
}
1002
{
1070
     2
1000
-2000032
1002
}
  0
LINE
  5
158
330
70
100
AcDbEntity
  8
A-FLOR
100
AcDbLine
 10
8725.473373766305
 20
-0.0000000000194916
 30
0.0
 11
-1274.526626233714
 21
-0.0000000000194916
 31
0.0
1001
REVIT
1002
{
1070
     1
1000
255893
1002
}
1002
{
1070
     5
1000
634
1002
}
1002
{
1070
     2
1000
-2000032
1002
}
  0
LINE
  5
159
330
70
100
AcDbEntity
  8
A-FLOR
100
AcDbLine
 10
-1274.526626233716
 20
-0.0000000000194916
 30
0.0
 11
-1274.526626233716
 21
-250.0000000000195
 31
0.0
1001
REVIT
1002
{
1070
     1
1000
255893
1002
}
1002
{
1070
     5
1000
634
1002
}
1002
{
1070
     2
1000
-2000032
1002
}
  0
HATCH
  5
15F
330
70
100
AcDbEntity
  8
A-FLOR-PATT
370
     9
100
AcDbHatch
 10
0.0
 20
0.0
 30
0.0
210
0.0
220
0.0
230
1.0
  2
FP_1
 70
     0
 71
     0
 91
        1
 92
        1
 93
        5
 72
     1
 10
8725.472999999992
 20
2749.99999999998
 11
8725.472999999992
 21
2999.999999999981
 72
     1
 10
8725.472999999992
 20
2999.999999999981
 11
-1274.527000000016
 21
2999.999999999981
 72
     1
 10
-1274.527000000017
 20
2999.999999999981
 11
-1274.527000000017
 21
2749.99999999998
 72
     1
 10
-1274.527000000017
 20
2749.99999999998
 11
7574.885378640434
 21
2749.99999999998
 72
     1
 10
7574.885378640434
 20
2749.99999999998
 11
8725.472999999992
 21
2749.99999999998
 97
        0
 75
     0
 76
     2
 52
0.0
 41
1.0
 77
     0
 78
    17
 53
50.0
 43
3863.521
 44
2750.0
 45
728.7365011075199
 46
-63.75582262483607
 79
     2
 49
76.2
 49
-838.2000000000001
 53
355.0
 43
3863.521
 44
2750.0
 45
-140.9716152248045
 46
764.227602585715
 79
     2
 49
60.96
 49
-670.5599999999999
 53
100.451
 43
3924.249000000001
 44
2744.687
 45
587.7700066638369
 46
700.4667512811675
 79
     2
 49
64.76
 49
-712.36
 53
46.184
 43
3863.521
 44
2953.2
 45
1084.316239662759
 46
-168.1709612287867
 79
     2
 49
114.3
 49
-1257.3
 53
96.636
 43
3953.881
 44
2939.186
 45
949.6099128555584
 46
989.7098464133105
 79
     2
 49
97.14
 49
-1068.54
 53
351.184
 43
3863.521
 44
2953.2
 45
949.620552888774
 46
989.7011531044203
 79
     2
 49
91.44
 49
-1005.84
 53
21.0
 43
3965.121
 44
2902.4
 45
606.4578690252075
 46
-409.0605652741464
 79
     2
 49
76.2
 49
-838.2000000000001
 53
326.0
 43
3965.121
 44
2902.4
 45
247.208340968463
 46
736.752917204011
 79
     2
 49
60.96
 49
-670.5599999999999
 53
71.45100000000001
 43
4015.659
 44
2868.312
 45
853.6682507774541
 46
327.6854711435369
 79
     2
 49
64.76
 49
-712.36
 53
37.5
 43
3863.521
 44
2750.0
 45
12.35469342532113
 46
338.2201185742302
 79
     5
 49
33.528
 49
-628.9039999999999
 49
33.528
 49
-647.1919999999999
 49
-673.1
 53
37.5
 43
3863.521
 44
2750.0
 45
12.35469342532113
 46
338.2201185742302
 79
     3
 49
-1343.152
 49
33.528
 49
-639.5719999999999
 53
7.499999999999999
 43
3863.521
 44
2750.0
 45
267.2788744354337
 46
400.7221270887441
 79
     5
 49
33.528
 49
-354.584
 49
33.528
 49
-613.6639999999999
 49
-256.54
 53
7.499999999999999
 43
3863.521
 44
2750.0
 45
267.2788744354337
 46
400.7221270887441
 79
     3
 49
-1035.304
 49
33.528
 49
-223.012
 53
327.5
 43
3636.953
 44
2750.0
 45
542.363331518853
 46
-22.91534459201296
 79
     5
 49
33.528
 49
-220.472
 49
33.528
 49
-758.952
 49
-1051.56
 53
327.5
 43
3636.953
 44
2750.0
 45
542.363331518853
 46
-22.91534459201296
 79
     3
 49
-1046.48
 49
33.528
 49
-1018.032
 53
317.5
 43
3535.353
 44
2750.0
 45
592.5169587678777
 46
101.7071067647935
 79
     5
 49
33.528
 49
-296.672
 49
33.528
 49
-492.7599999999999
 49
-746.76
 53
317.5
 43
3535.353
 44
2750.0
 45
592.5169587678777
 46
101.7071067647935
 79
     3
 49
-856.488
 49
33.528
 49
-713.2319999999999
 98
        1
 10
0.0
 20
0.0
1001
REVIT
1002
{
1070
     1
1000
256095
1002
}
1002
{
1070
     5
1000
634
1002
}
1002
{
1070
     2
1000
-2000032
1002
}
1002
{
1070
     3
1000
-2000608
1002
}
  0
LINE
  5
160
330
70
100
AcDbEntity
  8
A-FLOR
100
AcDbLine
 10
-1274.527000000009
 20
2749.99999999998
 30
0.0
 11
8725.47299999999
 21
2749.99999999998
 31
0.0
1001
REVIT
1002
{
1070
     1
1000
256095
1002
}
1002
{
1070
     5
1000
634
1002
}
1002
{
1070
     2
1000
-2000032
1002
}
  0
LINE
  5
161
330
70
100
AcDbEntity
  8
A-FLOR
100
AcDbLine
 10
8725.47299999999
 20
2749.99999999998
 30
0.0
 11
8725.47299999999
 21
2999.99999999998
 31
0.0
1001
REVIT
1002
{
1070
     1
1000
256095
1002
}
1002
{
1070
     5
1000
634
1002
}
1002
{
1070
     2
1000
-2000032
1002
}
  0
LINE
  5
162
330
70
100
AcDbEntity
  8
A-FLOR
100
AcDbLine
 10
8725.47299999999
 20
2999.99999999998
 30
0.0
 11
-1274.527000000009
 21
2999.99999999998
 31
0.0
1001
REVIT
1002
{
1070
     1
1000
256095
1002
}
1002
{
1070
     5
1000
634
1002
}
1002
{
1070
     2
1000
-2000032
1002
}
  0
LINE
  5
163
330
70
100
AcDbEntity
  8
A-FLOR
100
AcDbLine
 10
-1274.527000000009
 20
2999.99999999998
 30
0.0
 11
-1274.527000000009
 21
2749.99999999998
 31
0.0
1001
REVIT
1002
{
1070
     1
1000
256095
1002
}
1002
{
1070
     5
1000
634
1002
}
1002
{
1070
     2
1000
-2000032
1002
}
  0
INSERT
  5
164
330
70
100
AcDbEntity
  8
A-GLAZ
370
     9
100
AcDbBlockReference
  2
1 Vantail - Droit - 0_60 m x 0_95 m - Appui en aluminium _2_00m large_-255854-Coupe 1
 10
0.0
 20
3000.0
 30
0.0
1001
REVIT
1002
{
1070
     1
1000
256661
1002
}
1002
{
1070
     5
1000
255852
1002
}
1002
{
1070
     2
1000
-2000014
1002
}
1002
{
1070
     3
1000
135838
1002
}
  0
INSERT
  5
170
330
70
100
AcDbEntity
  8
A-FLOR-LEVL
100
AcDbBlockReference
  2
Niveau - Marqueur de niveau - Point triangulaire-1765-Coupe 1
 10
0.0
 20
0.0
 30
0.0
1001
REVIT
1002
{
1070
     1
1000
608
1002
}
1002
{
1070
     5
1000
602
1002
}
1002
{
1070
     2
1000
-2006020
1002
}
  0
MTEXT
  5
172
330
70
100
AcDbEntity
  8
A-FLOR-LEVL
100
AcDbMText
 10
14045.66367593553
 20
321.6144720026242
 30
0.0
 40
299.9999999999996
 41
1980.168124999997
 46
0.0
 71
     1
 72
     1
  1
Niveau 0
  7
Trebuchet MS
 73
     2
 44
1.0
1001
REVIT
1002
{
1070
     1
1000
608
1002
}
1002
{
1070
     5
1000
602
1002
}
1002
{
1070
     2
1000
-2006020
1002
}
  0
MTEXT
  5
173
330
70
100
AcDbEntity
  8
A-FLOR-LEVL
100
AcDbMText
 10
14045.66367593553
 20
951.1201472572096
 30
0.0
 40
299.9999999999996
 41
272.5737499999997
 46
0.0
 71
     1
 72
     1
  1
0
  7
Trebuchet MS
 73
     2
 44
1.0
1001
REVIT
1002
{
1070
     1
1000
608
1002
}
1002
{
1070
     5
1000
602
1002
}
1002
{
1070
     2
1000
-2006020
1002
}
  0
LINE
  5
175
330
70
100
AcDbEntity
  8
A-FLOR-LEVL
  6
Tiret point
100
AcDbLine
 10
-6118.069306400009
 20
-0.000000000017846
 30
0.0
 11
13845.11095584409
 21
-0.000000000017846
 31
0.0
1001
REVIT
1002
{
1070
     1
1000
608
1002
}
1002
{
1070
     5
1000
602
1002
}
1002
{
1070
     2
1000
-2000240
1002
}
  0
INSERT
  5
176
330
70
100
AcDbEntity
  8
A-FLOR-LEVL
100
AcDbBlockReference
  2
Niveau - Marqueur de niveau - Point triangulaire-1765-Coupe 1
 10
0.0
 20
2999.99999999999
 30
0.0
 41
1.0
 42
1.0
 43
1.0
1001
REVIT
1002
{
1070
     1
1000
1910
1002
}
1002
{
1070
     5
1000
602
1002
}
1002
{
1070
     2
1000
-2006020
1002
}
  0
MTEXT
  5
177
330
70
100
AcDbEntity
  8
A-FLOR-LEVL
100
AcDbMText
 10
14045.66367593552
 20
3321.614472002613
 30
0.0
 40
299.9999999999996
 41
1980.168124999997
 46
0.0
 71
     1
 72
     1
  1
Niveau 1
  7
Trebuchet MS
 73
     2
 44
1.0
1001
REVIT
1002
{
1070
     1
1000
1910
1002
}
1002
{
1070
     5
1000
602
1002
}
1002
{
1070
     2
1000
-2006020
1002
}
  0
MTEXT
  5
178
330
70
100
AcDbEntity
  8
A-FLOR-LEVL
100
AcDbMText
 10
14045.66367593552
 20
3951.120147257198
 30
0.0
 40
299.9999999999996
 41
1010.126249999999
 46
0.0
 71
     1
 72
     1
  1
3.00
  7
Trebuchet MS
 73
     2
 44
1.0
1001
REVIT
1002
{
1070
     1
1000
1910
1002
}
1002
{
1070
     5
1000
602
1002
}
1002
{
1070
     2
1000
-2006020
1002
}
  0
LINE
  5
179
330
70
100
AcDbEntity
  8
A-FLOR-LEVL
  6
Tiret point
100
AcDbLine
 10
-6118.069306400009
 20
2999.999999999974
 30
0.0
 11
13845.11095584409
 21
2999.999999999974
 31
0.0
1001
REVIT
1002
{
1070
     1
1000
1910
1002
}
1002
{
1070
     5
1000
602
1002
}
1002
{
1070
     2
1000
-2000240
1002
}
  0
INSERT
  5
17A
330
70
100
AcDbEntity
  8
A-FLOR-LEVL
100
AcDbBlockReference
  2
Niveau - Marqueur de niveau - Point triangulaire-1765-Coupe 1
 10
0.0
 20
6000.000000000065
 30
0.0
 41
1.0
 42
1.0
 43
1.0
1001
REVIT
1002
{
1070
     1
1000
2049
1002
}
1002
{
1070
     5
1000
602
1002
}
1002
{
1070
     2
1000
-2006020
1002
}
  0
MTEXT
  5
17B
330
70
100
AcDbEntity
  8
A-FLOR-LEVL
100
AcDbMText
 10
14045.66367593552
 20
6321.614472002689
 30
0.0
 40
299.9999999999996
 41
1980.168124999997
 46
0.0
 71
     1
 72
     1
  1
Niveau 2
  7
Trebuchet MS
 73
     2
 44
1.0
1001
REVIT
1002
{
1070
     1
1000
2049
1002
}
1002
{
1070
     5
1000
602
1002
}
1002
{
1070
     2
1000
-2006020
1002
}
  0
MTEXT
  5
17C
330
70
100
AcDbEntity
  8
A-FLOR-LEVL
100
AcDbMText
 10
14045.66367593552
 20
6951.120147257274
 30
0.0
 40
299.9999999999996
 41
1010.126249999999
 46
0.0
 71
     1
 72
     1
  1
6.00
  7
Trebuchet MS
 73
     2
 44
1.0
1001
REVIT
1002
{
1070
     1
1000
2049
1002
}
1002
{
1070
     5
1000
602
1002
}
1002
{
1070
     2
1000
-2006020
1002
}
  0
LINE
  5
17D
330
70
100
AcDbEntity
  8
A-FLOR-LEVL
  6
Tiret point
100
AcDbLine
 10
-6118.069306400009
 20
5999.999999999986
 30
0.0
 11
13845.11095584409
 21
6000.000000000051
 31
0.0
1001
REVIT
1002
{
1070
     1
1000
2049
1002
}
1002
{
1070
     5
1000
602
1002
}
1002
{
1070
     2
1000
-2000240
1002
}
  0
INSERT
  5
18B
330
70
100
AcDbEntity
  8
G-ANNO-SYMB
100
AcDbBlockReference
  2
Coupe - Marque de la ligne de coupe - Verticale pleine-3537-Coupe 1
 10
0.0
 20
0.0
 30
0.0
1001
REVIT
1002
{
1070
     1
1000
256588
1002
}
1002
{
1070
     5
1000
583
1002
}
1002
{
1070
     2
1000
-2000200
1002
}
  0
LINE
  5
18C
330
70
100
AcDbEntity
  8
G-ANNO-SYMB
  6
Tiret point
100
AcDbLine
 10
1359.063198170528
 20
6969.199999999979
 30
0.0
 11
1359.063198170528
 21
-1469.200000000019
 31
0.0
1001
REVIT
1002
{
1070
     1
1000
256588
1002
}
1002
{
1070
     5
1000
583
1002
}
1002
{
1070
     2
1000
-2000200
1002
}
  0
LINE
  5
18D
330
70
100
AcDbEntity
  8
G-ANNO-SYMB
100
AcDbLine
 10
759.0631981705302
 20
7569.199999999975
 30
0.0
 11
1959.06319817053
 21
7569.199999999975
 31
0.0
1001
REVIT
1002
{
1070
     1
1000
256588
1002
}
1002
{
1070
     5
1000
583
1002
}
1002
{
1070
     2
1000
-2000200
1002
}
  0
INSERT
  5
1B3
330
70
100
AcDbEntity
  8
G-ANNO-SYMB
100
AcDbBlockReference
  2
Coupe - Extrémité de la ligne de coupe - Pleine-2974-Coupe 1
 10
0.0
 20
0.0
 30
0.0
1001
REVIT
1002
{
1070
     1
1000
256588
1002
}
1002
{
1070
     5
1000
583
1002
}
1002
{
1070
     2
1000
-2000200
1002
}
  0
MTEXT
  5
1B5
330
70
100
AcDbEntity
  8
G-ANNO-SYMB
100
AcDbMText
 10
1317.305255837156
 20
7978.628115186618
 30
0.0
 40
249.9999999999997
 41
152.3206249999998
 46
0.0
 71
     1
 72
     1
  1
-
  7
Trebuchet MS_1
 73
     2
 44
1.0
1001
REVIT
1002
{
1070
     1
1000
256588
1002
}
1002
{
1070
     5
1000
583
1002
}
1002
{
1070
     2
1000
-2000200
1002
}
  0
MTEXT
  5
1B6
330
70
100
AcDbEntity
  8
G-ANNO-SYMB
100
AcDbMText
 10
1191.805255837157
 20
7448.479645112255
 30
0.0
 40
249.9999999999997
 41
456.9618749999995
 46
0.0
 71
     1
 72
     1
  1
---
  7
Trebuchet MS_1
 73
     2
 44
1.0
1001
REVIT
1002
{
1070
     1
1000
256588
1002
}
1002
{
1070
     5
1000
583
1002
}
1002
{
1070
     2
1000
-2000200
1002
}
  0
INSERT
  5
1B7
330
70
100
AcDbEntity
  8
G-ANNO-SYMB
100
AcDbBlockReference
  2
Coupe - Marque de la ligne de coupe - Verticale pleine-3537-Coupe 1
 10
4483.201873011595
 20
0.0
 30
0.0
 41
1.0
 42
1.0
 43
1.0
1001
REVIT
1002
{
1070
     1
1000
257586
1002
}
1002
{
1070
     5
1000
583
1002
}
1002
{
1070
     2
1000
-2000200
1002
}
  0
LINE
  5
1B8
330
70
100
AcDbEntity
  8
G-ANNO-SYMB
  6
Tiret point
100
AcDbLine
 10
5842.265071182128
 20
6969.199999999979
 30
0.0
 11
5842.265071182128
 21
-1469.200000000019
 31
0.0
1001
REVIT
1002
{
1070
     1
1000
257586
1002
}
1002
{
1070
     5
1000
583
1002
}
1002
{
1070
     2
1000
-2000200
1002
}
  0
LINE
  5
1B9
330
70
100
AcDbEntity
  8
G-ANNO-SYMB
100
AcDbLine
 10
5242.265071182128
 20
7569.199999999975
 30
0.0
 11
6442.265071182127
 21
7569.199999999975
 31
0.0
1001
REVIT
1002
{
1070
     1
1000
257586
1002
}
1002
{
1070
     5
1000
583
1002
}
1002
{
1070
     2
1000
-2000200
1002
}
  0
INSERT
  5
1BA
330
70
100
AcDbEntity
  8
G-ANNO-SYMB
100
AcDbBlockReference
  2
Coupe - Extrémité de la ligne de coupe - Pleine-2974-Coupe 1
 10
4483.201873011596
 20
0.0
 30
0.0
 41
1.0
 42
1.0
 43
1.0
1001
REVIT
1002
{
1070
     1
1000
257586
1002
}
1002
{
1070
     5
1000
583
1002
}
1002
{
1070
     2
1000
-2000200
1002
}
  0
MTEXT
  5
1BB
330
70
100
AcDbEntity
  8
G-ANNO-SYMB
100
AcDbMText
 10
5800.507128848753
 20
7978.628115186618
 30
0.0
 40
249.9999999999997
 41
152.3206249999998
 46
0.0
 71
     1
 72
     1
  1
-
  7
Trebuchet MS_1
 73
     2
 44
1.0
1001
REVIT
1002
{
1070
     1
1000
257586
1002
}
1002
{
1070
     5
1000
583
1002
}
1002
{
1070
     2
1000
-2000200
1002
}
  0
MTEXT
  5
1BC
330
70
100
AcDbEntity
  8
G-ANNO-SYMB
100
AcDbMText
 10
5675.007128848754
 20
7448.479645112255
 30
0.0
 40
249.9999999999997
 41
456.9618749999995
 46
0.0
 71
     1
 72
     1
  1
---
  7
Trebuchet MS_1
 73
     2
 44
1.0
1001
REVIT
1002
{
1070
     1
1000
257586
1002
}
1002
{
1070
     5
1000
583
1002
}
1002
{
1070
     2
1000
-2000200
1002
}
  0
ENDSEC
  0
SECTION
  2
OBJECTS
  0
DICTIONARY
  5
C
330
0
100
AcDbDictionary
281
     1
  3
ACAD_CIP_PREVIOUS_PRODUCT_INFO
350
79
  3
ACAD_COLOR
350
63
  3
ACAD_DETAILVIEWSTYLE
350
6A
  3
ACAD_GROUP
350
D
  3
ACAD_IMAGE_VARS
350
7A
  3
ACAD_LAYOUT
350
62
  3
ACAD_MATERIAL
350
10
  3
ACAD_MLEADERSTYLE
350
66
  3
ACAD_MLINESTYLE
350
5F
  3
ACAD_PLOTSETTINGS
350
61
  3
ACAD_PLOTSTYLENAME
350
E
  3
ACAD_SCALELIST
350
42
  3
ACAD_SECTIONVIEWSTYLE
350
68
  3
ACAD_TABLESTYLE
350
64
  3
ACAD_VISUALSTYLE
350
29
  3
ACDB_RECOMPOSE_DATA
350
1C7
  3
AcDbVariableDictionary
350
7B
  3
REVIT_DICTIONARY
350
1BD
  0
DICTIONARY
  5
1C2
330
70
100
AcDbDictionary
280
     1
281
     1
  3
ACAD_SORTENTS
360
1C3
  0
XRECORD
  5
79
102
{ACAD_REACTORS
330
C
102
}
330
C
100
AcDbXrecord
280
     1
300
RVT
300
2025
300
RVT2025
  0
DICTIONARY
  5
63
102
{ACAD_REACTORS
330
C
102
}
330
C
100
AcDbDictionary
281
     1
  0
DICTIONARY
  5
6A
102
{ACAD_REACTORS
330
C
102
}
330
C
100
AcDbDictionary
281
     1
  3
Imperial24
350
6B
  0
DICTIONARY
  5
D
102
{ACAD_REACTORS
330
C
102
}
330
C
100
AcDbDictionary
281
     1
  0
RASTERVARIABLES
  5
7A
102
{ACAD_REACTORS
330
C
102
}
330
C
100
AcDbRasterVariables
 90
        0
 70
     0
 71
     1
 72
     1
  0
DICTIONARY
  5
62
102
{ACAD_REACTORS
330
C
102
}
330
C
100
AcDbDictionary
281
     1
  3
Layout1
350
6F
  3
Layout2
350
77
  3
Model
350
73
  0
DICTIONARY
  5
10
102
{ACAD_REACTORS
330
C
102
}
330
C
100
AcDbDictionary
281
     1
  3
ByBlock
350
19
  3
ByLayer
350
11
  3
Global
350
21
  0
DICTIONARY
  5
66
102
{ACAD_REACTORS
330
C
102
}
330
C
100
AcDbDictionary
281
     1
  3
Standard
350
67
  0
DICTIONARY
  5
5F
102
{ACAD_REACTORS
330
C
102
}
330
C
100
AcDbDictionary
281
     1
  3
Standard
350
60
  0
DICTIONARY
  5
61
102
{ACAD_REACTORS
330
C
102
}
330
C
100
AcDbDictionary
281
     1
  0
ACDBDICTIONARYWDFLT
  5
E
102
{ACAD_REACTORS
330
C
102
}
330
C
100
AcDbDictionary
281
     1
  3
Normal
350
F
100
AcDbDictionaryWithDefault
340
F
  0
DICTIONARY
  5
42
102
{ACAD_REACTORS
330
C
102
}
330
C
100
AcDbDictionary
281
     1
  3
A0
350
43
  3
A1
350
44
  3
A2
350
45
  3
A3
350
46
  3
A4
350
47
  3
A5
350
48
  3
A6
350
49
  3
A7
350
4A
  3
A8
350
4B
  3
A9
350
4C
  3
B0
350
4D
  3
B1
350
4E
  3
B2
350
4F
  3
B3
350
50
  3
B4
350
51
  3
B5
350
52
  3
B6
350
53
  0
DICTIONARY
  5
68
102
{ACAD_REACTORS
330
C
102
}
330
C
100
AcDbDictionary
281
     1
  3
Imperial24
350
69
  0
DICTIONARY
  5
64
102
{ACAD_REACTORS
330
C
102
}
330
C
100
AcDbDictionary
281
     1
  3
Standard
350
65
  0
DICTIONARY
  5
29
102
{ACAD_REACTORS
330
C
102
}
330
C
100
AcDbDictionary
281
     1
  3
2dWireframe
350
2F
  3
Basic
350
2E
  3
Brighten
350
35
  3
ColorChange
350
39
  3
Conceptual
350
32
  3
Dim
350
34
  3
EdgeColorOff
350
41
  3
Facepattern
350
38
  3
Flat
350
2A
  3
FlatWithEdges
350
2B
  3
Gouraud
350
2C
  3
GouraudWithEdges
350
2D
  3
Hidden
350
31
  3
JitterOff
350
3F
  3
Linepattern
350
37
  3
OverhangOff
350
40
  3
Realistic
350
33
  3
Shaded
350
3E
  3
Shaded with edges
350
3D
  3
Shades of Gray
350
3A
  3
Sketchy
350
3B
  3
Thicken
350
36
  3
Wireframe
350
30
  3
X-Ray
350
3C
  0
XRECORD
  5
1C7
102
{ACAD_REACTORS
330
C
102
}
330
C
100
AcDbXrecord
280
     1
 90
        1
330
65
  0
DICTIONARY
  5
7B
102
{ACAD_REACTORS
330
C
102
}
330
C
100
AcDbDictionary
281
     1
  3
CANNOSCALE
350
80
  3
CMLEADERSTYLE
350
7D
  3
CTABLESTYLE
350
7C
  3
CVIEWDETAILSTYLE
350
7E
  3
CVIEWSECTIONSTYLE
350
7F
  0
DICTIONARY
  5
1BD
102
{ACAD_REACTORS
330
C
102
}
330
C
100
AcDbDictionary
281
     1
  3
DRAWING_TOOL
350
1C1
  3
REVIT_CATEGORY_MAPPING
350
1BF
  3
REVIT_SUB_CATEGORY_MAPPING
350
1C0
  3
REVIT_TYPE_MAPPING
350
1BE
  0
SORTENTSTABLE
  5
1C3
102
{ACAD_REACTORS
330
1C2
102
}
330
1C2
100
AcDbSortentsTable
330
70
  0
ACDBDETAILVIEWSTYLE
  5
6B
102
{ACAD_REACTORS
330
6A
102
}
330
6A
100
AcDbModelDocViewStyle
 70
     0
  3
Imperial24
290
     1
300
Imperial24
 90
        0
100
AcDbDetailViewStyle
 70
     0
 71
     0
 90
        3
 71
     1
340
55
 62
   256
 40
0.24
340
0
 62
   256
 40
0.24
300

 40
0.36
280
     3
 71
     2
340
5D
 90
       25
 62
   256
 71
     3
340
55
 62
   256
 40
0.24
 90
        1
 40
0.75
 90
        1
300
%<\AcVar ViewType \f "%tc1">% %<\AcVar ViewDetailId>%\PSCALE %<\AcVar ViewScale \f "%sn">%
 71
     4
340
5D
 90
       25
 62
   256
340
5D
 90
       25
 62
   256
280
     0
  0
LAYOUT
  5
6F
102
{ACAD_REACTORS
330
62
102
}
330
62
100
AcDbPlotSettings
  1

  2

  4

  6

 40
0.0
 41
0.0
 42
0.0
 43
0.0
 44
0.0
 45
0.0
 46
0.0
 47
0.0
 48
0.0
 49
0.0
140
0.0
141
0.0
142
1.0
143
1.0
 70
   688
 72
     0
 73
     0
 74
     5
  7

 75
    16
147
1.0
 76
     0
 77
     2
 78
   300
148
0.0
149
0.0
100
AcDbLayout
  1
Layout1
 70
     1
 71
     1
 10
0.0
 20
0.0
 11
12.0
 21
9.0
 12
0.0
 22
0.0
 32
0.0
 14
0.0
 24
0.0
 34
0.0
 15
0.0
 25
0.0
 35
0.0
146
0.0
 13
0.0
 23
0.0
 33
0.0
 16
1.0
 26
0.0
 36
0.0
 17
0.0
 27
1.0
 37
0.0
 76
     0
330
6C
  0
LAYOUT
  5
77
102
{ACAD_REACTORS
330
62
102
}
330
62
100
AcDbPlotSettings
  1

  2

  4

  6

 40
0.0
 41
0.0
 42
0.0
 43
0.0
 44
0.0
 45
0.0
 46
0.0
 47
0.0
 48
0.0
 49
0.0
140
0.0
141
0.0
142
1.0
143
1.0
 70
   688
 72
     0
 73
     0
 74
     5
  7

 75
    16
147
1.0
 76
     0
 77
     2
 78
   300
148
0.0
149
0.0
100
AcDbLayout
  1
Layout2
 70
     1
 71
     2
 10
0.0
 20
0.0
 11
12.0
 21
9.0
 12
0.0
 22
0.0
 32
0.0
 14
0.0
 24
0.0
 34
0.0
 15
0.0
 25
0.0
 35
0.0
146
0.0
 13
0.0
 23
0.0
 33
0.0
 16
1.0
 26
0.0
 36
0.0
 17
0.0
 27
1.0
 37
0.0
 76
     0
330
74
  0
LAYOUT
  5
73
102
{ACAD_REACTORS
330
62
102
}
330
62
100
AcDbPlotSettings
  1

  2

  4

  6

 40
0.0
 41
0.0
 42
0.0
 43
0.0
 44
0.0
 45
0.0
 46
0.0
 47
0.0
 48
0.0
 49
0.0
140
0.0
141
0.0
142
1.0
143
1.0
 70
  1712
 72
     0
 73
     0
 74
     0
  7

 75
     0
147
1.0
 76
     0
 77
     2
 78
   300
148
0.0
149
0.0
100
AcDbLayout
  1
Model
 70
     1
 71
     0
 10
0.0
 20
0.0
 11
12.0
 21
9.0
 12
0.0
 22
0.0
 32
0.0
 14
0.0
 24
0.0
 34
0.0
 15
0.0
 25
0.0
 35
0.0
146
0.0
 13
0.0
 23
0.0
 33
0.0
 16
1.0
 26
0.0
 36
0.0
 17
0.0
 27
1.0
 37
0.0
 76
     0
330
70
  0
MATERIAL
  5
19
102
{ACAD_XDICTIONARY
360
1A
102
}
102
{ACAD_REACTORS
330
10
102
}
330
10
100
AcDbMaterial
  1
ByBlock
 72
     0
 43
0.0208333333333333
 43
0.0
 43
0.0
 43
0.0
 43
0.0
 43
0.0208333333333333
 43
0.0
 43
0.0
 43
0.0
 43
0.0
 43
1.0
 43
0.0
 43
0.0
 43
0.0
 43
0.0
 43
1.0
 77
     0
 47
0.0208333333333333
 47
0.0
 47
0.0
 47
0.0
 47
0.0
 47
0.0208333333333333
 47
0.0
 47
0.0
 47
0.0
 47
0.0
 47
1.0
 47
0.0
 47
0.0
 47
0.0
 47
0.0
 47
1.0
171
     0
 49
0.0208333333333333
 49
0.0
 49
0.0
 49
0.0
 49
0.0
 49
0.0208333333333333
 49
0.0
 49
0.0
 49
0.0
 49
0.0
 49
1.0
 49
0.0
 49
0.0
 49
0.0
 49
0.0
 49
1.0
175
     0
142
0.0208333333333333
142
0.0
142
0.0
142
0.0
142
0.0
142
0.0208333333333333
142
0.0
142
0.0
142
0.0
142
0.0
142
1.0
142
0.0
142
0.0
142
0.0
142
0.0
142
1.0
179
     0
144
0.0208333333333333
144
0.0
144
0.0
144
0.0
144
0.0
144
0.0208333333333333
144
0.0
144
0.0
144
0.0
144
0.0
144
1.0
144
0.0
144
0.0
144
0.0
144
0.0
144
1.0
147
0.0208333333333333
147
0.0
147
0.0
147
0.0
147
0.0
147
0.0208333333333333
147
0.0
147
0.0
147
0.0
147
0.0
147
1.0
147
0.0
147
0.0
147
0.0
147
0.0
147
1.0
  0
MATERIAL
  5
11
102
{ACAD_XDICTIONARY
360
12
102
}
102
{ACAD_REACTORS
330
10
102
}
330
10
100
AcDbMaterial
  1
ByLayer
 72
     0
 43
0.0208333333333333
 43
0.0
 43
0.0
 43
0.0
 43
0.0
 43
0.0208333333333333
 43
0.0
 43
0.0
 43
0.0
 43
0.0
 43
1.0
 43
0.0
 43
0.0
 43
0.0
 43
0.0
 43
1.0
 77
     0
 47
0.0208333333333333
 47
0.0
 47
0.0
 47
0.0
 47
0.0
 47
0.0208333333333333
 47
0.0
 47
0.0
 47
0.0
 47
0.0
 47
1.0
 47
0.0
 47
0.0
 47
0.0
 47
0.0
 47
1.0
171
     0
 49
0.0208333333333333
 49
0.0
 49
0.0
 49
0.0
 49
0.0
 49
0.0208333333333333
 49
0.0
 49
0.0
 49
0.0
 49
0.0
 49
1.0
 49
0.0
 49
0.0
 49
0.0
 49
0.0
 49
1.0
175
     0
142
0.0208333333333333
142
0.0
142
0.0
142
0.0
142
0.0
142
0.0208333333333333
142
0.0
142
0.0
142
0.0
142
0.0
142
1.0
142
0.0
142
0.0
142
0.0
142
0.0
142
1.0
179
     0
144
0.0208333333333333
144
0.0
144
0.0
144
0.0
144
0.0
144
0.0208333333333333
144
0.0
144
0.0
144
0.0
144
0.0
144
1.0
144
0.0
144
0.0
144
0.0
144
0.0
144
1.0
147
0.0208333333333333
147
0.0
147
0.0
147
0.0
147
0.0
147
0.0208333333333333
147
0.0
147
0.0
147
0.0
147
0.0
147
1.0
147
0.0
147
0.0
147
0.0
147
0.0
147
1.0
  0
MATERIAL
  5
21
102
{ACAD_XDICTIONARY
360
22
102
}
102
{ACAD_REACTORS
330
10
102
}
330
10
100
AcDbMaterial
  1
Global
 72
     0
 43
0.0208333333333333
 43
0.0
 43
0.0
 43
0.0
 43
0.0
 43
0.0208333333333333
 43
0.0
 43
0.0
 43
0.0
 43
0.0
 43
1.0
 43
0.0
 43
0.0
 43
0.0
 43
0.0
 43
1.0
 77
     0
 47
0.0208333333333333
 47
0.0
 47
0.0
 47
0.0
 47
0.0
 47
0.0208333333333333
 47
0.0
 47
0.0
 47
0.0
 47
0.0
 47
1.0
 47
0.0
 47
0.0
 47
0.0
 47
0.0
 47
1.0
171
     0
 49
0.0208333333333333
 49
0.0
 49
0.0
 49
0.0
 49
0.0
 49
0.0208333333333333
 49
0.0
 49
0.0
 49
0.0
 49
0.0
 49
1.0
 49
0.0
 49
0.0
 49
0.0
 49
0.0
 49
1.0
175
     0
142
0.0208333333333333
142
0.0
142
0.0
142
0.0
142
0.0
142
0.0208333333333333
142
0.0
142
0.0
142
0.0
142
0.0
142
1.0
142
0.0
142
0.0
142
0.0
142
0.0
142
1.0
179
     0
144
0.0208333333333333
144
0.0
144
0.0
144
0.0
144
0.0
144
0.0208333333333333
144
0.0
144
0.0
144
0.0
144
0.0
144
1.0
144
0.0
144
0.0
144
0.0
144
0.0
144
1.0
147
0.0208333333333333
147
0.0
147
0.0
147
0.0
147
0.0
147
0.0208333333333333
147
0.0
147
0.0
147
0.0
147
0.0
147
1.0
147
0.0
147
0.0
147
0.0
147
0.0
147
1.0
  0
MLEADERSTYLE
  5
67
102
{ACAD_REACTORS
330
66
102
}
330
66
100
AcDbMLeaderStyle
179
     2
170
     2
171
     1
172
     0
 90
        2
 40
0.0
 41
0.0
173
     1
 91
-1056964608
340
5B
 92
       -2
290
     1
 42
0.09
291
     1
 43
0.36
  3
Standard
 44
0.18
300

342
55
174
     1
178
     6
175
     1
176
     0
 93
-1056964608
 45
0.18
292
     0
297
     0
 46
0.18
 94
-1056964608
 47
1.0
 49
1.0
140
1.0
293
     1
141
0.0
294
     1
177
     0
142
1.0
295
     1
296
     0
143
0.125
271
     0
272
     9
273
     9
298
     1
  0
MLINESTYLE
  5
60
102
{ACAD_REACTORS
330
5F
102
}
330
5F
100
AcDbMlineStyle
  2
STANDARD
 70
     0
  3

 62
   256
 51
90.0
 52
90.0
 71
     2
 49
0.5
 62
   256
  6
BYLAYER
 49
-0.5
 62
   256
  6
BYLAYER
  0
ACDBPLACEHOLDER
  5
F
102
{ACAD_REACTORS
330
E
102
}
330
E
  0
SCALE
  5
43
102
{ACAD_REACTORS
330
42
102
}
330
42
100
AcDbScale
 70
     0
300
1:1
140
1.0
141
1.0
290
     1
  0
SCALE
  5
44
102
{ACAD_REACTORS
330
42
102
}
330
42
100
AcDbScale
 70
     0
300
1/128" = 1'-0"
140
0.0078125
141
12.0
290
     0
  0
SCALE
  5
45
102
{ACAD_REACTORS
330
42
102
}
330
42
100
AcDbScale
 70
     0
300
1/64" = 1'-0"
140
0.015625
141
12.0
290
     0
  0
SCALE
  5
46
102
{ACAD_REACTORS
330
42
102
}
330
42
100
AcDbScale
 70
     0
300
1/32" = 1'-0"
140
0.03125
141
12.0
290
     0
  0
SCALE
  5
47
102
{ACAD_REACTORS
330
42
102
}
330
42
100
AcDbScale
 70
     0
300
1/16" = 1'-0"
140
0.0625
141
12.0
290
     0
  0
SCALE
  5
48
102
{ACAD_REACTORS
330
42
102
}
330
42
100
AcDbScale
 70
     0
300
3/32" = 1'-0"
140
0.09375
141
12.0
290
     0
  0
SCALE
  5
49
102
{ACAD_REACTORS
330
42
102
}
330
42
100
AcDbScale
 70
     0
300
1/8" = 1'-0"
140
0.125
141
12.0
290
     0
  0
SCALE
  5
4A
102
{ACAD_REACTORS
330
42
102
}
330
42
100
AcDbScale
 70
     0
300
3/16" = 1'-0"
140
0.1875
141
12.0
290
     0
  0
SCALE
  5
4B
102
{ACAD_REACTORS
330
42
102
}
330
42
100
AcDbScale
 70
     0
300
1/4" = 1'-0"
140
0.25
141
12.0
290
     0
  0
SCALE
  5
4C
102
{ACAD_REACTORS
330
42
102
}
330
42
100
AcDbScale
 70
     0
300
3/8" = 1'-0"
140
0.375
141
12.0
290
     0
  0
SCALE
  5
4D
102
{ACAD_REACTORS
330
42
102
}
330
42
100
AcDbScale
 70
     0
300
1/2" = 1'-0"
140
0.5
141
12.0
290
     0
  0
SCALE
  5
4E
102
{ACAD_REACTORS
330
42
102
}
330
42
100
AcDbScale
 70
     0
300
3/4" = 1'-0"
140
0.75
141
12.0
290
     0
  0
SCALE
  5
4F
102
{ACAD_REACTORS
330
42
102
}
330
42
100
AcDbScale
 70
     0
300
1" = 1'-0"
140
1.0
141
12.0
290
     0
  0
SCALE
  5
50
102
{ACAD_REACTORS
330
42
102
}
330
42
100
AcDbScale
 70
     0
300
1-1/2" = 1'-0"
140
1.5
141
12.0
290
     0
  0
SCALE
  5
51
102
{ACAD_REACTORS
330
42
102
}
330
42
100
AcDbScale
 70
     0
300
3" = 1'-0"
140
3.0
141
12.0
290
     0
  0
SCALE
  5
52
102
{ACAD_REACTORS
330
42
102
}
330
42
100
AcDbScale
 70
     0
300
6" = 1'-0"
140
6.0
141
12.0
290
     0
  0
SCALE
  5
53
102
{ACAD_REACTORS
330
42
102
}
330
42
100
AcDbScale
 70
     0
300
1'-0" = 1'-0"
140
12.0
141
12.0
290
     0
  0
ACDBSECTIONVIEWSTYLE
  5
69
102
{ACAD_REACTORS
330
68
102
}
330
68
100
AcDbModelDocViewStyle
 70
     0
  3
Imperial24
290
     1
300
Imperial24
 90
        0
100
AcDbSectionViewStyle
 70
     0
 71
     0
 90
       78
 71
     1
340
55
 62
   256
 40
0.24
340
0
340
0
 62
   256
 40
0.24
300
I, O, Q, S, X, Z
 40
0.48
 90
        3
 40
0.18
 90
        1
 71
     2
340
5D
 90
       25
 62
   256
340
5D
 90
       50
 62
   256
 40
0.24
 40
0.0
 40
0.24
 71
     3
340
55
 62
   256
 40
0.24
 90
        1
 40
0.75
 90
        1
300
%<\AcVar ViewType \f "%tc1">% %<\AcVar ViewSectionStartId>%-%<\AcVar ViewSectionEndId>%\PSCALE %<\AcVar ViewScale \f "%sn">%
 71
     4
 62
   256
 62
   257
300
ANSI31
 40
1.0
 90
        0
290
     0
290
     0
 90
        6
 40
0.0
 40
1.570796326794896
 40
0.2617993877991494
 40
1.308996938995747
 40
-0.2617993877991494
 40
1.832595714594046
  0
TABLESTYLE
  5
65
102
{ACAD_XDICTIONARY
360
1C5
102
}
102
{ACAD_REACTORS
330
64
102
}
330
64
100
AcDbTableStyle
280
     0
  3
Standard
 70
     0
 71
     0
 40
0.06
 41
0.06
280
     0
281
     0
  7
Standard
140
0.18
170
     2
 62
     0
 63
     7
283
     0
 90
      512
 91
        0
  1

274
    -2
284
     1
 64
     0
275
    -2
285
     1
 65
     0
276
    -2
286
     1
 66
     0
277
    -2
287
     1
 67
     0
278
    -2
288
     1
 68
     0
279
    -2
289
     1
 69
     0
  7
Standard
140
0.25
170
     5
 62
     0
 63
     7
283
     0
 90
      512
 91
        0
  1

274
    -2
284
     1
 64
     0
275
    -2
285
     1
 65
     0
276
    -2
286
     1
 66
     0
277
    -2
287
     1
 67
     0
278
    -2
288
     1
 68
     0
279
    -2
289
     1
 69
     0
  7
Standard
140
0.18
170
     5
 62
     0
 63
     7
283
     0
 90
      512
 91
        0
  1

274
    -2
284
     1
 64
     0
275
    -2
285
     1
 65
     0
276
    -2
286
     1
 66
     0
277
    -2
287
     1
 67
     0
278
    -2
288
     1
 68
     0
279
    -2
289
     1
 69
     0
  0
VISUALSTYLE
  5
2F
102
{ACAD_REACTORS
330
29
102
}
330
29
100
AcDbVisualStyle
  2
2dWireframe
 70
     4
177
     3
291
     0
 70
    58
 90
        0
176
     1
 90
        2
176
     1
 90
        0
176
     1
 90
        0
176
     1
 40
0.6
176
     1
 40
30.0
176
     1
 62
     7
420
 16777215
176
     1
 90
        1
176
     1
 90
        4
176
     1
 62
     7
176
     1
 62
   257
176
     1
 90
        1
176
     1
 90
        1
176
     1
 40
1.0
176
     1
 90
        0
176
     1
 62
   257
176
     1
 40
1.0
176
     1
 90
        1
176
     1
 90
        6
176
     1
 90
        2
176
     1
 62
     7
176
     1
 90
        5
176
     1
 90
        0
176
     1
 90
        0
176
     1
290
     0
176
     1
 90
        1
176
     1
 40
0.0
176
     1
 90
        0
176
     1
290
     1
176
     1
290
     1
176
     1
290
     0
176
     1
290
     0
176
     1
290
     0
176
     1
290
     0
176
     1
290
     0
176
     1
290
     0
176
     1
290
     0
176
     1
 90
       50
176
     1
 40
0.0
176
     1
 40
1.0
176
     1
 90
        0
176
     1
 62
    18
420
        0
176
     1
 90
       50
176
     1
 90
        3
176
     1
 62
     5
420
      255
176
     1
290
     0
176
     1
 90
       50
176
     1
 90
       50
176
     1
 90
       50
176
     1
290
     0
176
     1
 90
       50
176
     1
 62
   256
176
     0
 40
1.0
176
     0
 90
        2
176
     1
  1
strokes_ogs.tif
176
     1
290
     0
176
     1
 40
1.0
176
     1
 40
1.0
176
     1
  0
VISUALSTYLE
  5
2E
102
{ACAD_REACTORS
330
29
102
}
330
29
100
AcDbVisualStyle
  2
Basic
 70
     7
177
     3
291
     1
 70
    58
 90
        1
176
     1
 90
        0
176
     1
 90
        1
176
     1
 90
        0
176
     1
 40
0.6
176
     1
 40
30.0
176
     1
 62
     7
420
 16777215
176
     1
 90
        0
176
     1
 90
        4
176
     1
 62
     7
176
     1
 62
   257
176
     1
 90
        1
176
     1
 90
        1
176
     1
 40
1.0
176
     1
 90
        8
176
     1
 62
     7
176
     1
 40
1.0
176
     1
 90
        1
176
     1
 90
        6
176
     1
 90
        2
176
     1
 62
     7
176
     1
 90
        5
176
     1
 90
        0
176
     1
 90
        0
176
     1
290
     0
176
     1
 90
        1
176
     1
 40
0.0
176
     1
 90
        0
176
     1
290
     0
176
     1
290
     1
176
     1
290
     1
176
     1
290
     0
176
     1
290
     0
176
     1
290
     0
176
     1
290
     0
176
     1
290
     0
176
     1
290
     0
176
     1
 90
       50
176
     1
 40
0.0
176
     1
 40
1.0
176
     1
 90
        0
176
     1
 62
    18
420
        0
176
     1
 90
       50
176
     1
 90
        3
176
     1
 62
     5
420
      255
176
     1
290
     0
176
     1
 90
       50
176
     1
 90
       50
176
     1
 90
       50
176
     1
290
     0
176
     1
 90
       50
176
     1
 62
   256
176
     0
 40
1.0
176
     0
 90
        2
176
     1
  1
strokes_ogs.tif
176
     1
290
     0
176
     1
 40
1.0
176
     1
 40
1.0
176
     1
  0
VISUALSTYLE
  5
35
102
{ACAD_REACTORS
330
29
102
}
330
29
100
AcDbVisualStyle
  2
Brighten
 70
    12
177
     3
291
     1
 70
    58
 90
        2
176
     1
 90
        2
176
     1
 90
        0
176
     1
 90
        0
176
     1
 40
0.6
176
     1
 40
30.0
176
     1
 62
     7
420
 16777215
176
     1
 90
        1
176
     1
 90
        4
176
     1
 62
     7
176
     1
 62
   257
176
     1
 90
        1
176
     1
 90
        1
176
     1
 40
1.0
176
     1
 90
        8
176
     1
 62
     7
176
     1
 40
1.0
176
     1
 90
        1
176
     1
 90
        6
176
     1
 90
        2
176
     1
 62
     7
176
     1
 90
        5
176
     1
 90
        0
176
     1
 90
        0
176
     1
290
     0
176
     1
 90
        1
176
     1
 40
50.0
176
     1
 90
        0
176
     1
290
     0
176
     1
290
     1
176
     1
290
     1
176
     1
290
     0
176
     1
290
     0
176
     1
290
     0
176
     1
290
     0
176
     1
290
     0
176
     1
290
     0
176
     1
 90
       50
176
     1
 40
0.0
176
     1
 40
1.0
176
     1
 90
        0
176
     1
 62
    18
420
        0
176
     1
 90
       50
176
     1
 90
        3
176
     1
 62
     5
420
      255
176
     1
290
     0
176
     1
 90
       50
176
     1
 90
       50
176
     1
 90
       50
176
     1
290
     0
176
     1
 90
       50
176
     1
 62
   256
176
     0
 40
1.0
176
     0
 90
        2
176
     1
  1
strokes_ogs.tif
176
     1
290
     0
176
     1
 40
1.0
176
     1
 40
1.0
176
     1
  0
VISUALSTYLE
  5
39
102
{ACAD_REACTORS
330
29
102
}
330
29
100
AcDbVisualStyle
  2
ColorChange
 70
    16
177
     3
291
     1
 70
    58
 90
        2
176
     1
 90
        2
176
     1
 90
        3
176
     1
 90
        0
176
     1
 40
0.6
176
     1
 40
30.0
176
     1
 62
     8
420
  8421504
176
     1
 90
        1
176
     1
 90
        4
176
     1
 62
     7
176
     1
 62
   257
176
     1
 90
        1
176
     1
 90
        1
176
     1
 40
1.0
176
     1
 90
        8
176
     1
 62
     8
420
  8421504
176
     1
 40
1.0
176
     1
 90
        1
176
     1
 90
        6
176
     1
 90
        2
176
     1
 62
     7
176
     1
 90
        5
176
     1
 90
        0
176
     1
 90
        0
176
     1
290
     0
176
     1
 90
        1
176
     1
 40
0.0
176
     1
 90
        0
176
     1
290
     0
176
     1
290
     1
176
     1
290
     1
176
     1
290
     0
176
     1
290
     0
176
     1
290
     0
176
     1
290
     0
176
     1
290
     0
176
     1
290
     0
176
     1
 90
       50
176
     1
 40
0.0
176
     1
 40
1.0
176
     1
 90
        0
176
     1
 62
    18
420
        0
176
     1
 90
       50
176
     1
 90
        3
176
     1
 62
     5
420
      255
176
     1
290
     0
176
     1
 90
       50
176
     1
 90
       50
176
     1
 90
       50
176
     1
290
     0
176
     1
 90
       50
176
     1
 62
   256
176
     0
 40
1.0
176
     0
 90
        2
176
     1
  1
strokes_ogs.tif
176
     1
290
     0
176
     1
 40
1.0
176
     1
 40
1.0
176
     1
  0
VISUALSTYLE
  5
32
102
{ACAD_REACTORS
330
29
102
}
330
29
100
AcDbVisualStyle
  2
Conceptual
 70
     9
177
     3
291
     0
 70
    58
 90
        3
176
     1
 90
        2
176
     1
 90
        0
176
     1
 90
        0
176
     1
 40
0.6
176
     1
 40
30.0
176
     1
 62
     7
420
 16777215
176
     1
 90
        2
176
     1
 90
        2
176
     1
 62
     7
176
     1
 62
   257
176
     1
 90
        1
176
     1
 90
        1
176
     1
 40
179.0
176
     1
 90
        8
176
     1
 62
     7
176
     1
 40
1.0
176
     1
 90
        1
176
     1
 90
        6
176
     1
 90
        2
176
     1
 62
     7
176
     1
 90
        3
176
     1
 90
        0
176
     1
 90
        0
176
     1
290
     0
176
     1
 90
        1
176
     1
 40
0.0
176
     1
 90
        0
176
     1
290
     0
176
     1
290
     1
176
     1
290
     1
176
     1
290
     0
176
     1
290
     0
176
     1
290
     0
176
     1
290
     0
176
     1
290
     0
176
     1
290
     0
176
     1
 90
       50
176
     1
 40
0.0
176
     1
 40
1.0
176
     1
 90
        0
176
     1
 62
    18
420
        0
176
     1
 90
       50
176
     1
 90
        3
176
     1
 62
     5
420
      255
176
     1
290
     0
176
     1
 90
       50
176
     1
 90
       50
176
     1
 90
       50
176
     1
290
     0
176
     1
 90
       50
176
     1
 62
   256
176
     0
 40
1.0
176
     0
 90
        2
176
     1
  1
strokes_ogs.tif
176
     1
290
     0
176
     1
 40
1.0
176
     1
 40
1.0
176
     1
  0
VISUALSTYLE
  5
34
102
{ACAD_REACTORS
330
29
102
}
330
29
100
AcDbVisualStyle
  2
Dim
 70
    11
177
     3
291
     1
 70
    58
 90
        2
176
     1
 90
        2
176
     1
 90
        0
176
     1
 90
        0
176
     1
 40
0.6
176
     1
 40
30.0
176
     1
 62
     7
420
 16777215
176
     1
 90
        1
176
     1
 90
        4
176
     1
 62
     7
176
     1
 62
   257
176
     1
 90
        1
176
     1
 90
        1
176
     1
 40
1.0
176
     1
 90
        8
176
     1
 62
     7
176
     1
 40
1.0
176
     1
 90
        1
176
     1
 90
        6
176
     1
 90
        2
176
     1
 62
     7
176
     1
 90
        5
176
     1
 90
        0
176
     1
 90
        0
176
     1
290
     0
176
     1
 90
        1
176
     1
 40
-50.0
176
     1
 90
        0
176
     1
290
     0
176
     1
290
     1
176
     1
290
     1
176
     1
290
     0
176
     1
290
     0
176
     1
290
     0
176
     1
290
     0
176
     1
290
     0
176
     1
290
     0
176
     1
 90
       50
176
     1
 40
0.0
176
     1
 40
1.0
176
     1
 90
        0
176
     1
 62
    18
420
        0
176
     1
 90
       50
176
     1
 90
        3
176
     1
 62
     5
420
      255
176
     1
290
     0
176
     1
 90
       50
176
     1
 90
       50
176
     1
 90
       50
176
     1
290
     0
176
     1
 90
       50
176
     1
 62
   256
176
     0
 40
1.0
176
     0
 90
        2
176
     1
  1
strokes_ogs.tif
176
     1
290
     0
176
     1
 40
1.0
176
     1
 40
1.0
176
     1
  0
VISUALSTYLE
  5
41
102
{ACAD_REACTORS
330
29
102
}
330
29
100
AcDbVisualStyle
  2
EdgeColorOff
 70
    22
177
     3
291
     1
 70
    58
 90
        2
176
     0
 90
        2
176
     0
 90
        0
176
     0
 90
        0
176
     0
 40
0.6
176
     0
 40
30.0
176
     0
 62
     7
420
 16777215
176
     0
 90
        1
176
     0
 90
        4
176
     0
 62
     7
176
     0
 62
   257
176
     0
 90
        1
176
     0
 90
        1
176
     0
 40
1.0
176
     0
 90
        8
176
     2
 62
     7
176
     0
 40
1.0
176
     0
 90
        1
176
     0
 90
        6
176
     0
 90
        2
176
     0
 62
     7
176
     0
 90
        5
176
     0
 90
        0
176
     0
 90
        0
176
     0
290
     0
176
     0
 90
        1
176
     0
 40
0.0
176
     0
 90
        0
176
     0
290
     0
176
     0
290
     1
176
     0
290
     1
176
     0
290
     0
176
     0
290
     0
176
     0
290
     0
176
     0
290
     0
176
     0
290
     0
176
     0
290
     0
176
     0
 90
       50
176
     0
 40
0.0
176
     0
 40
1.0
176
     0
 90
        0
176
     0
 62
    18
420
        0
176
     0
 90
       50
176
     0
 90
        3
176
     0
 62
     5
420
      255
176
     0
290
     0
176
     0
 90
       50
176
     0
 90
       50
176
     0
 90
       50
176
     0
290
     0
176
     0
 90
       50
176
     0
 62
   256
176
     0
 40
1.0
176
     0
 90
        2
176
     0
  1
strokes_ogs.tif
176
     0
290
     0
176
     0
 40
1.0
176
     0
 40
1.0
176
     0
  0
VISUALSTYLE
  5
38
102
{ACAD_REACTORS
330
29
102
}
330
29
100
AcDbVisualStyle
  2
Facepattern
 70
    15
177
     3
291
     1
 70
    58
 90
        2
176
     1
 90
        2
176
     1
 90
        0
176
     1
 90
        0
176
     1
 40
0.6
176
     1
 40
30.0
176
     1
 62
     7
420
 16777215
176
     1
 90
        1
176
     1
 90
        4
176
     1
 62
     7
176
     1
 62
   257
176
     1
 90
        1
176
     1
 90
        1
176
     1
 40
1.0
176
     1
 90
        8
176
     1
 62
     7
176
     1
 40
1.0
176
     1
 90
        1
176
     1
 90
        6
176
     1
 90
        2
176
     1
 62
     7
176
     1
 90
        5
176
     1
 90
        0
176
     1
 90
        0
176
     1
290
     0
176
     1
 90
        1
176
     1
 40
0.0
176
     1
 90
        0
176
     1
290
     0
176
     1
290
     1
176
     1
290
     1
176
     1
290
     0
176
     1
290
     0
176
     1
290
     0
176
     1
290
     0
176
     1
290
     0
176
     1
290
     0
176
     1
 90
       50
176
     1
 40
0.0
176
     1
 40
1.0
176
     1
 90
        0
176
     1
 62
    18
420
        0
176
     1
 90
       50
176
     1
 90
        3
176
     1
 62
     5
420
      255
176
     1
290
     0
176
     1
 90
       50
176
     1
 90
       50
176
     1
 90
       50
176
     1
290
     0
176
     1
 90
       50
176
     1
 62
   256
176
     0
 40
1.0
176
     0
 90
        2
176
     1
  1
strokes_ogs.tif
176
     1
290
     0
176
     1
 40
1.0
176
     1
 40
1.0
176
     1
  0
VISUALSTYLE
  5
2A
102
{ACAD_REACTORS
330
29
102
}
330
29
100
AcDbVisualStyle
  2
Flat
 70
     0
177
     3
291
     1
 70
    58
 90
        2
176
     1
 90
        1
176
     1
 90
        1
176
     1
 90
        2
176
     1
 40
0.6
176
     1
 40
30.0
176
     1
 62
     7
420
 16777215
176
     1
 90
        0
176
     1
 90
        0
176
     1
 62
     7
176
     1
 62
   257
176
     1
 90
        1
176
     1
 90
        1
176
     1
 40
1.0
176
     1
 90
        8
176
     1
 62
     7
176
     1
 40
1.0
176
     1
 90
        1
176
     1
 90
        6
176
     1
 90
        2
176
     1
 62
     7
176
     1
 90
        5
176
     1
 90
        0
176
     1
 90
        0
176
     1
290
     0
176
     1
 90
       13
176
     1
 40
0.0
176
     1
 90
        0
176
     1
290
     0
176
     1
290
     1
176
     1
290
     1
176
     1
290
     0
176
     1
290
     0
176
     1
290
     0
176
     1
290
     0
176
     1
290
     0
176
     1
290
     0
176
     1
 90
       50
176
     1
 40
0.0
176
     1
 40
1.0
176
     1
 90
        0
176
     1
 62
    18
420
        0
176
     1
 90
       50
176
     1
 90
        3
176
     1
 62
     5
420
      255
176
     1
290
     0
176
     1
 90
       50
176
     1
 90
       50
176
     1
 90
       50
176
     1
290
     0
176
     1
 90
       50
176
     1
 62
   256
176
     0
 40
1.0
176
     0
 90
        2
176
     1
  1
strokes_ogs.tif
176
     1
290
     0
176
     1
 40
1.0
176
     1
 40
1.0
176
     1
  0
VISUALSTYLE
  5
2B
102
{ACAD_REACTORS
330
29
102
}
330
29
100
AcDbVisualStyle
  2
FlatWithEdges
 70
     1
177
     3
291
     1
 70
    58
 90
        2
176
     1
 90
        1
176
     1
 90
        1
176
     1
 90
        2
176
     1
 40
0.6
176
     1
 40
30.0
176
     1
 62
     7
420
 16777215
176
     1
 90
        1
176
     1
 90
        0
176
     1
 62
     7
176
     1
 62
   257
176
     1
 90
        1
176
     1
 90
        1
176
     1
 40
1.0
176
     1
 90
        0
176
     1
 62
   257
176
     1
 40
1.0
176
     1
 90
        1
176
     1
 90
        6
176
     1
 90
        2
176
     1
 62
     7
176
     1
 90
        5
176
     1
 90
        0
176
     1
 90
        0
176
     1
290
     0
176
     1
 90
       13
176
     1
 40
0.0
176
     1
 90
        0
176
     1
290
     0
176
     1
290
     1
176
     1
290
     1
176
     1
290
     0
176
     1
290
     0
176
     1
290
     0
176
     1
290
     0
176
     1
290
     0
176
     1
290
     0
176
     1
 90
       50
176
     1
 40
0.0
176
     1
 40
1.0
176
     1
 90
        0
176
     1
 62
    18
420
        0
176
     1
 90
       50
176
     1
 90
        3
176
     1
 62
     5
420
      255
176
     1
290
     0
176
     1
 90
       50
176
     1
 90
       50
176
     1
 90
       50
176
     1
290
     0
176
     1
 90
       50
176
     1
 62
   256
176
     0
 40
1.0
176
     0
 90
        2
176
     1
  1
strokes_ogs.tif
176
     1
290
     0
176
     1
 40
1.0
176
     1
 40
1.0
176
     1
  0
VISUALSTYLE
  5
2C
102
{ACAD_REACTORS
330
29
102
}
330
29
100
AcDbVisualStyle
  2
Gouraud
 70
     2
177
     3
291
     1
 70
    58
 90
        2
176
     1
 90
        2
176
     1
 90
        1
176
     1
 90
        2
176
     1
 40
0.6
176
     1
 40
30.0
176
     1
 62
     7
420
 16777215
176
     1
 90
        0
176
     1
 90
        0
176
     1
 62
     7
176
     1
 62
   257
176
     1
 90
        1
176
     1
 90
        1
176
     1
 40
1.0
176
     1
 90
        0
176
     1
 62
     7
176
     1
 40
1.0
176
     1
 90
        1
176
     1
 90
        6
176
     1
 90
        2
176
     1
 62
     7
176
     1
 90
        5
176
     1
 90
        0
176
     1
 90
        0
176
     1
290
     0
176
     1
 90
       13
176
     1
 40
0.0
176
     1
 90
        0
176
     1
290
     0
176
     1
290
     1
176
     1
290
     1
176
     1
290
     0
176
     1
290
     0
176
     1
290
     0
176
     1
290
     0
176
     1
290
     0
176
     1
290
     0
176
     1
 90
       50
176
     1
 40
0.0
176
     1
 40
1.0
176
     1
 90
        0
176
     1
 62
    18
420
        0
176
     1
 90
       50
176
     1
 90
        3
176
     1
 62
     5
420
      255
176
     1
290
     0
176
     1
 90
       50
176
     1
 90
       50
176
     1
 90
       50
176
     1
290
     0
176
     1
 90
       50
176
     1
 62
   256
176
     0
 40
1.0
176
     0
 90
        2
176
     1
  1
strokes_ogs.tif
176
     1
290
     0
176
     1
 40
1.0
176
     1
 40
1.0
176
     1
  0
VISUALSTYLE
  5
2D
102
{ACAD_REACTORS
330
29
102
}
330
29
100
AcDbVisualStyle
  2
GouraudWithEdges
 70
     3
177
     3
291
     1
 70
    58
 90
        2
176
     1
 90
        2
176
     1
 90
        1
176
     1
 90
        2
176
     1
 40
0.6
176
     1
 40
30.0
176
     1
 62
     7
420
 16777215
176
     1
 90
        1
176
     1
 90
        0
176
     1
 62
     7
176
     1
 62
   257
176
     1
 90
        1
176
     1
 90
        1
176
     1
 40
1.0
176
     1
 90
        0
176
     1
 62
   257
176
     1
 40
1.0
176
     1
 90
        1
176
     1
 90
        6
176
     1
 90
        2
176
     1
 62
     7
176
     1
 90
        5
176
     1
 90
        0
176
     1
 90
        0
176
     1
290
     0
176
     1
 90
       13
176
     1
 40
0.0
176
     1
 90
        0
176
     1
290
     0
176
     1
290
     1
176
     1
290
     1
176
     1
290
     0
176
     1
290
     0
176
     1
290
     0
176
     1
290
     0
176
     1
290
     0
176
     1
290
     0
176
     1
 90
       50
176
     1
 40
0.0
176
     1
 40
1.0
176
     1
 90
        0
176
     1
 62
    18
420
        0
176
     1
 90
       50
176
     1
 90
        3
176
     1
 62
     5
420
      255
176
     1
290
     0
176
     1
 90
       50
176
     1
 90
       50
176
     1
 90
       50
176
     1
290
     0
176
     1
 90
       50
176
     1
 62
   256
176
     0
 40
1.0
176
     0
 90
        2
176
     1
  1
strokes_ogs.tif
176
     1
290
     0
176
     1
 40
1.0
176
     1
 40
1.0
176
     1
  0
VISUALSTYLE
  5
31
102
{ACAD_REACTORS
330
29
102
}
330
29
100
AcDbVisualStyle
  2
Hidden
 70
     6
177
     3
291
     0
 70
    58
 90
        1
176
     1
 90
        2
176
     1
 90
        2
176
     1
 90
        0
176
     1
 40
0.6
176
     1
 40
30.0
176
     1
 62
     7
420
 16777215
176
     1
 90
        2
176
     1
 90
        2
176
     1
 62
     7
176
     1
 62
   257
176
     1
 90
        2
176
     1
 90
        1
176
     1
 40
40.0
176
     1
 90
        0
176
     1
 62
   257
176
     1
 40
1.0
176
     1
 90
        1
176
     1
 90
        6
176
     1
 90
        2
176
     1
 62
     7
176
     1
 90
        3
176
     1
 90
        0
176
     1
 90
        0
176
     1
290
     0
176
     1
 90
        1
176
     1
 40
0.0
176
     1
 90
        0
176
     1
290
     0
176
     1
290
     1
176
     1
290
     1
176
     1
290
     0
176
     1
290
     0
176
     1
290
     0
176
     1
290
     0
176
     1
290
     0
176
     1
290
     0
176
     1
 90
       50
176
     1
 40
0.0
176
     1
 40
1.0
176
     1
 90
        0
176
     1
 62
    18
420
        0
176
     1
 90
       50
176
     1
 90
        3
176
     1
 62
     5
420
      255
176
     1
290
     0
176
     1
 90
       50
176
     1
 90
       50
176
     1
 90
       50
176
     1
290
     0
176
     1
 90
       50
176
     1
 62
   256
176
     0
 40
1.0
176
     0
 90
        2
176
     1
  1
strokes_ogs.tif
176
     1
290
     0
176
     1
 40
1.0
176
     1
 40
1.0
176
     1
  0
VISUALSTYLE
  5
3F
102
{ACAD_REACTORS
330
29
102
}
330
29
100
AcDbVisualStyle
  2
JitterOff
 70
    20
177
     3
291
     1
 70
    58
 90
        2
176
     0
 90
        2
176
     0
 90
        0
176
     0
 90
        0
176
     0
 40
0.6
176
     0
 40
30.0
176
     0
 62
     7
420
 16777215
176
     0
 90
        1
176
     0
 90
        4
176
     0
 62
     7
176
     0
 62
   257
176
     0
 90
        1
176
     0
 90
        1
176
     0
 40
1.0
176
     0
 90
       10
176
     2
 62
     7
176
     0
 40
1.0
176
     0
 90
        1
176
     0
 90
        6
176
     0
 90
        2
176
     0
 62
     7
176
     0
 90
        5
176
     0
 90
        0
176
     0
 90
        0
176
     0
290
     0
176
     0
 90
        1
176
     0
 40
0.0
176
     0
 90
        0
176
     0
290
     0
176
     0
290
     1
176
     0
290
     1
176
     0
290
     0
176
     0
290
     0
176
     0
290
     0
176
     0
290
     0
176
     0
290
     0
176
     0
290
     0
176
     0
 90
       50
176
     0
 40
0.0
176
     0
 40
1.0
176
     0
 90
        0
176
     0
 62
    18
420
        0
176
     0
 90
       50
176
     0
 90
        3
176
     0
 62
     5
420
      255
176
     0
290
     0
176
     0
 90
       50
176
     0
 90
       50
176
     0
 90
       50
176
     0
290
     0
176
     0
 90
       50
176
     0
 62
   256
176
     0
 40
1.0
176
     0
 90
        2
176
     0
  1
strokes_ogs.tif
176
     0
290
     0
176
     0
 40
1.0
176
     0
 40
1.0
176
     0
  0
VISUALSTYLE
  5
37
102
{ACAD_REACTORS
330
29
102
}
330
29
100
AcDbVisualStyle
  2
Linepattern
 70
    14
177
     3
291
     1
 70
    58
 90
        2
176
     1
 90
        2
176
     1
 90
        0
176
     1
 90
        0
176
     1
 40
0.6
176
     1
 40
30.0
176
     1
 62
     7
420
 16777215
176
     1
 90
        1
176
     1
 90
        4
176
     1
 62
     7
176
     1
 62
   257
176
     1
 90
        7
176
     1
 90
        7
176
     1
 40
1.0
176
     1
 90
        8
176
     1
 62
     7
176
     1
 40
1.0
176
     1
 90
        1
176
     1
 90
        6
176
     1
 90
        2
176
     1
 62
     7
176
     1
 90
        5
176
     1
 90
        0
176
     1
 90
        0
176
     1
290
     0
176
     1
 90
        1
176
     1
 40
0.0
176
     1
 90
        0
176
     1
290
     0
176
     1
290
     1
176
     1
290
     1
176
     1
290
     0
176
     1
290
     0
176
     1
290
     0
176
     1
290
     0
176
     1
290
     0
176
     1
290
     0
176
     1
 90
       50
176
     1
 40
0.0
176
     1
 40
1.0
176
     1
 90
        0
176
     1
 62
    18
420
        0
176
     1
 90
       50
176
     1
 90
        3
176
     1
 62
     5
420
      255
176
     1
290
     0
176
     1
 90
       50
176
     1
 90
       50
176
     1
 90
       50
176
     1
290
     0
176
     1
 90
       50
176
     1
 62
   256
176
     0
 40
1.0
176
     0
 90
        2
176
     1
  1
strokes_ogs.tif
176
     1
290
     0
176
     1
 40
1.0
176
     1
 40
1.0
176
     1
  0
VISUALSTYLE
  5
40
102
{ACAD_REACTORS
330
29
102
}
330
29
100
AcDbVisualStyle
  2
OverhangOff
 70
    21
177
     3
291
     1
 70
    58
 90
        2
176
     0
 90
        2
176
     0
 90
        0
176
     0
 90
        0
176
     0
 40
0.6
176
     0
 40
30.0
176
     0
 62
     7
420
 16777215
176
     0
 90
        1
176
     0
 90
        4
176
     0
 62
     7
176
     0
 62
   257
176
     0
 90
        1
176
     0
 90
        1
176
     0
 40
1.0
176
     0
 90
        9
176
     2
 62
     7
176
     0
 40
1.0
176
     0
 90
        1
176
     0
 90
        6
176
     0
 90
        2
176
     0
 62
     7
176
     0
 90
        5
176
     0
 90
        0
176
     0
 90
        0
176
     0
290
     0
176
     0
 90
        1
176
     0
 40
0.0
176
     0
 90
        0
176
     0
290
     0
176
     0
290
     1
176
     0
290
     1
176
     0
290
     0
176
     0
290
     0
176
     0
290
     0
176
     0
290
     0
176
     0
290
     0
176
     0
290
     0
176
     0
 90
       50
176
     0
 40
0.0
176
     0
 40
1.0
176
     0
 90
        0
176
     0
 62
    18
420
        0
176
     0
 90
       50
176
     0
 90
        3
176
     0
 62
     5
420
      255
176
     0
290
     0
176
     0
 90
       50
176
     0
 90
       50
176
     0
 90
       50
176
     0
290
     0
176
     0
 90
       50
176
     0
 62
   256
176
     0
 40
1.0
176
     0
 90
        2
176
     0
  1
strokes_ogs.tif
176
     0
290
     0
176
     0
 40
1.0
176
     0
 40
1.0
176
     0
  0
VISUALSTYLE
  5
33
102
{ACAD_REACTORS
330
29
102
}
330
29
100
AcDbVisualStyle
  2
Realistic
 70
     8
177
     3
291
     0
 70
    58
 90
        2
176
     1
 90
        3
176
     1
 90
        0
176
     1
 90
        2
176
     1
 40
0.6
176
     1
 40
30.0
176
     1
 62
     7
420
 16777215
176
     1
 90
        0
176
     1
 90
        0
176
     1
 62
     7
176
     1
 62
   257
176
     1
 90
        1
176
     1
 90
        1
176
     1
 40
1.0
176
     1
 90
        8
176
     1
 62
   257
176
     1
 40
1.0
176
     1
 90
        1
176
     1
 90
        6
176
     1
 90
        2
176
     1
 62
     7
176
     1
 90
        3
176
     1
 90
        0
176
     1
 90
        0
176
     1
290
     0
176
     1
 90
       13
176
     1
 40
0.0
176
     1
 90
        0
176
     1
290
     0
176
     1
290
     1
176
     1
290
     1
176
     1
290
     0
176
     1
290
     0
176
     1
290
     0
176
     1
290
     0
176
     1
290
     0
176
     1
290
     0
176
     1
 90
       50
176
     1
 40
0.0
176
     1
 40
1.0
176
     1
 90
        0
176
     1
 62
    18
420
        0
176
     1
 90
       50
176
     1
 90
        3
176
     1
 62
     5
420
      255
176
     1
290
     0
176
     1
 90
       50
176
     1
 90
       50
176
     1
 90
       50
176
     1
290
     0
176
     1
 90
       50
176
     1
 62
   256
176
     0
 40
1.0
176
     0
 90
        2
176
     1
  1
strokes_ogs.tif
176
     1
290
     0
176
     1
 40
1.0
176
     1
 40
1.0
176
     1
  0
VISUALSTYLE
  5
3E
102
{ACAD_REACTORS
330
29
102
}
330
29
100
AcDbVisualStyle
  2
Shaded
 70
    27
177
     3
291
     0
 70
    58
 90
        2
176
     1
 90
        2
176
     1
 90
        1
176
     1
 90
        2
176
     1
 40
0.6
176
     1
 40
30.0
176
     1
 62
     7
420
 16777215
176
     1
 90
        0
176
     1
 90
        4
176
     1
 62
     7
176
     1
 62
   257
176
     1
 90
        1
176
     1
 90
        1
176
     1
 40
1.0
176
     1
 90
        8
176
     1
 62
   257
176
     1
 40
1.0
176
     1
 90
        1
176
     1
 90
        6
176
     1
 90
        2
176
     1
 62
     8
420
  7895160
176
     1
 90
        3
176
     1
 90
        0
176
     1
 90
        0
176
     1
290
     0
176
     1
 90
        5
176
     1
 40
0.0
176
     1
 90
        0
176
     1
290
     0
176
     1
290
     1
176
     1
290
     1
176
     1
290
     0
176
     1
290
     0
176
     1
290
     0
176
     1
290
     0
176
     1
290
     0
176
     1
290
     0
176
     1
 90
       50
176
     1
 40
0.0
176
     1
 40
1.0
176
     1
 90
        0
176
     1
 62
    18
420
        0
176
     1
 90
       50
176
     1
 90
        3
176
     1
 62
     5
420
      255
176
     1
290
     0
176
     1
 90
       50
176
     1
 90
       50
176
     1
 90
       50
176
     1
290
     0
176
     1
 90
       50
176
     1
 62
   256
176
     0
 40
1.0
176
     0
 90
        2
176
     1
  1
strokes_ogs.tif
176
     1
290
     0
176
     1
 40
1.0
176
     1
 40
1.0
176
     1
  0
VISUALSTYLE
  5
3D
102
{ACAD_REACTORS
330
29
102
}
330
29
100
AcDbVisualStyle
  2
Shaded with edges
 70
    26
177
     3
291
     0
 70
    58
 90
        2
176
     1
 90
        2
176
     1
 90
        1
176
     1
 90
        2
176
     1
 40
0.6
176
     1
 40
30.0
176
     1
 62
     7
420
 16777215
176
     1
 90
        1
176
     1
 90
        2
176
     1
 62
     7
176
     1
 62
   257
176
     1
 90
        2
176
     1
 90
        1
176
     1
 40
1.0
176
     1
 90
        8
176
     1
 62
   257
176
     1
 40
1.0
176
     1
 90
        1
176
     1
 90
        6
176
     1
 90
        2
176
     1
 62
     7
176
     1
 90
        3
176
     1
 90
        0
176
     1
 90
        0
176
     1
290
     0
176
     1
 90
        5
176
     1
 40
0.0
176
     1
 90
        0
176
     1
290
     0
176
     1
290
     1
176
     1
290
     1
176
     1
290
     0
176
     1
290
     0
176
     1
290
     0
176
     1
290
     0
176
     1
290
     0
176
     1
290
     0
176
     1
 90
       50
176
     1
 40
0.0
176
     1
 40
1.0
176
     1
 90
        0
176
     1
 62
    18
420
        0
176
     1
 90
       50
176
     1
 90
        3
176
     1
 62
     5
420
      255
176
     1
290
     0
176
     1
 90
       50
176
     1
 90
       50
176
     1
 90
       50
176
     1
290
     0
176
     1
 90
       50
176
     1
 62
   256
176
     0
 40
1.0
176
     0
 90
        2
176
     1
  1
strokes_ogs.tif
176
     1
290
     0
176
     1
 40
1.0
176
     1
 40
1.0
176
     1
  0
VISUALSTYLE
  5
3A
102
{ACAD_REACTORS
330
29
102
}
330
29
100
AcDbVisualStyle
  2
Shades of Gray
 70
    23
177
     3
291
     0
 70
    58
 90
        2
176
     1
 90
        2
176
     1
 90
        3
176
     1
 90
        0
176
     1
 40
0.6
176
     1
 40
30.0
176
     1
 62
     7
420
 16777215
176
     1
 90
        2
176
     1
 90
        2
176
     1
 62
     7
176
     1
 62
     7
176
     1
 90
        1
176
     1
 90
        1
176
     1
 40
40.0
176
     1
 90
        8
176
     1
 62
     7
176
     1
 40
1.0
176
     1
 90
        1
176
     1
 90
        6
176
     1
 90
        2
176
     1
 62
     7
176
     1
 90
        3
176
     1
 90
        0
176
     1
 90
        0
176
     1
290
     0
176
     1
 90
        1
176
     1
 40
0.0
176
     1
 90
        0
176
     1
290
     0
176
     1
290
     1
176
     1
290
     1
176
     1
290
     0
176
     1
290
     0
176
     1
290
     0
176
     1
290
     0
176
     1
290
     0
176
     1
290
     0
176
     1
 90
       50
176
     1
 40
0.0
176
     1
 40
1.0
176
     1
 90
        0
176
     1
 62
    18
420
        0
176
     1
 90
       50
176
     1
 90
        3
176
     1
 62
     5
420
      255
176
     1
290
     0
176
     1
 90
       50
176
     1
 90
       50
176
     1
 90
       50
176
     1
290
     0
176
     1
 90
       50
176
     1
 62
   256
176
     0
 40
1.0
176
     0
 90
        2
176
     1
  1
strokes_ogs.tif
176
     1
290
     0
176
     1
 40
1.0
176
     1
 40
1.0
176
     1
  0
VISUALSTYLE
  5
3B
102
{ACAD_REACTORS
330
29
102
}
330
29
100
AcDbVisualStyle
  2
Sketchy
 70
    24
177
     3
291
     0
 70
    58
 90
        1
176
     1
 90
        2
176
     1
 90
        2
176
     1
 90
        0
176
     1
 40
0.6
176
     1
 40
30.0
176
     1
 62
     7
420
 16777215
176
     1
 90
        2
176
     1
 90
        2
176
     1
 62
     7
176
     1
 62
     7
176
     1
 90
        1
176
     1
 90
        1
176
     1
 40
40.0
176
     1
 90
       11
176
     1
 62
     7
176
     1
 40
1.0
176
     1
 90
        1
176
     1
 90
        6
176
     1
 90
        2
176
     1
 62
     7
176
     1
 90
        6
176
     1
 90
        0
176
     1
 90
        0
176
     1
290
     0
176
     1
 90
        1
176
     1
 40
0.0
176
     1
 90
        0
176
     1
290
     0
176
     1
290
     1
176
     1
290
     1
176
     1
290
     0
176
     1
290
     0
176
     1
290
     0
176
     1
290
     0
176
     1
290
     0
176
     1
290
     0
176
     1
 90
       50
176
     1
 40
0.0
176
     1
 40
1.0
176
     1
 90
        0
176
     1
 62
    18
420
        0
176
     1
 90
       50
176
     1
 90
        3
176
     1
 62
     5
420
      255
176
     1
290
     0
176
     1
 90
       50
176
     1
 90
       50
176
     1
 90
       50
176
     1
290
     0
176
     1
 90
       50
176
     1
 62
   256
176
     0
 40
1.0
176
     0
 90
        2
176
     1
  1
strokes_ogs.tif
176
     1
290
     0
176
     1
 40
1.0
176
     1
 40
1.0
176
     1
  0
VISUALSTYLE
  5
36
102
{ACAD_REACTORS
330
29
102
}
330
29
100
AcDbVisualStyle
  2
Thicken
 70
    13
177
     3
291
     1
 70
    58
 90
        2
176
     1
 90
        2
176
     1
 90
        0
176
     1
 90
        0
176
     1
 40
0.6
176
     1
 40
30.0
176
     1
 62
     7
420
 16777215
176
     1
 90
        1
176
     1
 90
        4
176
     1
 62
     7
176
     1
 62
   257
176
     1
 90
        1
176
     1
 90
        1
176
     1
 40
1.0
176
     1
 90
       12
176
     1
 62
     7
176
     1
 40
1.0
176
     1
 90
        1
176
     1
 90
        6
176
     1
 90
        2
176
     1
 62
     7
176
     1
 90
        5
176
     1
 90
        0
176
     1
 90
        0
176
     1
290
     0
176
     1
 90
        1
176
     1
 40
0.0
176
     1
 90
        0
176
     1
290
     0
176
     1
290
     1
176
     1
290
     1
176
     1
290
     0
176
     1
290
     0
176
     1
290
     0
176
     1
290
     0
176
     1
290
     0
176
     1
290
     0
176
     1
 90
       50
176
     1
 40
0.0
176
     1
 40
1.0
176
     1
 90
        0
176
     1
 62
    18
420
        0
176
     1
 90
       50
176
     1
 90
        3
176
     1
 62
     5
420
      255
176
     1
290
     0
176
     1
 90
       50
176
     1
 90
       50
176
     1
 90
       50
176
     1
290
     0
176
     1
 90
       50
176
     1
 62
   256
176
     0
 40
1.0
176
     0
 90
        2
176
     1
  1
strokes_ogs.tif
176
     1
290
     0
176
     1
 40
1.0
176
     1
 40
1.0
176
     1
  0
VISUALSTYLE
  5
30
102
{ACAD_REACTORS
330
29
102
}
330
29
100
AcDbVisualStyle
  2
Wireframe
 70
     5
177
     3
291
     0
 70
    58
 90
        0
176
     1
 90
        2
176
     1
 90
        0
176
     1
 90
        0
176
     1
 40
0.6
176
     1
 40
30.0
176
     1
 62
     7
420
 16777215
176
     1
 90
        1
176
     1
 90
        4
176
     1
 62
     7
176
     1
 62
   257
176
     1
 90
        1
176
     1
 90
        1
176
     1
 40
1.0
176
     1
 90
        0
176
     1
 62
   257
176
     1
 40
1.0
176
     1
 90
        1
176
     1
 90
        6
176
     1
 90
        2
176
     1
 62
     7
176
     1
 90
        3
176
     1
 90
        0
176
     1
 90
        0
176
     1
290
     0
176
     1
 90
        1
176
     1
 40
0.0
176
     1
 90
        0
176
     1
290
     0
176
     1
290
     1
176
     1
290
     1
176
     1
290
     0
176
     1
290
     0
176
     1
290
     0
176
     1
290
     0
176
     1
290
     0
176
     1
290
     0
176
     1
 90
       50
176
     1
 40
0.0
176
     1
 40
1.0
176
     1
 90
        0
176
     1
 62
    18
420
        0
176
     1
 90
       50
176
     1
 90
        3
176
     1
 62
     5
420
      255
176
     1
290
     0
176
     1
 90
       50
176
     1
 90
       50
176
     1
 90
       50
176
     1
290
     0
176
     1
 90
       50
176
     1
 62
   256
176
     0
 40
1.0
176
     0
 90
        2
176
     1
  1
strokes_ogs.tif
176
     1
290
     0
176
     1
 40
1.0
176
     1
 40
1.0
176
     1
  0
VISUALSTYLE
  5
3C
102
{ACAD_REACTORS
330
29
102
}
330
29
100
AcDbVisualStyle
  2
X-Ray
 70
    25
177
     3
291
     0
 70
    58
 90
        2
176
     1
 90
        2
176
     1
 90
        1
176
     1
 90
        1
176
     1
 40
0.5
176
     1
 40
30.0
176
     1
 62
     7
420
 16777215
176
     1
 90
        1
176
     1
 90
        0
176
     1
 62
     7
176
     1
 62
   257
176
     1
 90
        1
176
     1
 90
        1
176
     1
 40
1.0
176
     1
 90
        8
176
     1
 62
     7
176
     1
 40
1.0
176
     1
 90
        1
176
     1
 90
        6
176
     1
 90
        2
176
     1
 62
     7
176
     1
 90
        3
176
     1
 90
        0
176
     1
 90
        0
176
     1
290
     0
176
     1
 90
       13
176
     1
 40
0.0
176
     1
 90
        0
176
     1
290
     0
176
     1
290
     1
176
     1
290
     1
176
     1
290
     0
176
     1
290
     0
176
     1
290
     0
176
     1
290
     0
176
     1
290
     0
176
     1
290
     0
176
     1
 90
       50
176
     1
 40
0.0
176
     1
 40
1.0
176
     1
 90
        0
176
     1
 62
    18
420
        0
176
     1
 90
       50
176
     1
 90
        3
176
     1
 62
     5
420
      255
176
     1
290
     0
176
     1
 90
       50
176
     1
 90
       50
176
     1
 90
       50
176
     1
290
     0
176
     1
 90
       50
176
     1
 62
   256
176
     0
 40
1.0
176
     0
 90
        2
176
     1
  1
strokes_ogs.tif
176
     1
290
     0
176
     1
 40
1.0
176
     1
 40
1.0
176
     1
  0
DICTIONARYVAR
  5
80
102
{ACAD_REACTORS
330
7B
102
}
330
7B
100
DictionaryVariables
280
     0
  1
1:1
  0
DICTIONARYVAR
  5
7D
102
{ACAD_REACTORS
330
7B
102
}
330
7B
100
DictionaryVariables
280
     0
  1
STANDARD
  0
DICTIONARYVAR
  5
7C
102
{ACAD_REACTORS
330
7B
102
}
330
7B
100
DictionaryVariables
280
     0
  1
STANDARD
  0
DICTIONARYVAR
  5
7E
102
{ACAD_REACTORS
330
7B
102
}
330
7B
100
DictionaryVariables
280
     0
  1
Imperial24
  0
DICTIONARYVAR
  5
7F
102
{ACAD_REACTORS
330
7B
102
}
330
7B
100
DictionaryVariables
280
     0
  1
Imperial24
  0
XRECORD
  5
1C1
102
{ACAD_REACTORS
330
1BD
102
}
330
1BD
100
AcDbXrecord
280
     1
  1
BUILDING_ID
  1
Projet8
  1
FLOOR_ID
  1
256440
  0
XRECORD
  5
1BF
102
{ACAD_REACTORS
330
1BD
102
}
330
1BD
100
AcDbXrecord
280
     1
  1
-2000011
  1
Murs
  1
-2000014
  1
Fenêtres
  1
-2000032
  1
Sols
  1
-2000200
  1
Coupes
  1
-2000240
  1
Niveaux
  1
-2006020
  1
Marqueurs de niveau
  0
XRECORD
  5
1C0
102
{ACAD_REACTORS
330
1BD
102
}
330
1BD
100
AcDbXrecord
280
     1
  1
-2000016
  1
Verre
  1
-2000018
  1
Cadre/Meneau
  1
-2000020
  1
Appui/Linteau
  1
-2000608
  1
Motif de coupe
  1
135064
  1
Sens d'ouverture de l'élévation
  1
135838
  1
Tapées
  0
XRECORD
  5
1BE
102
{ACAD_REACTORS
330
1BD
102
}
330
1BD
100
AcDbXrecord
280
     1
  1
255852
  1
1 Vantail - Droit : 0.60 m x 0.95 m - Appui en aluminium (2.00m large)
  1
29331
  1
Mur de base : Générique - Ext. 200 mm : Générique - Ext. 200 mm
  1
583
  1
Coupe : Coupe du bâtiment
  1
602
  1
Niveau : Ligne du Niveau
  1
634
  1
Sol : Dalle en béton - 250 mm
  0
DICTIONARY
  5
1A
330
19
100
AcDbDictionary
280
     1
281
     1
  3
BUMPTILE
360
1C
  3
DIFFUSETILE
360
1B
  3
OPACITYTILE
360
1F
  3
REFLECTIONTILE
360
1E
  3
REFRACTIONTILE
360
20
  3
SPECULARTILE
360
1D
  0
DICTIONARY
  5
12
330
11
100
AcDbDictionary
280
     1
281
     1
  3
BUMPTILE
360
14
  3
DIFFUSETILE
360
13
  3
OPACITYTILE
360
17
  3
REFLECTIONTILE
360
16
  3
REFRACTIONTILE
360
18
  3
SPECULARTILE
360
15
  0
DICTIONARY
  5
22
330
21
100
AcDbDictionary
280
     1
281
     1
  3
BUMPTILE
360
24
  3
DIFFUSETILE
360
23
  3
OPACITYTILE
360
27
  3
REFLECTIONTILE
360
26
  3
REFRACTIONTILE
360
28
  3
SPECULARTILE
360
25
  0
DICTIONARY
  5
1C5
330
65
100
AcDbDictionary
280
     1
281
     1
  3
ACAD_ROUNDTRIP_2008_TABLESTYLE_CELLSTYLEMAP
360
1C6
  0
XRECORD
  5
1C
102
{ACAD_REACTORS
330
1A
102
}
330
1A
100
AcDbXrecord
280
     1
270
     1
271
     1
  0
XRECORD
  5
1B
102
{ACAD_REACTORS
330
1A
102
}
330
1A
100
AcDbXrecord
280
     1
270
     1
271
     1
  0
XRECORD
  5
1F
102
{ACAD_REACTORS
330
1A
102
}
330
1A
100
AcDbXrecord
280
     1
270
     1
271
     1
  0
XRECORD
  5
1E
102
{ACAD_REACTORS
330
1A
102
}
330
1A
100
AcDbXrecord
280
     1
270
     1
271
     1
  0
XRECORD
  5
20
102
{ACAD_REACTORS
330
1A
102
}
330
1A
100
AcDbXrecord
280
     1
270
     1
271
     1
  0
XRECORD
  5
1D
102
{ACAD_REACTORS
330
1A
102
}
330
1A
100
AcDbXrecord
280
     1
270
     1
271
     1
  0
XRECORD
  5
14
102
{ACAD_REACTORS
330
12
102
}
330
12
100
AcDbXrecord
280
     1
270
     1
271
     1
  0
XRECORD
  5
13
102
{ACAD_REACTORS
330
12
102
}
330
12
100
AcDbXrecord
280
     1
270
     1
271
     1
  0
XRECORD
  5
17
102
{ACAD_REACTORS
330
12
102
}
330
12
100
AcDbXrecord
280
     1
270
     1
271
     1
  0
XRECORD
  5
16
102
{ACAD_REACTORS
330
12
102
}
330
12
100
AcDbXrecord
280
     1
270
     1
271
     1
  0
XRECORD
  5
18
102
{ACAD_REACTORS
330
12
102
}
330
12
100
AcDbXrecord
280
     1
270
     1
271
     1
  0
XRECORD
  5
15
102
{ACAD_REACTORS
330
12
102
}
330
12
100
AcDbXrecord
280
     1
270
     1
271
     1
  0
XRECORD
  5
24
102
{ACAD_REACTORS
330
22
102
}
330
22
100
AcDbXrecord
280
     1
270
     1
271
     1
  0
XRECORD
  5
23
102
{ACAD_REACTORS
330
22
102
}
330
22
100
AcDbXrecord
280
     1
270
     1
271
     1
  0
XRECORD
  5
27
102
{ACAD_REACTORS
330
22
102
}
330
22
100
AcDbXrecord
280
     1
270
     1
271
     1
  0
XRECORD
  5
26
102
{ACAD_REACTORS
330
22
102
}
330
22
100
AcDbXrecord
280
     1
270
     1
271
     1
  0
XRECORD
  5
28
102
{ACAD_REACTORS
330
22
102
}
330
22
100
AcDbXrecord
280
     1
270
     1
271
     1
  0
XRECORD
  5
25
102
{ACAD_REACTORS
330
22
102
}
330
22
100
AcDbXrecord
280
     1
270
     1
271
     1
  0
CELLSTYLEMAP
  5
1C6
102
{ACAD_REACTORS
330
1C5
102
}
330
1C5
100
AcDbCellStyleMap
 90
        3
300
CELLSTYLE
  1
TABLEFORMAT_BEGIN
 90
        5
170
     1
 91
        0
 92
    32768
 62
   257
 93
        1
300
CONTENTFORMAT
  1
CONTENTFORMAT_BEGIN
 90
        0
 91
        0
 92
      512
 93
        0
300

 40
0.0
140
1.0
 94
        5
 62
     0
340
55
144
0.25
309
CONTENTFORMAT_END
171
     0
 94
        0
309
TABLEFORMAT_END
  1
CELLSTYLE_BEGIN
 90
        1
 91
        1
300
_TITLE
309
CELLSTYLE_END
300
CELLSTYLE
  1
TABLEFORMAT_BEGIN
 90
        5
170
     1
 91
        0
 92
        0
 62
   257
 93
        1
300
CONTENTFORMAT
  1
CONTENTFORMAT_BEGIN
 90
        0
 91
        0
 92
      512
 93
        0
300

 40
0.0
140
1.0
 94
        5
 62
     0
340
55
144
0.18
309
CONTENTFORMAT_END
171
     0
 94
        0
309
TABLEFORMAT_END
  1
CELLSTYLE_BEGIN
 90
        2
 91
        1
300
_HEADER
309
CELLSTYLE_END
300
CELLSTYLE
  1
TABLEFORMAT_BEGIN
 90
        5
170
     1
 91
        0
 92
        0
 62
   257
 93
        1
300
CONTENTFORMAT
  1
CONTENTFORMAT_BEGIN
 90
        0
 91
        0
 92
      512
 93
        0
300

 40
0.0
140
1.0
 94
        2
 62
     0
340
55
144
0.18
309
CONTENTFORMAT_END
171
     0
 94
        0
309
TABLEFORMAT_END
  1
CELLSTYLE_BEGIN
 90
        3
 91
        2
300
_DATA
309
CELLSTYLE_END
  0
ENDSEC
  0
EOF
